<svg xmlns="http://www.w3.org/2000/svg" fill-rule="evenodd" stroke-miterlimit="1.414" viewBox="0 0 221 221" clip-rule="evenodd" stroke-linejoin="round">
  <circle cx="110.425" cy="110.425" r="110.425" fill="#e30613"/>
  <g fill="#fff">
    <g fill-rule="nonzero">
      <path d="M105.27 51.467l-3.06 4.505-6.95-3.347.208-.613c.782.16 1.575.488 2.344.438 1.116-.073 2.224-.38 3.318-.66 1.694-.43 3.407-1.395 5.052-1.28 3.172.224 4.5 2.183 3.41 5.182-.88 2.423-2.232 4.892-4.035 6.673-.93.92-3.533.938-4.94.335-1.154-.496-1.658-2.51-2.53-3.987 3.787-1.29 3.317 1.63 4.24 2.91 4.02-1.597 5.506-6.124 2.942-10.156zM91.38 77.613c4.217-1.44 6.11-5.3 4.373-9.714l-3.833 4.06-6.46-4.41.306-.57c.827.32 1.632.82 2.486.92 1 .12 2.058 0 3.062-.19 1.463-.27 2.94-1.08 4.34-.94 3.705.37 5.153 2.64 3.573 5.96-1.062 2.23-2.72 4.42-4.674 5.88-1.074.8-3.602.55-4.94-.19-1.118-.62-1.46-2.64-2.243-4.24 4.098-1.05 3.04 2.18 4.01 3.4zM82.915 94.24c4.216-1.442 6.11-5.3 4.372-9.715l-3.833 4.06c-2.14-1.46-4.3-2.934-6.46-4.41l.306-.567c.827.323 1.632.818 2.486.924 1 .124 2.058-.002 3.062-.183 1.463-.27 2.94-1.08 4.34-.94 3.705.37 5.153 2.64 3.573 5.96-1.06 2.23-2.72 4.43-4.67 5.88-1.07.8-3.6.55-4.94-.19-1.11-.62-1.46-2.64-2.24-4.24 4.1-1.05 3.04 2.18 4.01 3.4z"/>
      <path d="M125.632 9.51l-9.985-3.583S103.4 31.694 78.43 31.664c0 0-7.927.368-7.916-8.438l-10.278-.012s6.11 30.286 40.227 8.528c0 0-46.54 49.975-50.493 103.123 0 0-3.257 70.507 57.356 36.98 0 0 13.225-6.878 18.703-6.907 0 0-5.02-3.437-8.71-11.54 0 0-31.14 34.04-47.82 11.224-16.68-22.82-9.2-73.357 56.12-155.112z"/>
      <path d="M114.437 124.156s8.587 46.233 28.696 36.308c0 0 19.438-5.295-4.584-53.965 0 0-12.01-21.6-23.82-15.77 0 0-5.28 2.57-6.3 11.5-1.02 8.92-.78 13.08-7.7 16.5-6.92 3.41-18.7-1.84-25.35-15.3 0 0 .66 27.39 27.31 22.03 0 0 12.89-3.8 13.2-17.42 0 0-.01-5.75 2.41-6.95s8.99-5.02 18.6 20.11c9.61 25.14 4.92 29.72 3.22 31.46-1.71 1.74-12.19 3.14-25.71-28.54zm35.2-31.856s-.007-5.75 2.413-6.944 8.99-5.02 18.602 20.115c9.61 25.14 4.928 29.72 3.222 31.47-1.705 1.75-12.188 3.15-25.71-28.53 0 0 8.588 46.24 28.698 36.31 0 0 19.438-5.29-4.584-53.96 0 0-12.004-21.59-23.812-15.76 0 0-5.28 2.58-6.3 11.5 0 0-.444 9.85 4.98 19.56 0 0 3.887-2.77 2.492-13.73z"/>
    </g>
    <path d="M181.364 64.096h1.028s1.498 1.497 3.868 3.742c2.37 2.246 3.107 5.728.375 8.733-1.25 1.38.497-1.87.497-2.86 0-1-1.995-5.49-4.364-5.49v10.23c0 1.5-1.498 3.12-3.868 3.12-2.372 0-3.868-1.75-3.12-4.24.542-1.81 4.242-2.37 5.615-.62l-.03-12.6zm8.578 9.76l.03 10.854c-1.372-1.747-5.07-1.184-5.613.624-.75 2.495.74 4.242 3.11 4.242s3.87-1.622 3.87-3.12v-12.6h-1.41zM174.65 39.11l.03 11.744c-1.374-1.747-5.072-1.185-5.614.624-.75 2.496.748 4.242 3.118 4.242s3.868-1.622 3.868-3.118v-7.9l6.844 1.904.018 6.62c-1.373-1.747-5.072-1.184-5.614.625-.75 2.5.75 4.25 3.12 4.25s3.867-1.62 3.867-3.12V41.76l-9.638-2.647zm1.403 3.512v-1.125l6.837 1.9v1.126l-6.837-1.9z"/>
  </g>
  <path fill="#fff" fill-rule="nonzero" d="M120.365 203.552l-2.712 1.23-.638-1.685 3.545-1.52 1.707-.185 1.29 12.076-2.11.227-1.082-10.143zm8.503 12.22c2.413-.544 4.523-1.743 5.68-3.505.835-1.224 1.2-2.703 1.01-4.47-.944 1.09-2 1.69-3.206 1.963-2.954.667-5.317-.974-5.967-3.855-.644-2.856 1.117-5.606 4.146-6.29 4.04-.91 6.23 2.48 6.97 5.777 1.32 5.86-1.45 10.547-7.83 11.984l-.8-1.603zm6.446-9.627l-.098-.548c-.516-2.86-2.132-4.746-4.396-4.235-1.6.36-2.69 1.95-2.23 3.995.428 1.896 1.698 3.06 3.718 2.604 1.18-.26 2.31-.88 3.006-1.81zm6.13 2.67c1.32-2.3 4.773-7.613 3.93-9.86-.397-1.06-1.36-1.537-2.823-.99-.96.366-1.95 1.273-2.43 2.426l-1.56-.86c.62-1.44 2.03-2.78 3.54-3.35 2.25-.84 4.48-.49 5.31 1.73.97 2.58-1.66 6.72-2.89 8.88.02-.03.72-.38 1.31-.6l5.23-1.96.63 1.68-9.93 3.72-.3-.8zm10.986-14.665l-2.103 2.107-1.19-1.35 2.778-2.676 1.532-.77 5.474 10.84-1.89.96-4.59-9.1zm10.94-3.927l4.272-3.012 1.048 1.49-4.272 3.01-1.048-1.48zM179 187.46c.264-2.64 1.238-8.902-.45-10.606-.8-.807-1.87-.848-2.98.254-.736.73-1.26 1.957-1.23 3.207l-1.784-.15c-.028-1.57.712-3.37 1.86-4.508 1.704-1.688 3.884-2.285 5.554-.6 1.938 1.956 1.236 6.81.992 9.29 0-.038.503-.642.95-1.086l3.966-3.92 1.26 1.28-7.532 7.47-.605-.61zm5.672-13.086c-2.315-1.752-3.92-5.405-1.3-8.868 2.604-3.442 6.456-2.967 8.832-1.168 2.335 1.767 3.91 5.46 1.305 8.902-2.63 3.463-6.51 2.902-8.84 1.134zm6.184-8.175c-2.033-1.54-4.502-1.67-6.086.43-1.6 2.11-.806 4.32 1.248 5.88 2.053 1.55 4.49 1.72 6.09-.4 1.585-2.1.803-4.37-1.252-5.92zm7.124-1.24c-.49-2.61-1.313-8.89-3.413-10.06-.994-.55-2.032-.29-2.79 1.08-.5.9-.658 2.23-.278 3.42l-1.76.35c-.47-1.5-.27-3.44.51-4.85 1.16-2.1 3.08-3.29 5.16-2.14 2.4 1.33 3.1 6.18 3.56 8.63-.01-.04.3-.76.6-1.31l2.7-4.88 1.56.86-5.13 9.27-.75-.42zm-1.178-18.3l-.23 2.97-1.78-.26.372-3.84.663-1.59 11.207 4.68-.818 1.95-9.414-3.94zM20.785 74.25l.5-1.28 1.07.42-.5 1.28 1.085.424c1.814.71 2.57 2.218 1.854 4.05-.33.84-.662 1.216-.8 1.33l-.995-.8c.08-.078.37-.394.59-.945.39-1-.06-1.81-1.29-2.29l-.99-.39-.77 1.96-1.07-.42.76-1.96L13.51 73l.537-1.378 6.725 2.627zm-6.557 2.67c2.11.656 2.046 3.15 1.432 5.127l-.104.33.7.213c1.096.34 1.705.02 2.04-1.06.237-.764.168-1.478-.203-2.34l1.165-.404c.465.964.57 2.035.198 3.23-.572 1.846-1.707 2.567-3.584 1.985l-3.556-1.1c-.863-.26-1.542-.37-1.988-.4l.433-1.39c.24 0 .74.1.99.16-.49-.7-.72-1.71-.41-2.71.42-1.34 1.57-2.04 2.9-1.63zm-1.38 4.618l1.728.537.104-.332c.505-1.628.423-2.947-.857-3.344-.78-.24-1.264.32-1.414.8-.27.86-.05 1.66.43 2.34zm4.855 5.775l-.304 1.43-1.14-.242c.72.89 1 1.91.78 2.94-.37 1.74-1.66 2.18-3.09 1.88l-5.82-1.24.3-1.44 5.53 1.18c.98.21 1.67 0 1.89-1.04.18-.89-.32-1.85-.94-2.55l-5.72-1.21.3-1.43 8.19 1.74zm-2.923 9.22l.18-1.362 1.14.15-.18 1.37 1.154.15c1.932.26 3.026 1.54 2.77 3.49-.12.9-.353 1.34-.46 1.49l-1.156-.54c.064-.1.273-.47.35-1.06.14-1.07-.49-1.75-1.8-1.92l-1.052-.14-.275 2.09-1.13-.15.28-2.09-7.16-.94.2-1.46 7.16.95zm-5.735 4.176c2.205.13 2.736 2.57 2.61 4.64l-.022.34.73.04c1.145.07 1.66-.39 1.728-1.52.05-.8-.18-1.48-.75-2.23l1.04-.67c.68.82 1.04 1.84.96 3.09-.12 1.93-1.05 2.9-3.01 2.78l-3.71-.23c-.9-.06-1.58 0-2.02.08l.09-1.46c.23-.06.74-.08 1-.08-.64-.56-1.11-1.5-1.04-2.54.09-1.41 1.03-2.36 2.42-2.28zm-.242 4.81l1.806.11.02-.35c.1-1.7-.29-2.96-1.63-3.05-.82-.05-1.16.61-1.19 1.11-.06.9.35 1.62.98 2.16zm6.122 4.45l.023 1.46-1.27.02c.58.34 1.496 1.04 1.515 2.18.008.54-.108.81-.16.94l-1.38-.35c.05-.11.135-.32.127-.77-.02-1.2-1.37-1.86-1.65-2l-5.55.09-.022-1.46 8.367-.14zm-4.035 5.65c2.48-.22 4.458 1.21 4.656 3.45.186 2.11-1.18 3.48-3.52 3.68-.21.02-.418.02-.645.02l-.49-5.57c-1.66.19-3.02 1.01-2.86 2.8.1 1.14.67 1.86.91 2.21l-1.02.66c-.33-.43-.97-1.3-1.1-2.84-.23-2.67 1.57-4.21 4.09-4.43zm1.49 5.61c1.125-.14 2.087-.73 1.965-2.1-.11-1.27-1.056-1.88-2.323-1.98l.36 4.08zm-.09 7.16c2.583-.58 4.65.6 5.11 2.65.192.87.106 1.6-.22 2.21l4.534-1.02.32 1.42-10.43 2.34c-.645.14-1.332.42-1.75.62l-.324-1.44c.16-.09.6-.28.9-.36-.82-.41-1.44-1.11-1.662-2.09-.445-1.99.788-3.73 3.523-4.34zm-.684 6.11l4.35-.97c.33-.59.457-1.23.282-2.01-.33-1.48-1.784-2-3.583-1.59-1.8.4-2.9 1.31-2.554 2.85.16.71.74 1.37 1.51 1.71zm2.916 3.15c2.367-.77 4.616.18 5.308 2.32.655 2.02-.372 3.65-2.607 4.37-.2.06-.403.11-.623.16l-1.723-5.32c-1.574.56-2.717 1.66-2.164 3.37.354 1.09 1.07 1.67 1.382 1.95l-.85.88c-.42-.34-1.235-1.05-1.712-2.52-.825-2.55.59-4.45 2.99-5.23zm2.708 5.14c1.066-.38 1.87-1.17 1.447-2.48-.393-1.21-1.45-1.6-2.707-1.41l1.26 3.89zm5.164 4.85l.685 1.44-4.88 4.8.01.03 6.79-.74.64 1.36-8.89.79-.6-1.26 6.22-6.44zm-.047 9.63c1.71-1 4.326-1.32 5.767 1.14 1.433 2.44-.002 4.68-1.728 5.69-1.71 1-4.393 1.24-5.835-1.22-1.43-2.45.07-4.6 1.8-5.61zm3.217 5.49c1.5-.88 2.325-2.33 1.49-3.75-.844-1.44-2.37-1.3-3.886-.41-1.516.88-2.394 2.24-1.55 3.68.836 1.42 2.43 1.36 3.946.47zm1.686 2.73c1.61-1.16 4.18-1.73 5.85.58 1.66 2.3.448 4.65-1.174 5.82-1.607 1.16-4.253 1.66-5.924-.65-1.66-2.3-.372-4.58 1.25-5.75zm3.73 5.16c1.41-1.02 2.092-2.54 1.124-3.88-.98-1.36-2.483-1.06-3.908-.04-1.423 1.03-2.166 2.47-1.188 3.82.97 1.34 2.55 1.12 3.972.09zm5.575.28l.947 1.11-.967.82c.663-.11 1.813-.15 2.557.73.35.41.438.7.476.83l-1.283.61c-.027-.12-.096-.33-.39-.67-.777-.92-2.236-.57-2.538-.49l-4.225 3.59-.946-1.12 6.37-5.42zm-.28 8.73l4.2-4.19 1.043 1.05-4 3.99c-.714.71-.9 1.39-.137 2.15.84.84 2.33.63 2.62.58l4.13-4.12 1.05 1.042-4.58 4.57c-.55.555-1.02 1.145-1.22 1.465l-1.05-1.04c.11-.19.49-.668.77-.96-.66.1-1.92.1-2.93-.91-1.26-1.27-.93-2.59.12-3.63zM47.272 182l1.13.984-5.493 6.316-1.13-.99 5.49-6.31zm1.435-2.07c.377-.434 1.016-.48 1.448-.1.434.376.478 1.015.102 1.45-.365.42-1.016.475-1.448.1-.44-.38-.47-1.03-.11-1.45zM47.022 190l3.148-4.057-1.086-.85.705-.905 1.08.84 1.47-1.9 1.15.9-1.47 1.896 1.65 1.28-.71.904-1.65-1.28-3.03 3.9c-.52.66-.57 1.13 0 1.57.41.32.91.403 1.1.42l-.3 1.15c-.32-.023-1.01-.146-1.76-.723-1.2-.923-1.21-2.01-.33-3.153zm2.008 6.47c.52-.785 1.415-1.07 2.37-1-.25-.437-.286-.92.06-1.442.337-.505.93-.68 1.485-.66-.495-.96-.426-2.04.19-2.97.978-1.48 2.793-1.82 4.55-.66.404.27.744.575 1 .912l2.32 1.54-.603.916-1.045-.695c.036.61-.14 1.23-.506 1.78-.97 1.47-2.78 1.83-4.53.67-.27-.18-.5-.37-.72-.6-.38-.05-.64.057-.78.27-.25.38.1.8.72 1.25 1.45 1.09 3.58 2.35 2.16 4.5-.96 1.45-3.16 1.285-5.07.025-1.64-1.09-2.48-2.46-1.58-3.824zm5.352 3.04c.682-1.03-.232-1.64-1.05-2.26-.415-.32-.856-.63-1.21-.95-.82-.02-1.408.237-1.782.804-.423.634-.26 1.492.942 2.29 1.336.883 2.56.923 3.1.11zm3.22-6.155c.626-.94.472-2-.544-2.673s-2.052-.4-2.677.543c-.62.94-.47 2 .55 2.68 1.02.67 2.05.4 2.68-.55zm1.432 4.97c1.054-1.94 3.487-1.392 5.307-.41l.31.17.35-.64c.55-1.01.35-1.67-.64-2.21-.7-.38-1.41-.45-2.33-.25l-.17-1.22c1.04-.27 2.11-.16 3.21.436 1.7.92 2.19 2.18 1.25 3.9l-1.77 3.27c-.43.8-.66 1.44-.77 1.88l-1.28-.7c.05-.24.25-.7.35-.94-.78.35-1.82.37-2.74-.12-1.24-.67-1.7-1.94-1.04-3.16zm4.26 2.25l.863-1.59-.306-.163c-1.49-.81-2.8-.988-3.44.19-.39.72.07 1.3.51 1.54.8.433 1.62.367 2.38.026zm6.58-3.66l1.345.58-.46 1.07c1-.538 2.06-.617 3.03-.2 1.63.7 1.81 2.044 1.24 3.39l-2.34 5.476-1.36-.58 2.22-5.2c.4-.93.32-1.64-.65-2.06-.83-.35-1.88-.04-2.68.43l-2.3 5.38-1.35-.572 3.29-7.697zm4.836 13.01c.286-.89 1.073-1.41 2.01-1.6-.36-.353-.527-.81-.336-1.404.185-.58.71-.9 1.247-1.04-.73-.78-.96-1.84-.62-2.9.54-1.69 2.19-2.51 4.2-1.87.47.148.88.35 1.22.606l2.65.85-.33 1.04-1.19-.38c.2.57.2 1.21 0 1.84-.53 1.674-2.17 2.52-4.18 1.88-.31-.1-.58-.223-.86-.384-.38.06-.6.23-.68.48-.13.43.32.74 1.03 1 1.69.65 4.09 1.29 3.3 3.74-.53 1.66-2.69 2.1-4.87 1.41-1.87-.596-3.06-1.69-2.56-3.245zm5.98 1.47c.374-1.173-.67-1.51-1.627-1.89-.486-.19-.996-.37-1.42-.58-.796.206-1.292.61-1.498 1.26-.232.73.156 1.51 1.533 1.95 1.525.486 2.716.19 3.01-.74zm1.42-6.794c.343-1.07-.093-2.05-1.253-2.42-1.16-.37-2.084.18-2.428 1.26-.35 1.08.09 2.06 1.25 2.43 1.16.37 2.08-.174 2.42-1.25z"/>
</svg>
