<?xml version="1.0" encoding="UTF-8" standalone="no"?><!DOCTYPE svg PUBLIC "-//W3C//DTD SVG 1.1//EN" "http://www.w3.org/Graphics/SVG/1.1/DTD/svg11.dtd"><svg width="100%" height="100%" viewBox="0 0 72 30" version="1.1" xmlns="http://www.w3.org/2000/svg" xmlns:xlink="http://www.w3.org/1999/xlink" xml:space="preserve" style="fill-rule:evenodd;clip-rule:evenodd;stroke-miterlimit:1.41421;"><rect id="path16" x="58.845" y="0.396" width="11.923" height="14.469" style="fill:#fff;fill-rule:nonzero;stroke-width:0.6px;stroke:#fff;"/><rect id="path18" x="47.146" y="14.92" width="11.678" height="14.684" style="fill:#fff;fill-rule:nonzero;stroke-width:0.6px;stroke:#fff;"/><rect id="path20" x="47.14" y="0.398" width="11.61" height="14.447" style="fill:#231f20;fill-rule:nonzero;stroke-width:0.15px;stroke:#231f20;"/><rect id="path22" x="58.899" y="14.958" width="11.882" height="14.632" style="fill:#231f20;fill-rule:nonzero;stroke-width:0.15px;stroke:#231f20;"/><path id="path26" d="M25.026,15.683l-0.333,0l-0.057,-0.455l-0.031,-0.036l-0.644,0l0,1.06l0.43,0l0.03,-0.042l0.039,-0.345l0.29,0l0,1.078l-0.29,0l-0.039,-0.345l-0.035,-0.042l-0.425,0l0,1.012l0.044,0.048l0.272,0.03l0,0.261l-1.161,0l0,-0.261l0.236,-0.024l0.04,-0.048l0,-2.346l-0.04,-0.048l-0.254,-0.024l0,-0.267l1.928,0l0,0.794Z" style="fill:#231f20;fill-rule:nonzero;"/><path id="path30" d="M27.479,16.55l-0.281,-0.94l-0.271,0.94l0.552,0ZM28.613,17.907l-1.077,0l0,-0.261l0.245,-0.03l0.018,-0.048l-0.219,-0.715l-0.741,0l-0.214,0.72l0.026,0.049l0.245,0.024l0,0.261l-0.876,0l0,-0.261l0.232,-0.036l0.837,-2.757l0.447,0l0.854,2.751l0.223,0.042l0,0.261l0,0Z" style="fill:#231f20;fill-rule:nonzero;"/><path id="path34" d="M32.438,15.15l-0.228,0.03l-0.053,0.061l0,2.666l-0.478,0l-1.217,-2.254l0,1.896l0.044,0.067l0.245,0.03l0,0.261l-0.911,0l0,-0.261l0.232,-0.024l0.048,-0.067l0,-2.332l-0.035,-0.049l-0.245,-0.024l0,-0.261l0.911,0l0,0.14l1.065,1.951l0,-1.745l-0.048,-0.061l-0.242,-0.024l0,-0.261l0.912,0l0,0.261Z" style="fill:#231f20;fill-rule:nonzero;"/><path id="path38" d="M35.78,15.683l-0.333,0l-0.057,-0.455l-0.03,-0.036l-0.644,0l0,1.06l0.429,0l0.031,-0.042l0.039,-0.345l0.289,0l0,1.078l-0.289,0l-0.039,-0.345l-0.035,-0.042l-0.425,0l0,1.012l0.044,0.048l0.271,0.03l0,0.261l-1.161,0l0,-0.261l0.237,-0.024l0.039,-0.048l0,-2.346l-0.039,-0.048l-0.254,-0.024l0,-0.267l1.927,0l0,0.794Z" style="fill:#231f20;fill-rule:nonzero;"/><path id="path42" d="M38.234,16.55l-0.281,-0.94l-0.271,0.94l0.552,0ZM39.368,17.907l-1.078,0l0,-0.261l0.246,-0.03l0.017,-0.048l-0.219,-0.715l-0.74,0l-0.215,0.72l0.027,0.049l0.245,0.024l0,0.261l-0.876,0l0,-0.261l0.232,-0.036l0.837,-2.757l0.446,0l0.855,2.751l0.223,0.042l0,0.261l0,0Z" style="fill:#231f20;fill-rule:nonzero;"/><g id="g46"><path id="path54" d="M42.084,15.75c0,-0.372 -0.169,-0.558 -0.508,-0.558l-0.131,0l0,1.109c0.02,0.004 0.052,0.006 0.096,0.006c0.362,0 0.543,-0.186 0.543,-0.557M43.127,17.896c-0.184,0.028 -0.31,0.041 -0.377,0.041c-0.207,0 -0.372,-0.066 -0.495,-0.2c-0.099,-0.109 -0.181,-0.297 -0.245,-0.563c-0.053,-0.227 -0.118,-0.379 -0.195,-0.458c-0.077,-0.079 -0.201,-0.118 -0.37,-0.118l0,0.97l0.044,0.048l0.236,0.03l0,0.261l-1.13,0l0,-0.261l0.241,-0.024l0.039,-0.048l0,-2.346l-0.039,-0.048l-0.241,-0.024l0,-0.267l1.178,0c0.602,0 0.903,0.259 0.903,0.776c0,0.404 -0.196,0.66 -0.587,0.769c0.134,0.041 0.235,0.109 0.302,0.206c0.067,0.097 0.134,0.271 0.201,0.522c0.056,0.205 0.109,0.336 0.16,0.39c0.051,0.055 0.15,0.082 0.296,0.082l0.079,0.012l0,0.25l0,0Z" style="fill:#231f20;fill-rule:nonzero;"/><path id="path58" d="M46.57,17.907l-2.055,0l0,-0.267l0.237,-0.024l0.044,-0.048l0,-2.34l-0.04,-0.048l-0.241,-0.024l0,-0.267l1.937,0l0,0.745l-0.333,0l-0.057,-0.406l-0.031,-0.036l-0.666,0l0,1l0.412,0l0.035,-0.037l0.035,-0.351l0.294,0l0,1.079l-0.294,0l-0.035,-0.352l-0.035,-0.036l-0.412,0l0,1.109l0.776,0l0.031,-0.049l0.072,-0.491l0.326,0l0,0.843Z" style="fill:#231f20;fill-rule:nonzero;"/><path id="path62" d="M2.908,21.688c0,-1.115 -0.344,-1.672 -1.03,-1.672l-0.254,0l0,3.375l0.254,0c0.686,0 1.03,-0.568 1.03,-1.703M3.565,21.682c0,0.436 -0.067,0.816 -0.2,1.139c-0.133,0.323 -0.322,0.564 -0.567,0.722c-0.202,0.129 -0.472,0.193 -0.81,0.193l-1.275,0l0,-0.297l0.263,-0.03l0.07,-0.097l0,-3.218l-0.07,-0.097l-0.263,-0.03l0,-0.297l1.275,0c0.496,0 0.883,0.177 1.16,0.531c0.278,0.353 0.417,0.847 0.417,1.481" style="fill:#231f20;fill-rule:nonzero;"/><path id="path66" d="M6.806,23.736l-2.054,0l0,-0.266l0.236,-0.025l0.044,-0.048l0,-2.339l-0.039,-0.049l-0.241,-0.024l0,-0.267l1.936,0l0,0.746l-0.333,0l-0.057,-0.406l-0.03,-0.037l-0.666,0l0,1l0.411,0l0.036,-0.036l0.035,-0.352l0.293,0l0,1.079l-0.293,0l-0.035,-0.351l-0.036,-0.037l-0.411,0l0,1.109l0.775,0l0.031,-0.048l0.072,-0.491l0.326,0l0,0.842Z" style="fill:#231f20;fill-rule:nonzero;"/><path id="path70" d="M12.602,19.967l-0.285,0.079l-0.972,3.702l-0.443,0l-0.994,-3.708l-0.289,-0.073l0,-0.297l1.205,0l0,0.297l-0.254,0.031l-0.049,0.09l0.727,2.764l0.706,-2.764l-0.049,-0.09l-0.262,-0.031l0,-0.297l0.959,0l0,0.297Z" style="fill:#231f20;fill-rule:nonzero;"/><path id="path74" d="M15.257,22.245c0,-0.383 -0.061,-0.689 -0.182,-0.918c-0.121,-0.228 -0.283,-0.342 -0.484,-0.342c-0.196,0 -0.353,0.113 -0.471,0.34c-0.118,0.226 -0.177,0.523 -0.177,0.89c0,0.376 0.06,0.679 0.182,0.909c0.12,0.231 0.279,0.346 0.475,0.346c0.195,0 0.354,-0.112 0.475,-0.337c0.121,-0.224 0.182,-0.52 0.182,-0.888M15.888,22.233c0,0.457 -0.122,0.834 -0.366,1.131c-0.244,0.297 -0.551,0.445 -0.922,0.445c-0.38,0 -0.69,-0.147 -0.929,-0.442c-0.239,-0.295 -0.359,-0.677 -0.359,-1.146c0,-0.472 0.119,-0.853 0.357,-1.142c0.238,-0.289 0.551,-0.433 0.939,-0.433c0.368,0 0.674,0.15 0.916,0.451c0.242,0.301 0.364,0.68 0.364,1.136" style="fill:#231f20;fill-rule:nonzero;"/><path id="path78" d="M19.024,22.245c0,-0.383 -0.06,-0.689 -0.182,-0.918c-0.121,-0.228 -0.282,-0.342 -0.484,-0.342c-0.195,0 -0.352,0.113 -0.471,0.34c-0.118,0.226 -0.177,0.523 -0.177,0.89c0,0.376 0.06,0.679 0.182,0.909c0.121,0.231 0.279,0.346 0.475,0.346c0.196,0 0.354,-0.112 0.475,-0.337c0.122,-0.224 0.182,-0.52 0.182,-0.888M19.655,22.233c0,0.457 -0.122,0.834 -0.366,1.131c-0.244,0.297 -0.551,0.445 -0.922,0.445c-0.38,0 -0.689,-0.147 -0.929,-0.442c-0.239,-0.295 -0.359,-0.677 -0.359,-1.146c0,-0.472 0.119,-0.853 0.357,-1.142c0.238,-0.289 0.551,-0.433 0.94,-0.433c0.368,0 0.673,0.15 0.915,0.451c0.243,0.301 0.364,0.68 0.364,1.136" style="fill:#231f20;fill-rule:nonzero;"/><path id="path82" d="M22.314,21.579c0,-0.371 -0.169,-0.557 -0.508,-0.557l-0.132,0l0,1.108c0.021,0.005 0.053,0.006 0.097,0.006c0.362,0 0.543,-0.185 0.543,-0.557M23.357,23.726c-0.184,0.027 -0.31,0.041 -0.377,0.041c-0.208,0 -0.372,-0.067 -0.495,-0.2c-0.099,-0.109 -0.181,-0.297 -0.245,-0.564c-0.053,-0.226 -0.118,-0.379 -0.195,-0.457c-0.078,-0.079 -0.201,-0.119 -0.371,-0.119l0,0.97l0.044,0.049l0.237,0.03l0,0.26l-1.13,0l0,-0.26l0.24,-0.025l0.04,-0.048l0,-2.345l-0.04,-0.048l-0.24,-0.025l0,-0.266l1.178,0c0.602,0 0.903,0.258 0.903,0.775c0,0.404 -0.196,0.661 -0.587,0.77c0.134,0.04 0.234,0.109 0.302,0.206c0.067,0.097 0.134,0.271 0.201,0.521c0.056,0.206 0.109,0.336 0.16,0.391c0.051,0.054 0.15,0.082 0.296,0.082l0.079,0.012l0,0.25Z" style="fill:#231f20;fill-rule:nonzero;"/><path id="path86" d="M26.817,20.979l-0.24,0.031l-0.04,0.048l0,1.581c0,0.412 -0.079,0.714 -0.236,0.906c-0.158,0.192 -0.406,0.288 -0.745,0.288c-0.429,0 -0.723,-0.139 -0.881,-0.419c-0.093,-0.166 -0.14,-0.433 -0.14,-0.802l0,-1.56l-0.035,-0.048l-0.245,-0.025l0,-0.26l1.13,0l0,0.26l-0.245,0.025l-0.035,0.048l0,1.579c0,0.288 0.042,0.494 0.127,0.617c0.084,0.124 0.226,0.185 0.424,0.185c0.19,0 0.326,-0.065 0.408,-0.194c0.082,-0.129 0.123,-0.346 0.123,-0.65l0,-1.537l-0.04,-0.048l-0.249,-0.025l0,-0.26l0.919,0l0,0.26Z" style="fill:#231f20;fill-rule:nonzero;"/><path id="path90" d="M29.139,23.736l-1.183,0l0,-0.26l0.268,-0.031l0.039,-0.048l0,-2.339l-0.039,-0.049l-0.268,-0.03l0,-0.261l1.183,0l0,0.261l-0.267,0.025l-0.039,0.048l0,2.351l0.039,0.048l0.267,0.025l0,0.26Z" style="fill:#231f20;fill-rule:nonzero;"/><path id="path94" d="M32.377,21.555l-0.333,0l-0.066,-0.497l-0.035,-0.036l-0.39,0l0,2.375l0.044,0.049l0.258,0.03l0,0.26l-1.178,0l0,-0.26l0.263,-0.025l0.043,-0.048l0,-2.381l-0.389,0l-0.035,0.036l-0.062,0.497l-0.333,0l0,-0.836l2.213,0l0,0.836Z" style="fill:#231f20;fill-rule:nonzero;"/><path id="path98" d="M35.916,22.482l-0.232,0.03l-0.039,0.037l0,1.048c-0.301,0.133 -0.583,0.2 -0.846,0.2c-0.406,0 -0.734,-0.145 -0.983,-0.433c-0.25,-0.289 -0.375,-0.67 -0.375,-1.143c0,-0.472 0.127,-0.851 0.38,-1.136c0.253,-0.285 0.589,-0.427 1.007,-0.427c0.249,0 0.521,0.051 0.817,0.151l0,0.8l-0.343,0l-0.075,-0.491l-0.044,-0.066c-0.088,-0.037 -0.181,-0.055 -0.281,-0.055c-0.263,0 -0.471,0.108 -0.623,0.324c-0.153,0.217 -0.229,0.513 -0.229,0.888c0,0.388 0.078,0.693 0.235,0.915c0.156,0.222 0.368,0.333 0.637,0.333c0.032,0 0.079,-0.006 0.14,-0.018l0.03,-0.006l0,-0.89l-0.043,-0.037l-0.289,-0.024l0,-0.261l1.156,0l0,0.261Z" style="fill:#231f20;fill-rule:nonzero;"/><path id="path102" d="M38.286,22.379l-0.28,-0.939l-0.272,0.939l0.552,0ZM39.421,23.736l-1.078,0l0,-0.26l0.245,-0.03l0.018,-0.049l-0.219,-0.715l-0.74,0l-0.215,0.72l0.026,0.049l0.246,0.025l0,0.26l-0.877,0l0,-0.26l0.233,-0.037l0.836,-2.757l0.447,0l0.854,2.751l0.224,0.043l0,0.26l0,0Z" style="fill:#231f20;fill-rule:nonzero;"/><path id="path106" d="M42.96,20.979l-0.227,0.031l-0.053,0.06l0,2.666l-0.479,0l-1.216,-2.254l0,1.897l0.044,0.067l0.245,0.03l0,0.26l-0.911,0l0,-0.26l0.232,-0.025l0.048,-0.067l0,-2.332l-0.035,-0.048l-0.245,-0.025l0,-0.26l0.911,0l0,0.139l1.064,1.951l0,-1.745l-0.048,-0.06l-0.241,-0.025l0,-0.26l0.911,0l0,0.26Z" style="fill:#231f20;fill-rule:nonzero;"/><path id="path110" d="M46.601,22.482l-0.232,0.03l-0.04,0.037l0,1.048c-0.301,0.133 -0.583,0.2 -0.845,0.2c-0.406,0 -0.734,-0.145 -0.984,-0.433c-0.249,-0.289 -0.374,-0.67 -0.374,-1.143c0,-0.472 0.126,-0.851 0.38,-1.136c0.252,-0.285 0.588,-0.427 1.007,-0.427c0.248,0 0.52,0.051 0.816,0.151l0,0.8l-0.342,0l-0.075,-0.491l-0.044,-0.066c-0.088,-0.037 -0.182,-0.055 -0.281,-0.055c-0.264,0 -0.472,0.108 -0.624,0.324c-0.152,0.217 -0.229,0.513 -0.229,0.888c0,0.388 0.079,0.693 0.235,0.915c0.156,0.222 0.369,0.333 0.638,0.333c0.032,0 0.078,-0.006 0.139,-0.018l0.031,-0.006l0,-0.89l-0.044,-0.037l-0.288,-0.024l0,-0.261l1.156,0l0,0.261Z" style="fill:#231f20;fill-rule:nonzero;"/><path id="path114" d="M24.78,28.699c0,0.275 -0.093,0.498 -0.28,0.67c-0.187,0.171 -0.431,0.257 -0.731,0.257c-0.249,0 -0.501,-0.054 -0.758,-0.163l0,-0.843l0.359,0l0.066,0.558l0.035,0.048c0.099,0.041 0.197,0.061 0.293,0.061c0.292,0 0.438,-0.133 0.438,-0.4c0,-0.117 -0.03,-0.215 -0.09,-0.294c-0.059,-0.079 -0.171,-0.169 -0.335,-0.27c-0.274,-0.169 -0.461,-0.319 -0.56,-0.448c-0.1,-0.129 -0.149,-0.289 -0.149,-0.479c0,-0.27 0.083,-0.49 0.251,-0.657c0.168,-0.168 0.388,-0.252 0.66,-0.252c0.233,0 0.477,0.055 0.732,0.164l0,0.757l-0.342,0l-0.07,-0.478l-0.035,-0.055c-0.071,-0.032 -0.15,-0.048 -0.237,-0.048c-0.269,0 -0.403,0.131 -0.403,0.394c0,0.145 0.06,0.272 0.18,0.381c0.061,0.057 0.205,0.148 0.433,0.273c0.362,0.198 0.543,0.473 0.543,0.824" style="fill:#231f20;fill-rule:nonzero;"/><path id="path118" d="M28.097,27.384l-0.333,0l-0.066,-0.497l-0.035,-0.036l-0.39,0l0,2.375l0.044,0.049l0.258,0.03l0,0.26l-1.178,0l0,-0.26l0.263,-0.024l0.043,-0.049l0,-2.381l-0.389,0l-0.035,0.036l-0.062,0.497l-0.333,0l0,-0.836l2.213,0l0,0.836Z" style="fill:#231f20;fill-rule:nonzero;"/><path id="path122" d="M30.085,29.566l-1.182,0l0,-0.261l0.267,-0.03l0.039,-0.049l0,-2.339l-0.039,-0.048l-0.267,-0.03l0,-0.261l1.182,0l0,0.261l-0.267,0.024l-0.039,0.049l0,2.35l0.039,0.049l0.267,0.024l0,0.261Z" style="fill:#231f20;fill-rule:nonzero;"/><path id="path126" d="M32.477,27.49c0,-0.418 -0.159,-0.627 -0.477,-0.627l-0.149,0l0,1.297c0.029,0.004 0.057,0.006 0.083,0.006c0.362,0 0.543,-0.225 0.543,-0.676M33.069,27.457c0,0.319 -0.087,0.57 -0.261,0.751c-0.174,0.182 -0.415,0.273 -0.725,0.273l-0.232,0l0,0.746l0.039,0.048l0.276,0.03l0,0.261l-1.165,0l0,-0.261l0.237,-0.024l0.044,-0.055l0,-2.339l-0.036,-0.048l-0.262,-0.024l0,-0.267l1.038,0c0.698,0 1.047,0.303 1.047,0.909" style="fill:#231f20;fill-rule:nonzero;"/><path id="path130" d="M36.569,29.566l-1.135,0l0,-0.261l0.246,-0.03l0.039,-0.049l0,-1.066l-0.867,0l0,1.072l0.043,0.049l0.246,0.024l0,0.261l-1.139,0l0,-0.261l0.236,-0.024l0.044,-0.049l0,-2.345l-0.044,-0.048l-0.236,-0.03l0,-0.261l1.139,0l0,0.261l-0.246,0.024l-0.043,0.049l0,0.963l0.867,0l0,-0.963l-0.039,-0.049l-0.246,-0.024l0,-0.261l1.135,0l0,0.261l-0.237,0.024l-0.044,0.049l0,2.35l0.044,0.049l0.237,0.024l0,0.261Z" style="fill:#231f20;fill-rule:nonzero;"/><path id="path134" d="M39.465,28.075c0,-0.384 -0.061,-0.69 -0.182,-0.918c-0.121,-0.228 -0.283,-0.342 -0.484,-0.342c-0.196,0 -0.353,0.113 -0.471,0.339c-0.119,0.226 -0.178,0.523 -0.178,0.891c0,0.375 0.061,0.678 0.182,0.909c0.121,0.23 0.28,0.345 0.476,0.345c0.195,0 0.354,-0.112 0.475,-0.336c0.121,-0.224 0.182,-0.52 0.182,-0.888M40.096,28.063c0,0.456 -0.123,0.833 -0.366,1.13c-0.244,0.297 -0.552,0.446 -0.922,0.446c-0.38,0 -0.69,-0.148 -0.929,-0.443c-0.24,-0.295 -0.359,-0.677 -0.359,-1.145c0,-0.473 0.119,-0.854 0.356,-1.143c0.239,-0.288 0.552,-0.433 0.94,-0.433c0.368,0 0.673,0.151 0.916,0.452c0.242,0.301 0.364,0.679 0.364,1.136" style="fill:#231f20;fill-rule:nonzero;"/><path id="path138" d="M43.626,26.808l-0.241,0.031l-0.039,0.048l0,1.582c0,0.412 -0.079,0.714 -0.237,0.906c-0.157,0.192 -0.406,0.288 -0.744,0.288c-0.43,0 -0.723,-0.14 -0.881,-0.419c-0.093,-0.166 -0.14,-0.433 -0.14,-0.802l0,-1.561l-0.035,-0.048l-0.245,-0.025l0,-0.26l1.13,0l0,0.26l-0.246,0.025l-0.035,0.048l0,1.58c0,0.288 0.043,0.493 0.127,0.616c0.085,0.124 0.227,0.186 0.426,0.186c0.189,0 0.325,-0.065 0.407,-0.195c0.082,-0.129 0.122,-0.346 0.122,-0.65l0,-1.537l-0.039,-0.048l-0.25,-0.025l0,-0.26l0.92,0l0,0.26Z" style="fill:#231f20;fill-rule:nonzero;"/><path id="path142" d="M46.671,27.384l-0.333,0l-0.066,-0.497l-0.035,-0.036l-0.39,0l0,2.375l0.044,0.049l0.259,0.03l0,0.26l-1.179,0l0,-0.26l0.263,-0.024l0.044,-0.049l0,-2.381l-0.39,0l-0.035,0.036l-0.061,0.497l-0.333,0l0,-0.836l2.212,0l0,0.836Z" style="fill:#231f20;fill-rule:nonzero;"/><path id="path146" d="M64.91,22.149l-0.095,-0.705" style="fill:#fd0;fill-rule:nonzero;stroke-width:0.22px;stroke:#231f20;"/><path id="path150" d="M64.125,19.905l-0.014,-0.288" style="fill:#fd0;fill-rule:nonzero;stroke-width:0.22px;stroke:#231f20;"/><path id="path154" d="M65.803,27.156l-0.081,-0.217" style="fill:#fd0;fill-rule:nonzero;stroke-width:0.22px;stroke:#231f20;"/><path id="path158" d="M61.73,26.637l0,-0.201" style="fill:#fd0;fill-rule:nonzero;stroke-width:0.22px;stroke:#231f20;"/><path id="path162" d="M61.554,21.689l0.19,-0.072" style="fill:#fd0;fill-rule:nonzero;stroke-width:0.22px;stroke:#231f20;"/><path id="path166" d="M67.67,23.976l-0.244,0.547" style="fill:#fd0;fill-rule:nonzero;stroke-width:0.22px;stroke:#231f20;"/><path id="path170" d="M61.812,17.675l0.189,-0.216" style="fill:#fd0;fill-rule:nonzero;stroke-width:0.22px;stroke:#231f20;"/><path id="path174" d="M66.195,24.422l-0.283,-0.777" style="fill:#fd0;fill-rule:nonzero;stroke-width:0.22px;stroke:#231f20;"/><path id="path178" d="M67.602,19.977l-0.189,0.201" style="fill:#fd0;fill-rule:nonzero;stroke-width:0.22px;stroke:#231f20;"/><path id="path182" d="M52.81,7.697l-0.095,-0.705" style="fill:#fd0;fill-rule:nonzero;stroke-width:0.22px;stroke:#231f20;"/><path id="path186" d="M52.025,5.453l-0.013,-0.288" style="fill:#fd0;fill-rule:nonzero;stroke-width:0.22px;stroke:#231f20;"/><path id="path190" d="M53.703,12.704l-0.081,-0.216" style="fill:#fd0;fill-rule:nonzero;stroke-width:0.22px;stroke:#231f20;"/><path id="path194" d="M49.631,12.185l0,-0.201" style="fill:#fd0;fill-rule:nonzero;stroke-width:0.22px;stroke:#231f20;"/><path id="path198" d="M49.454,7.237l0.19,-0.072" style="fill:#fd0;fill-rule:nonzero;stroke-width:0.22px;stroke:#231f20;"/><path id="path202" d="M55.57,9.524l-0.244,0.547" style="fill:#fd0;fill-rule:nonzero;stroke-width:0.22px;stroke:#231f20;"/><path id="path206" d="M49.711,3.223l0.19,-0.215" style="fill:#fd0;fill-rule:nonzero;stroke-width:0.22px;stroke:#231f20;"/><path id="path210" d="M54.095,9.97l-0.284,-0.777" style="fill:#fd0;fill-rule:nonzero;stroke-width:0.22px;stroke:#231f20;"/><path id="path214" d="M55.502,5.525l-0.189,0.201" style="fill:#fd0;fill-rule:nonzero;stroke-width:0.22px;stroke:#231f20;"/><path id="path218" d="M61.78,2.985l-0.389,-0.548c0,0 1.523,-0.324 1.051,1.207l1.744,1.352l0.021,0.313l-0.021,-0.358l0.105,-0.369c0,0 0.736,0.369 0.778,-0.402c0,0 0.084,-0.659 -0.62,-0.57c0,0 -0.147,-0.123 -0.074,-0.682c0,0 0.242,0.068 0.82,-0.267c0,0 3.205,0.435 0.473,3.943c0,0 2.205,2.875 2.192,2.876c-0.012,0 -0.224,0.603 -0.224,0.603l0.228,-0.615c0,0 -0.193,-2.893 -0.683,-3.981c0,0 -0.211,-0.939 1.233,-2.562c0,0 1.436,0.16 -0.802,2.674l0.176,-0.196l0.822,1.604l-0.105,2.391l-0.2,0.994c0,0 -0.294,0.525 -0.252,1.274l-1.954,1.475l-0.295,-0.503l0.116,0.202l-0.557,0.39c0,0 -0.315,-0.927 1.366,-1.754l-0.399,-1.509l-0.284,-0.748l0.281,0.748l0.014,0.05l-0.863,0.023l-1.519,1.838l-1.219,0.79l-1.037,0l0,-0.566l-0.002,0.198l-0.714,-0.003c0,0 0.622,-0.768 1.541,-0.639l0.891,-1.389l-0.126,-0.581l2.081,-1.542l-0.379,-0.514l-0.072,-0.693l0.069,0.693l-3.051,1.014c0,0 -0.463,-0.649 -0.693,-1.379l0.476,-0.149l-0.189,0.055l-0.306,-0.578c0,0 1.251,0.092 0.894,1.06c0,0 1.023,-0.149 1.891,-1.252c0,0 -0.917,0.298 -1.555,-0.484l0.666,-0.398l-1.555,-2.235l0.409,-0.48" style="fill:#d1232a;fill-rule:nonzero;stroke-width:0.15px;stroke:#231f20;"/><path id="path222" d="M64.981,3.819c0,0 -0.826,0.506 -1.051,-0.105c0,0 -0.126,-0.074 -0.098,0.194c0,0 0.182,0.551 1.191,0.194c0,0 0.084,-0.03 -0.042,-0.283" style="fill:#fd0;fill-rule:nonzero;"/><path id="path226" d="M64.981,3.819c0,0 -0.826,0.506 -1.051,-0.105c0,0 -0.126,-0.074 -0.098,0.194c0,0 0.182,0.551 1.191,0.194c0,0 0.084,-0.03 -0.042,-0.283l0,0Z" style="fill:none;stroke-width:0.08px;stroke:#231f20;"/><path id="path230" d="M68.464,2.963c0,0 0.045,0.648 -0.594,1.274" style="fill:none;stroke-width:0.15px;stroke:#231f20;"/><path id="path234" d="M65.219,2.645l0.545,-0.564c0,0 0.344,-0.191 0.089,0.462c0,0 -0.064,0.16 0.121,-0.116c0,0 0.554,-0.6 0.249,0.186c0,0 -0.099,0.419 0.17,0.042l0.195,-0.25c0,0 0.284,-0.095 0.16,0.25c0,0 -0.11,0.276 -0.08,0.993c0,0 -0.255,-0.743 -1.449,-1.003" style="fill:#fd0;fill-rule:nonzero;"/><path id="path238" d="M65.219,2.645l0.545,-0.564c0,0 0.344,-0.191 0.089,0.462c0,0 -0.064,0.16 0.121,-0.116c0,0 0.554,-0.6 0.249,0.186c0,0 -0.099,0.419 0.17,0.042l0.195,-0.25c0,0 0.284,-0.095 0.16,0.25c0,0 -0.11,0.276 -0.08,0.993c0,0 -0.255,-0.743 -1.449,-1.003Z" style="fill:none;stroke-width:0.15px;stroke:#231f20;"/><path id="path242" d="M66.704,3.77c0,0 -0.069,-0.339 -0.71,-0.435" style="fill:none;stroke-width:0.15px;stroke:#231f20;"/><path id="path246" d="M66.633,4.947c0,0 0.032,-0.422 -0.541,-0.502" style="fill:none;stroke-width:0.15px;stroke:#231f20;"/><path id="path250" d="M66.751,4.43c0,0 -0.127,-0.574 -0.663,-0.615" style="fill:none;stroke-width:0.15px;stroke:#231f20;"/><path id="path254" d="M62.491,5.921c0,0 0.695,0.326 1.228,-0.02" style="fill:none;stroke-width:0.15px;stroke:#231f20;"/><path id="path258" d="M49.608,17.541l-0.389,-0.547c0,0 1.523,-0.324 1.05,1.206l1.745,1.353l0.021,0.313l-0.021,-0.358l0.105,-0.369c0,0 0.735,0.369 0.778,-0.402c0,0 0.083,-0.659 -0.62,-0.57c0,0 -0.147,-0.123 -0.074,-0.682c0,0 0.241,0.067 0.82,-0.268c0,0 3.205,0.436 0.472,3.944c0,0 2.206,2.875 2.193,2.875c-0.013,0.001 -0.224,0.604 -0.224,0.604l0.227,-0.615c0,0 -0.192,-2.893 -0.683,-3.981c0,0 -0.21,-0.938 1.234,-2.562c0,0 1.436,0.16 -0.803,2.674l0.176,-0.196l0.823,1.604l-0.105,2.391l-0.2,0.994c0,0 -0.294,0.525 -0.252,1.274l-1.955,1.474l-0.294,-0.502l0.116,0.202l-0.557,0.39c0,0 -0.315,-0.927 1.366,-1.754l-0.399,-1.509l-0.284,-0.748l0.281,0.748l0.014,0.05l-0.863,0.023l-1.52,1.838l-1.219,0.79l-1.037,0l0,-0.566l-0.001,0.198l-0.715,-0.003c0,0 0.623,-0.768 1.542,-0.64l0.891,-1.388l-0.126,-0.581l2.08,-1.542l-0.378,-0.514l-0.072,-0.693l0.068,0.693l-3.051,1.014c0,0 -0.462,-0.648 -0.693,-1.379l0.476,-0.148l-0.189,0.054l-0.306,-0.578c0,0 1.252,0.091 0.895,1.06c0,0 1.023,-0.149 1.891,-1.252c0,0 -0.918,0.299 -1.555,-0.484l0.665,-0.398l-1.555,-2.235l0.41,-0.481" style="fill:#d1232a;fill-rule:nonzero;stroke-width:0.15px;stroke:#231f20;"/><path id="path262" d="M52.809,18.376c0,0 -0.827,0.506 -1.051,-0.105c0,0 -0.126,-0.074 -0.098,0.194c0,0 0.182,0.551 1.191,0.194c0,0 0.084,-0.03 -0.042,-0.283" style="fill:#fd0;fill-rule:nonzero;"/><path id="path266" d="M52.809,18.376c0,0 -0.827,0.506 -1.051,-0.105c0,0 -0.126,-0.074 -0.098,0.194c0,0 0.182,0.551 1.191,0.194c0,0 0.084,-0.03 -0.042,-0.283l0,0Z" style="fill:none;stroke-width:0.08px;stroke:#231f20;"/><path id="path270" d="M56.292,17.52c0,0 0.045,0.648 -0.594,1.275" style="fill:none;stroke-width:0.15px;stroke:#231f20;"/><path id="path274" d="M53.047,17.201l0.544,-0.563c0,0 0.345,-0.191 0.09,0.463c0,0 -0.065,0.159 0.12,-0.118c0,0 0.555,-0.6 0.25,0.187c0,0 -0.1,0.419 0.17,0.042l0.195,-0.25c0,0 0.284,-0.095 0.159,0.25c0,0 -0.11,0.276 -0.079,0.993c0,0 -0.255,-0.743 -1.449,-1.004" style="fill:#fd0;fill-rule:nonzero;"/><path id="path278" d="M53.047,17.201l0.544,-0.563c0,0 0.345,-0.191 0.09,0.463c0,0 -0.065,0.159 0.12,-0.118c0,0 0.555,-0.6 0.25,0.187c0,0 -0.1,0.419 0.17,0.042l0.195,-0.25c0,0 0.284,-0.095 0.159,0.25c0,0 -0.11,0.276 -0.079,0.993c0,0 -0.255,-0.743 -1.449,-1.004Z" style="fill:none;stroke-width:0.15px;stroke:#231f20;"/><path id="path282" d="M54.532,18.327c0,0 -0.07,-0.339 -0.711,-0.435" style="fill:none;stroke-width:0.15px;stroke:#231f20;"/><path id="path286" d="M54.46,19.504c0,0 0.033,-0.422 -0.54,-0.501" style="fill:none;stroke-width:0.15px;stroke:#231f20;"/><path id="path290" d="M54.578,18.987c0,0 -0.126,-0.574 -0.662,-0.615" style="fill:none;stroke-width:0.15px;stroke:#231f20;"/><path id="path294" d="M50.319,20.478c0,0 0.694,0.326 1.228,-0.02" style="fill:none;stroke-width:0.15px;stroke:#231f20;"/><path id="path298" d="M63.107,20.269l-1.459,-2.101l0.391,-0.473l-0.166,0.198l-0.383,-0.528c0,0 1.423,-0.259 0.98,1.111l1.658,1.327l0.003,0.28l-0.004,-0.286l0.08,-0.423c0,0 0.683,0.324 0.749,-0.339c0,0 0.08,-0.698 -0.583,-0.579c0,0 -0.12,-0.07 -0.06,-0.62c0,0 0.55,-0.042 1.386,-0.621c0,0 0.371,0.121 0.199,0.586c0,0 1.738,0.931 -0.358,3.511l2.077,2.754l-0.244,0.539l0.245,-0.543l0.006,-0.012l-0.012,-0.148c0,0 -0.177,-1.704 -0.392,-2.77c-0.147,-0.496 -0.289,-0.864 -0.287,-0.917c0.014,-0.297 0.139,-1.353 1.207,-2.428c0,0 1.326,0.239 -0.796,2.566l0.18,-0.199l0.788,1.525l-0.093,2.2l-0.199,0.959c0,0 -0.358,0.959 -0.239,1.269l-1.85,1.375l-0.265,-0.486l0.105,0.199l-0.533,0.353c0,0 -0.331,-0.806 1.28,-1.652l-0.378,-1.418l-0.258,-0.708l0.252,0.704l0.007,0.025l-0.797,0.046l-1.422,1.759l-1.154,0.748l-0.994,-0.014l0,-0.55l-0.002,0.198l-0.645,-0.002c0,0 0.413,-0.678 1.412,-0.614l0.856,-1.328l-0.12,-0.539l1.973,-1.424l-0.358,-0.508l-0.092,-0.677l0.085,0.676l-2.891,0.96c0,0 -0.537,-0.878 -0.606,-1.332l0.403,-0.138l-0.178,0.059l-0.282,-0.528c0,0 1.2,0.113 0.842,1.001c0,0 1.141,-0.268 1.771,-1.184c0,0 -0.949,0.246 -1.439,-0.458l0.604,-0.381Z" style="fill:#fd0;fill-rule:nonzero;"/><path id="path302" d="M63.107,20.269l-1.459,-2.101l0.391,-0.473l-0.166,0.198l-0.383,-0.528c0,0 1.423,-0.259 0.98,1.111l1.658,1.327l0.003,0.28l-0.004,-0.286l0.08,-0.423c0,0 0.683,0.324 0.749,-0.339c0,0 0.08,-0.698 -0.583,-0.579c0,0 -0.12,-0.07 -0.06,-0.62c0,0 0.55,-0.042 1.386,-0.621c0,0 0.371,0.121 0.199,0.586c0,0 1.738,0.931 -0.358,3.511l2.077,2.754l-0.244,0.539l0.245,-0.543l0.006,-0.012l-0.012,-0.148c0,0 -0.177,-1.704 -0.392,-2.77c-0.147,-0.496 -0.289,-0.864 -0.287,-0.917c0.014,-0.297 0.139,-1.353 1.207,-2.428c0,0 1.326,0.239 -0.796,2.566l0.18,-0.199l0.788,1.525l-0.093,2.2l-0.199,0.959c0,0 -0.358,0.959 -0.239,1.269l-1.85,1.375l-0.265,-0.486l0.105,0.199l-0.533,0.353c0,0 -0.331,-0.806 1.28,-1.652l-0.378,-1.418l-0.258,-0.708l0.252,0.704l0.007,0.025l-0.797,0.046l-1.422,1.759l-1.154,0.748l-0.994,-0.014l0,-0.55l-0.002,0.198l-0.645,-0.002c0,0 0.413,-0.678 1.412,-0.614l0.856,-1.328l-0.12,-0.539l1.973,-1.424l-0.358,-0.508l-0.092,-0.677l0.085,0.676l-2.891,0.96c0,0 -0.537,-0.878 -0.606,-1.332l0.403,-0.138l-0.178,0.059l-0.282,-0.528c0,0 1.2,0.113 0.842,1.001c0,0 1.141,-0.268 1.771,-1.184c0,0 -0.949,0.246 -1.439,-0.458l0.604,-0.381Z" style="fill:none;stroke-width:0.15px;stroke:#231f20;"/><path id="path306" d="M68.199,17.82c0,0 0.139,0.498 -0.547,1.238" style="fill:none;stroke-width:0.15px;stroke:#231f20;"/><path id="path310" d="M62.529,20.65c0,0 0.707,0.306 1.135,-0.021" style="fill:none;stroke-width:0.15px;stroke:#231f20;"/><path id="path314" d="M65.825,18.186c0,0 0.588,0.057 0.689,0.447" style="fill:none;stroke-width:0.15px;stroke:#231f20;"/><path id="path318" d="M65.907,18.647c0,0 0.587,0.033 0.641,0.719" style="fill:none;stroke-width:0.15px;stroke:#231f20;"/><path id="path322" d="M65.92,19.25c0,0 0.601,0.03 0.494,0.626" style="fill:none;stroke-width:0.15px;stroke:#231f20;"/><path id="path326" d="M64.856,18.668c0,0 -0.716,0.417 -0.943,-0.052c0,0 -0.072,-0.162 -0.131,0.019c0,0 -0.038,0.653 1.126,0.284c0,0 0.02,-0.129 -0.052,-0.251" style="fill:#d1232a;fill-rule:nonzero;"/><path id="path330" d="M64.856,18.668c0,0 -0.716,0.417 -0.943,-0.052c0,0 -0.072,-0.162 -0.131,0.019c0,0 -0.038,0.653 1.126,0.284c0,0 0.02,-0.129 -0.052,-0.251l0,0Z" style="fill:none;stroke-width:0.08px;stroke:#d1232a;"/><path id="path334" d="M51.111,5.654l-1.459,-2.101l0.392,-0.472l-0.167,0.198l-0.382,-0.528c0,0 1.422,-0.259 0.979,1.111l1.658,1.327l0.003,0.28l-0.004,-0.286l0.081,-0.424c0,0 0.683,0.324 0.749,-0.338c0,0 0.08,-0.699 -0.583,-0.579c0,0 -0.12,-0.07 -0.06,-0.62c0,0 0.55,-0.043 1.386,-0.621c0,0 0.371,0.12 0.199,0.585c0,0 1.738,0.931 -0.358,3.512l2.077,2.753l-0.243,0.54l0.244,-0.543l0.006,-0.012l-0.012,-0.148c0,0 -0.177,-1.704 -0.392,-2.77c-0.147,-0.496 -0.289,-0.864 -0.287,-0.918c0.014,-0.296 0.138,-1.352 1.206,-2.427c0,0 1.326,0.239 -0.795,2.566l0.18,-0.199l0.788,1.525l-0.093,2.2l-0.199,0.958c0,0 -0.358,0.959 -0.239,1.269l-1.85,1.375l-0.265,-0.486l0.105,0.2l-0.534,0.353c0,0 -0.33,-0.807 1.281,-1.653l-0.378,-1.417l-0.259,-0.709l0.252,0.704l0.008,0.026l-0.797,0.046l-1.422,1.759l-1.154,0.747l-0.995,-0.014l0,-0.55l-0.001,0.198l-0.645,-0.002c0,0 0.412,-0.677 1.412,-0.613l0.856,-1.328l-0.12,-0.539l1.973,-1.424l-0.358,-0.508l-0.093,-0.677l0.085,0.675l-2.89,0.961c0,0 -0.537,-0.878 -0.607,-1.333l0.403,-0.137l-0.177,0.059l-0.282,-0.528c0,0 1.201,0.113 0.842,1.001c0,0 1.141,-0.268 1.771,-1.184c0,0 -0.948,0.246 -1.439,-0.459l0.603,-0.381Z" style="fill:#fd0;fill-rule:nonzero;"/><path id="path338" d="M51.111,5.654l-1.459,-2.101l0.392,-0.472l-0.167,0.198l-0.382,-0.528c0,0 1.422,-0.259 0.979,1.111l1.658,1.327l0.003,0.28l-0.004,-0.286l0.081,-0.424c0,0 0.683,0.324 0.749,-0.338c0,0 0.08,-0.699 -0.583,-0.579c0,0 -0.12,-0.07 -0.06,-0.62c0,0 0.55,-0.043 1.386,-0.621c0,0 0.371,0.12 0.199,0.585c0,0 1.738,0.931 -0.358,3.512l2.077,2.753l-0.243,0.54l0.244,-0.543l0.006,-0.012l-0.012,-0.148c0,0 -0.177,-1.704 -0.392,-2.77c-0.147,-0.496 -0.289,-0.864 -0.287,-0.918c0.014,-0.296 0.138,-1.352 1.206,-2.427c0,0 1.326,0.239 -0.795,2.566l0.18,-0.199l0.788,1.525l-0.093,2.2l-0.199,0.958c0,0 -0.358,0.959 -0.239,1.269l-1.85,1.375l-0.265,-0.486l0.105,0.2l-0.534,0.353c0,0 -0.33,-0.807 1.281,-1.653l-0.378,-1.417l-0.259,-0.709l0.252,0.704l0.008,0.026l-0.797,0.046l-1.422,1.759l-1.154,0.747l-0.995,-0.014l0,-0.55l-0.001,0.198l-0.645,-0.002c0,0 0.412,-0.677 1.412,-0.613l0.856,-1.328l-0.12,-0.539l1.973,-1.424l-0.358,-0.508l-0.093,-0.677l0.085,0.675l-2.89,0.961c0,0 -0.537,-0.878 -0.607,-1.333l0.403,-0.137l-0.177,0.059l-0.282,-0.528c0,0 1.201,0.113 0.842,1.001c0,0 1.141,-0.268 1.771,-1.184c0,0 -0.948,0.246 -1.439,-0.459l0.603,-0.381Z" style="fill:none;stroke-width:0.15px;stroke:#231f20;"/><path id="path342" d="M56.204,3.206c0,0 0.139,0.497 -0.547,1.237" style="fill:none;stroke-width:0.15px;stroke:#231f20;"/><path id="path346" d="M50.535,6.035c0,0 0.705,0.307 1.133,-0.021" style="fill:none;stroke-width:0.15px;stroke:#231f20;"/><path id="path350" d="M53.829,3.572c0,0 0.589,0.057 0.69,0.447" style="fill:none;stroke-width:0.15px;stroke:#231f20;"/><path id="path354" d="M53.911,4.032c0,0 0.589,0.034 0.643,0.72" style="fill:none;stroke-width:0.15px;stroke:#231f20;"/><path id="path358" d="M53.925,4.636c0,0 0.601,0.03 0.493,0.625" style="fill:none;stroke-width:0.15px;stroke:#231f20;"/><path id="path362" d="M52.861,4.054c0,0 -0.717,0.417 -0.943,-0.052c0,0 -0.073,-0.163 -0.132,0.018c0,0 -0.038,0.654 1.126,0.285c0,0 0.021,-0.129 -0.051,-0.251" style="fill:#d1232a;fill-rule:nonzero;"/><path id="path366" d="M52.861,4.054c0,0 -0.717,0.417 -0.943,-0.052c0,0 -0.073,-0.163 -0.132,0.018c0,0 -0.038,0.654 1.126,0.285c0,0 0.021,-0.129 -0.051,-0.251l0,0Z" style="fill:none;stroke-width:0.08px;stroke:#d1232a;"/></g></svg>