<?xml version="1.0" encoding="UTF-8" standalone="no"?>
<!-- Created with Inkscape (http://www.inkscape.org/) -->

<svg
   xmlns:dc="http://purl.org/dc/elements/1.1/"
   xmlns:cc="http://creativecommons.org/ns#"
   xmlns:rdf="http://www.w3.org/1999/02/22-rdf-syntax-ns#"
   xmlns:svg="http://www.w3.org/2000/svg"
   xmlns="http://www.w3.org/2000/svg"
   xmlns:inkscape="http://www.inkscape.org/namespaces/inkscape"
   version="1.1"
   width="1000"
   height="750"
   id="svg2"
   xml:space="preserve"><metadata
     id="metadata8"><rdf:RDF><cc:Work
         rdf:about=""><dc:format>image/svg+xml</dc:format><dc:type
           rdf:resource="http://purl.org/dc/dcmitype/StillImage" /></cc:Work></rdf:RDF></metadata><defs
     id="defs6"><clipPath
       id="clipPath12"><path
         d="m 0,0 14400,0 0,14400 L 0,14400 0,0 z"
         inkscape:connector-curvature="0"
         id="path14" /></clipPath><clipPath
       id="clipPath48"><path
         d="m 0,14400 14400,0 L 14400,0 0,0 0,14400 z"
         inkscape:connector-curvature="0"
         id="path50" /></clipPath></defs><g
     transform="matrix(1.25,0,0,-1.25,-8500.625,9374.375)"
     clip-path="url(#clipPath12)"
     id="g10"><path
       d="m 7317.078,7202.602 -39.742,0 0,48.229 39.742,0 0,-48.229 z"
       inkscape:connector-curvature="0"
       id="path16"
       style="fill:#ffffff;fill-opacity:1;fill-rule:nonzero;stroke:#ffffff;stroke-width:2;stroke-linecap:butt;stroke-linejoin:miter;stroke-miterlimit:4;stroke-opacity:1;stroke-dasharray:none" /><path
       d="m 7277.266,7153.47 -38.926,0 0,48.947 38.926,0 0,-48.947 z"
       inkscape:connector-curvature="0"
       id="path18"
       style="fill:#ffffff;fill-opacity:1;fill-rule:nonzero;stroke:#ffffff;stroke-width:2;stroke-linecap:butt;stroke-linejoin:miter;stroke-miterlimit:4;stroke-opacity:1;stroke-dasharray:none" /><path
       d="m 7277.02,7202.666 -38.701,0 0,48.158 38.701,0 0,-48.158 z"
       inkscape:connector-curvature="0"
       id="path20"
       style="fill:#231f20;fill-opacity:1;fill-rule:nonzero;stroke:#231f20;stroke-width:0.5;stroke-linecap:butt;stroke-linejoin:miter;stroke-miterlimit:4;stroke-opacity:1;stroke-dasharray:none" /><path
       d="m 7317.123,7153.519 -39.607,0 0,48.772 39.607,0 0,-48.772 z"
       inkscape:connector-curvature="0"
       id="path22"
       style="fill:#231f20;fill-opacity:1;fill-rule:nonzero;stroke:#231f20;stroke-width:0.5;stroke-linecap:butt;stroke-linejoin:miter;stroke-miterlimit:4;stroke-opacity:1;stroke-dasharray:none" /><g
       transform="translate(7164.6045,7199.874)"
       id="g24"><path
         d="m 0,0 -1.11,0 -0.189,1.515 -0.103,0.121 -2.146,0 0,-3.534 1.431,0 0.102,0.14 0.131,1.152 0.964,0 0,-3.595 -0.964,0 -0.131,1.151 -0.117,0.141 -1.416,0 0,-3.373 0.146,-0.161 0.905,-0.102 0,-0.868 -3.87,0 0,0.868 0.789,0.081 0.131,0.162 0,7.817 -0.131,0.161 -0.847,0.081 0,0.889 L 0,2.646 0,0 z"
         inkscape:connector-curvature="0"
         id="path26"
         style="fill:#231f20;fill-opacity:1;fill-rule:nonzero;stroke:none" /></g><g
       transform="translate(7172.7817,7196.9854)"
       id="g28"><path
         d="M 0,0 -0.935,3.131 -1.84,0 0,0 z m 3.782,-4.524 -3.592,0 0,0.868 0.818,0.101 0.058,0.161 -0.73,2.384 -2.468,0 -0.715,-2.401 0.087,-0.163 0.818,-0.082 0,-0.868 -2.92,0 0,0.868 0.774,0.122 2.789,9.19 1.489,0 2.848,-9.171 0.744,-0.141 0,-0.868 z"
         inkscape:connector-curvature="0"
         id="path30"
         style="fill:#231f20;fill-opacity:1;fill-rule:nonzero;stroke:none" /></g><g
       transform="translate(7189.312,7201.6514)"
       id="g32"><path
         d="m 0,0 -0.759,-0.101 -0.176,-0.202 0,-8.887 -1.595,0 -4.056,7.514 0,-6.323 0.146,-0.222 0.818,-0.101 0,-0.868 -3.037,0 0,0.868 0.774,0.081 0.16,0.223 0,7.774 -0.117,0.163 -0.817,0.081 0,0.869 3.037,0 0,-0.465 3.548,-6.504 0,5.816 -0.16,0.203 -0.804,0.081 0,0.869 L 0,0.869 0,0 z"
         inkscape:connector-curvature="0"
         id="path34"
         style="fill:#231f20;fill-opacity:1;fill-rule:nonzero;stroke:none" /></g><g
       transform="translate(7200.4536,7199.874)"
       id="g36"><path
         d="m 0,0 -1.11,0 -0.19,1.515 -0.102,0.121 -2.146,0 0,-3.534 1.431,0 0.102,0.14 0.131,1.152 0.964,0 0,-3.595 -0.964,0 -0.131,1.151 -0.117,0.141 -1.416,0 0,-3.373 0.146,-0.161 0.905,-0.102 0,-0.868 -3.87,0 0,0.868 0.789,0.081 0.131,0.162 0,7.817 -0.131,0.161 -0.847,0.081 0,0.889 L 0,2.646 0,0 z"
         inkscape:connector-curvature="0"
         id="path38"
         style="fill:#231f20;fill-opacity:1;fill-rule:nonzero;stroke:none" /></g><g
       transform="translate(7208.6309,7196.9854)"
       id="g40"><path
         d="M 0,0 -0.935,3.131 -1.84,0 0,0 z m 3.782,-4.524 -3.593,0 0,0.868 0.819,0.101 0.058,0.161 -0.73,2.384 -2.468,0 -0.716,-2.401 0.088,-0.163 0.818,-0.082 0,-0.868 -2.92,0 0,0.868 0.773,0.122 2.789,9.19 1.489,0 2.848,-9.171 0.745,-0.141 0,-0.868 z"
         inkscape:connector-curvature="0"
         id="path42"
         style="fill:#231f20;fill-opacity:1;fill-rule:nonzero;stroke:none" /></g><g
       id="g44"><g
         clip-path="url(#clipPath48)"
         id="g46"><g
           transform="translate(7221.4668,7199.6519)"
           id="g52"><path
             d="m 0,0 c 0,1.239 -0.565,1.858 -1.694,1.858 l -0.438,0 0,-3.696 c 0.068,-0.014 0.175,-0.02 0.321,-0.02 C -0.604,-1.858 0,-1.239 0,0 M 3.476,-7.156 C 2.862,-7.247 2.443,-7.292 2.22,-7.292 c -0.692,0 -1.241,0.222 -1.651,0.667 -0.331,0.363 -0.603,0.99 -0.817,1.878 -0.176,0.754 -0.393,1.262 -0.65,1.525 -0.258,0.263 -0.669,0.394 -1.234,0.394 l 0,-3.232 0.146,-0.161 0.789,-0.102 0,-0.868 -3.768,0 0,0.868 0.803,0.081 0.132,0.162 0,7.817 -0.132,0.161 -0.803,0.081 0,0.889 3.928,0 c 2.006,0 3.008,-0.862 3.008,-2.585 0,-1.347 -0.653,-2.202 -1.956,-2.566 0.447,-0.134 0.783,-0.363 1.006,-0.686 0.225,-0.323 0.449,-0.903 0.672,-1.738 0.186,-0.686 0.364,-1.121 0.534,-1.302 0.169,-0.182 0.499,-0.273 0.985,-0.273 l 0.264,-0.041 0,-0.833 z"
             inkscape:connector-curvature="0"
             id="path54"
             style="fill:#231f20;fill-opacity:1;fill-rule:nonzero;stroke:none" /></g><g
           transform="translate(7236.4189,7192.4609)"
           id="g56"><path
             d="m 0,0 -6.849,0 0,0.889 0.789,0.081 0.146,0.161 0,7.797 -0.131,0.161 -0.804,0.081 0,0.889 6.455,0 0,-2.484 -1.11,0 -0.189,1.353 -0.103,0.121 -2.22,0 0,-3.332 1.373,0 0.118,0.121 0.116,1.171 0.978,0 0,-3.595 -0.978,0 -0.116,1.171 -0.118,0.121 -1.373,0 0,-3.696 2.585,0 0.105,0.162 0.238,1.636 L 0,2.808 0,0 z"
             inkscape:connector-curvature="0"
             id="path58"
             style="fill:#231f20;fill-opacity:1;fill-rule:nonzero;stroke:none" /></g><g
           transform="translate(7090.8774,7179.8564)"
           id="g60"><path
             d="m 0,0 c 0,3.717 -1.144,5.575 -3.432,5.575 l -0.846,0 0,-11.251 0.846,0 C -1.144,-5.676 0,-3.784 0,0 m 2.19,0.021 c 0,-1.455 -0.221,-2.72 -0.664,-3.797 -0.443,-1.078 -1.073,-1.879 -1.891,-2.405 -0.672,-0.43 -1.572,-0.646 -2.701,-0.646 l -4.25,0 0,0.99 0.877,0.101 0.233,0.323 0,10.726 -0.233,0.323 -0.877,0.101 0,0.99 4.25,0 c 1.654,0 2.944,-0.589 3.869,-1.768 C 1.728,3.781 2.19,2.135 2.19,0.021"
             inkscape:connector-curvature="0"
             id="path62"
             style="fill:#231f20;fill-opacity:1;fill-rule:nonzero;stroke:none" /></g><g
           transform="translate(7103.8735,7173.0293)"
           id="g64"><path
             d="m 0,0 -6.849,0 0,0.889 0.789,0.081 0.146,0.162 0,7.797 -0.131,0.161 -0.804,0.081 0,0.889 6.455,0 0,-2.485 -1.11,0 -0.19,1.354 -0.102,0.121 -2.22,0 0,-3.333 1.373,0 0.117,0.121 0.117,1.172 0.978,0 0,-3.596 -0.978,0 -0.117,1.172 -0.117,0.121 -1.373,0 0,-3.696 2.585,0 0.104,0.161 0.239,1.636 L 0,2.808 0,0 z"
             inkscape:connector-curvature="0"
             id="path66"
             style="fill:#231f20;fill-opacity:1;fill-rule:nonzero;stroke:none" /></g><g
           transform="translate(7123.1924,7185.5938)"
           id="g68"><path
             d="m 0,0 -0.949,-0.263 -3.242,-12.341 -1.475,0 L -8.98,-0.243 -9.944,0 l 0,0.989 4.016,0 0,-0.989 -0.847,-0.102 -0.161,-0.302 2.424,-9.211 2.351,9.211 -0.161,0.302 -0.876,0.102 0,0.989 L 0,0.989 0,0 z"
             inkscape:connector-curvature="0"
             id="path70"
             style="fill:#231f20;fill-opacity:1;fill-rule:nonzero;stroke:none" /></g><g
           transform="translate(7132.0415,7177.999)"
           id="g72"><path
             d="M 0,0 C 0,1.278 -0.202,2.299 -0.606,3.06 -1.01,3.82 -1.548,4.201 -2.219,4.201 -2.872,4.201 -3.395,3.824 -3.789,3.069 -4.184,2.315 -4.38,1.326 -4.38,0.101 c 0,-1.252 0.201,-2.263 0.606,-3.031 0.403,-0.767 0.932,-1.151 1.584,-1.151 0.652,0 1.18,0.374 1.584,1.121 C -0.202,-2.212 0,-1.226 0,0 m 2.103,0.04 c 0,-1.521 -0.407,-2.777 -1.219,-3.768 -0.813,-0.989 -1.838,-1.484 -3.074,-1.484 -1.266,0 -2.298,0.491 -3.096,1.475 -0.798,0.982 -1.197,2.256 -1.197,3.817 0,1.576 0.396,2.845 1.19,3.808 0.793,0.963 1.837,1.444 3.132,1.444 1.226,0 2.244,-0.502 3.052,-1.505 C 1.699,2.824 2.103,1.562 2.103,0.04"
             inkscape:connector-curvature="0"
             id="path74"
             style="fill:#231f20;fill-opacity:1;fill-rule:nonzero;stroke:none" /></g><g
           transform="translate(7144.5996,7177.999)"
           id="g76"><path
             d="M 0,0 C 0,1.278 -0.202,2.299 -0.606,3.06 -1.01,3.82 -1.548,4.201 -2.22,4.201 -2.872,4.201 -3.395,3.824 -3.789,3.069 -4.184,2.315 -4.381,1.326 -4.381,0.101 c 0,-1.252 0.202,-2.263 0.606,-3.031 0.404,-0.767 0.932,-1.151 1.585,-1.151 0.652,0 1.18,0.374 1.584,1.121 C -0.202,-2.212 0,-1.226 0,0 m 2.103,0.04 c 0,-1.521 -0.407,-2.777 -1.219,-3.768 -0.813,-0.989 -1.838,-1.484 -3.074,-1.484 -1.266,0 -2.298,0.491 -3.096,1.475 -0.798,0.982 -1.197,2.256 -1.197,3.817 0,1.576 0.396,2.845 1.19,3.808 0.793,0.963 1.837,1.444 3.132,1.444 1.226,0 2.244,-0.502 3.052,-1.505 C 1.699,2.824 2.103,1.562 2.103,0.04"
             inkscape:connector-curvature="0"
             id="path78"
             style="fill:#231f20;fill-opacity:1;fill-rule:nonzero;stroke:none" /></g><g
           transform="translate(7155.5659,7180.2207)"
           id="g80"><path
             d="m 0,0 c 0,1.238 -0.564,1.858 -1.694,1.858 l -0.438,0 0,-3.696 c 0.068,-0.014 0.175,-0.02 0.321,-0.02 C -0.604,-1.858 0,-1.239 0,0 M 3.476,-7.156 C 2.862,-7.247 2.443,-7.292 2.22,-7.292 c -0.692,0 -1.241,0.222 -1.65,0.666 -0.331,0.364 -0.604,0.99 -0.818,1.879 -0.175,0.754 -0.392,1.263 -0.65,1.525 -0.258,0.263 -0.669,0.394 -1.234,0.394 l 0,-3.232 0.146,-0.162 0.789,-0.1 0,-0.869 -3.768,0 0,0.869 0.803,0.081 0.132,0.162 0,7.815 -0.132,0.162 -0.803,0.081 0,0.889 3.928,0 c 2.006,0 3.009,-0.862 3.009,-2.586 0,-1.346 -0.653,-2.201 -1.957,-2.564 0.447,-0.135 0.783,-0.364 1.007,-0.688 0.224,-0.323 0.448,-0.902 0.672,-1.737 0.185,-0.687 0.363,-1.121 0.533,-1.303 0.17,-0.181 0.499,-0.272 0.986,-0.272 l 0.263,-0.04 0,-0.834 z"
             inkscape:connector-curvature="0"
             id="path82"
             style="fill:#231f20;fill-opacity:1;fill-rule:nonzero;stroke:none" /></g><g
           transform="translate(7170.5771,7182.2197)"
           id="g84"><path
             d="m 0,0 -0.803,-0.101 -0.132,-0.161 0,-5.272 c 0,-1.373 -0.262,-2.38 -0.788,-3.02 -0.526,-0.639 -1.353,-0.96 -2.483,-0.96 -1.43,0 -2.409,0.466 -2.935,1.397 -0.311,0.554 -0.467,1.444 -0.467,2.673 l 0,5.202 -0.117,0.161 -0.817,0.081 0,0.869 3.767,0 0,-0.869 -0.818,-0.081 -0.116,-0.161 0,-5.265 c 0,-0.959 0.141,-1.644 0.423,-2.056 0.282,-0.412 0.754,-0.617 1.416,-0.617 0.633,0 1.086,0.216 1.359,0.648 0.272,0.431 0.408,1.154 0.408,2.167 l 0,5.123 -0.131,0.161 -0.832,0.081 0,0.869 L 0,0.869 0,0 z"
             inkscape:connector-curvature="0"
             id="path86"
             style="fill:#231f20;fill-opacity:1;fill-rule:nonzero;stroke:none" /></g><g
           transform="translate(7178.3169,7173.0293)"
           id="g88"><path
             d="m 0,0 -3.943,0 0,0.869 0.891,0.101 0.131,0.162 0,7.797 -0.131,0.161 -0.891,0.1 0,0.87 3.943,0 0,-0.87 -0.891,-0.081 -0.131,-0.162 0,-7.835 L -0.891,0.95 0,0.869 0,0 z"
             inkscape:connector-curvature="0"
             id="path90"
             style="fill:#231f20;fill-opacity:1;fill-rule:nonzero;stroke:none" /></g><g
           transform="translate(7189.1079,7180.3018)"
           id="g92"><path
             d="m 0,0 -1.11,0 -0.219,1.656 -0.117,0.121 -1.3,0 0,-7.918 0.146,-0.162 0.862,-0.1 0,-0.869 -3.928,0 0,0.869 0.876,0.081 0.146,0.162 0,7.937 -1.299,0 L -6.06,1.656 -6.265,0 l -1.11,0 0,2.787 L 0,2.787 0,0 z"
             inkscape:connector-curvature="0"
             id="path94"
             style="fill:#231f20;fill-opacity:1;fill-rule:nonzero;stroke:none" /></g><g
           transform="translate(7200.9067,7177.2109)"
           id="g96"><path
             d="m 0,0 -0.774,-0.102 -0.131,-0.121 0,-3.494 c -1.003,-0.444 -1.943,-0.666 -2.819,-0.666 -1.353,0 -2.446,0.481 -3.278,1.444 -0.832,0.962 -1.248,2.232 -1.248,3.807 0,1.576 0.421,2.838 1.265,3.787 0.844,0.95 1.963,1.425 3.358,1.425 0.829,0 1.736,-0.169 2.722,-0.505 l 0,-2.667 -1.143,0 -0.248,1.637 -0.147,0.222 c -0.293,0.121 -0.605,0.181 -0.937,0.181 -0.879,0 -1.572,-0.36 -2.079,-1.08 -0.508,-0.721 -0.762,-1.707 -0.762,-2.959 0,-1.293 0.261,-2.309 0.782,-3.051 0.52,-0.74 1.228,-1.11 2.124,-1.11 0.107,0 0.263,0.02 0.467,0.061 l 0.102,0.02 0,2.968 -0.146,0.122 -0.963,0.081 0,0.868 L 0,0.868 0,0 z"
             inkscape:connector-curvature="0"
             id="path98"
             style="fill:#231f20;fill-opacity:1;fill-rule:nonzero;stroke:none" /></g><g
           transform="translate(7208.8066,7177.5547)"
           id="g100"><path
             d="M 0,0 -0.935,3.13 -1.84,0 0,0 z m 3.781,-4.525 -3.592,0 0,0.869 0.818,0.1 0.058,0.162 -0.729,2.383 -2.468,0 -0.716,-2.401 0.088,-0.163 0.818,-0.081 0,-0.869 -2.921,0 0,0.869 0.774,0.121 2.789,9.19 1.489,0 2.848,-9.17 0.744,-0.141 0,-0.869 z"
             inkscape:connector-curvature="0"
             id="path102"
             style="fill:#231f20;fill-opacity:1;fill-rule:nonzero;stroke:none" /></g><g
           transform="translate(7224.3867,7182.2197)"
           id="g104"><path
             d="m 0,0 -0.759,-0.101 -0.176,-0.202 0,-8.887 -1.595,0 -4.055,7.514 0,-6.322 0.146,-0.223 0.818,-0.1 0,-0.869 -3.038,0 0,0.869 0.774,0.081 0.16,0.223 0,7.774 -0.116,0.162 -0.818,0.081 0,0.869 3.038,0 0,-0.465 3.548,-6.504 0,5.817 -0.16,0.202 -0.804,0.081 0,0.869 L 0,0.869 0,0 z"
             inkscape:connector-curvature="0"
             id="path106"
             style="fill:#231f20;fill-opacity:1;fill-rule:nonzero;stroke:none" /></g><g
           transform="translate(7236.5215,7177.2109)"
           id="g108"><path
             d="m 0,0 -0.773,-0.102 -0.132,-0.121 0,-3.494 c -1.003,-0.444 -1.943,-0.666 -2.819,-0.666 -1.352,0 -2.445,0.481 -3.278,1.444 -0.832,0.962 -1.248,2.232 -1.248,3.807 0,1.576 0.422,2.838 1.266,3.787 0.843,0.95 1.963,1.425 3.357,1.425 0.829,0 1.736,-0.169 2.722,-0.505 l 0,-2.667 -1.142,0 -0.249,1.637 -0.146,0.222 c -0.293,0.121 -0.606,0.181 -0.938,0.181 -0.879,0 -1.571,-0.36 -2.079,-1.08 -0.508,-0.721 -0.762,-1.707 -0.762,-2.959 0,-1.293 0.261,-2.309 0.782,-3.051 0.52,-0.74 1.229,-1.11 2.125,-1.11 0.107,0 0.262,0.02 0.466,0.061 l 0.103,0.02 0,2.968 -0.146,0.122 -0.963,0.081 0,0.868 L 0,0.868 0,0 z"
             inkscape:connector-curvature="0"
             id="path110"
             style="fill:#231f20;fill-opacity:1;fill-rule:nonzero;stroke:none" /></g><g
           transform="translate(7163.7871,7156.4863)"
           id="g112"><path
             d="m 0,0 c 0,-0.915 -0.312,-1.659 -0.935,-2.231 -0.623,-0.573 -1.436,-0.859 -2.438,-0.859 -0.828,0 -1.67,0.182 -2.526,0.545 l 0,2.808 1.197,0 0.219,-1.859 0.117,-0.161 c 0.331,-0.135 0.657,-0.202 0.978,-0.202 0.973,0 1.461,0.444 1.461,1.333 0,0.391 -0.1,0.718 -0.3,0.98 -0.199,0.262 -0.572,0.562 -1.117,0.899 -0.915,0.565 -1.538,1.063 -1.869,1.494 -0.331,0.432 -0.496,0.963 -0.496,1.596 0,0.902 0.279,1.633 0.839,2.192 0.56,0.559 1.292,0.838 2.198,0.838 0.778,0 1.591,-0.182 2.439,-0.545 l 0,-2.525 -1.14,0 -0.233,1.595 -0.117,0.182 c -0.234,0.108 -0.497,0.162 -0.789,0.162 -0.895,0 -1.343,-0.437 -1.343,-1.313 0,-0.485 0.199,-0.908 0.599,-1.273 C -3.052,3.468 -2.57,3.165 -1.811,2.747 -0.604,2.088 0,1.172 0,0"
             inkscape:connector-curvature="0"
             id="path114"
             style="fill:#231f20;fill-opacity:1;fill-rule:nonzero;stroke:none" /></g><g
           transform="translate(7174.8413,7160.8701)"
           id="g116"><path
             d="m 0,0 -1.11,0 -0.219,1.656 -0.117,0.121 -1.3,0 0,-7.918 0.146,-0.161 0.862,-0.101 0,-0.868 -3.928,0 0,0.868 0.876,0.081 0.146,0.162 0,7.937 -1.299,0 L -6.06,1.656 -6.265,0 l -1.11,0 0,2.787 L 0,2.787 0,0 z"
             inkscape:connector-curvature="0"
             id="path118"
             style="fill:#231f20;fill-opacity:1;fill-rule:nonzero;stroke:none" /></g><g
           transform="translate(7181.4707,7153.5986)"
           id="g120"><path
             d="m 0,0 -3.943,0 0,0.868 0.891,0.102 0.132,0.161 0,7.797 -0.132,0.161 -0.891,0.101 0,0.869 3.943,0 L 0,9.19 -0.891,9.109 -1.022,8.946 -1.022,1.112 -0.891,0.949 0,0.868 0,0 z"
             inkscape:connector-curvature="0"
             id="path122"
             style="fill:#231f20;fill-opacity:1;fill-rule:nonzero;stroke:none" /></g><g
           transform="translate(7189.4434,7160.5166)"
           id="g124"><path
             d="m 0,0 c 0,1.394 -0.531,2.091 -1.592,2.091 l -0.496,0 0,-4.323 c 0.097,-0.014 0.19,-0.02 0.277,-0.02 C -0.604,-2.252 0,-1.502 0,0 M 1.971,0.111 C 1.971,-0.953 1.682,-1.788 1.103,-2.394 0.523,-3 -0.282,-3.303 -1.314,-3.303 l -0.774,0 0,-2.487 0.131,-0.158 0.92,-0.102 0,-0.868 -3.884,0 0,0.868 0.789,0.081 0.146,0.183 0,7.796 -0.117,0.161 -0.876,0.081 0,0.889 3.46,0 c 2.327,0 3.49,-1.01 3.49,-3.03"
             inkscape:connector-curvature="0"
             id="path126"
             style="fill:#231f20;fill-opacity:1;fill-rule:nonzero;stroke:none" /></g><g
           transform="translate(7203.082,7153.5986)"
           id="g128"><path
             d="m 0,0 -3.782,0 0,0.868 0.818,0.102 0.131,0.162 0,3.554 -2.891,0 0,-3.573 0.146,-0.163 0.818,-0.082 0,-0.868 -3.797,0 0,0.868 0.788,0.081 0.146,0.162 0,7.817 -0.146,0.161 -0.788,0.101 0,0.869 3.797,0 0,-0.869 -0.818,-0.082 -0.146,-0.162 0,-3.21 2.891,0 0,3.21 -0.131,0.162 -0.818,0.082 0,0.869 3.782,0 L 0,9.19 -0.788,9.109 -0.935,8.946 -0.935,1.112 -0.788,0.949 0,0.868 0,0 z"
             inkscape:connector-curvature="0"
             id="path130"
             style="fill:#231f20;fill-opacity:1;fill-rule:nonzero;stroke:none" /></g><g
           transform="translate(7212.7344,7158.5674)"
           id="g132"><path
             d="M 0,0 C 0,1.279 -0.202,2.299 -0.606,3.061 -1.01,3.82 -1.548,4.201 -2.22,4.201 -2.872,4.201 -3.396,3.824 -3.789,3.07 -4.184,2.315 -4.381,1.326 -4.381,0.101 c 0,-1.252 0.202,-2.262 0.607,-3.03 0.403,-0.767 0.931,-1.151 1.584,-1.151 0.652,0 1.18,0.373 1.584,1.121 C -0.202,-2.212 0,-1.226 0,0 m 2.103,0.04 c 0,-1.521 -0.407,-2.777 -1.219,-3.767 -0.814,-0.99 -1.838,-1.485 -3.074,-1.485 -1.266,0 -2.298,0.492 -3.096,1.475 -0.799,0.983 -1.197,2.256 -1.197,3.818 0,1.575 0.396,2.845 1.189,3.808 0.794,0.962 1.838,1.443 3.133,1.443 1.226,0 2.243,-0.501 3.052,-1.505 C 1.698,2.824 2.103,1.562 2.103,0.04"
             inkscape:connector-curvature="0"
             id="path134"
             style="fill:#231f20;fill-opacity:1;fill-rule:nonzero;stroke:none" /></g><g
           transform="translate(7226.6064,7162.7891)"
           id="g136"><path
             d="m 0,0 -0.803,-0.102 -0.132,-0.161 0,-5.272 c 0,-1.373 -0.262,-2.38 -0.788,-3.02 -0.526,-0.639 -1.353,-0.959 -2.482,-0.959 -1.432,0 -2.41,0.465 -2.936,1.397 -0.311,0.553 -0.466,1.443 -0.466,2.672 l 0,5.202 -0.118,0.162 -0.817,0.081 0,0.868 3.767,0 0,-0.868 -0.818,-0.081 -0.117,-0.162 0,-5.265 c 0,-0.959 0.142,-1.643 0.424,-2.055 0.282,-0.412 0.755,-0.618 1.417,-0.618 0.632,0 1.085,0.216 1.357,0.648 0.273,0.432 0.409,1.154 0.409,2.167 l 0,5.123 -0.131,0.162 -0.832,0.081 0,0.868 L 0,0.868 0,0 z"
             inkscape:connector-curvature="0"
             id="path138"
             style="fill:#231f20;fill-opacity:1;fill-rule:nonzero;stroke:none" /></g><g
           transform="translate(7236.7549,7160.8701)"
           id="g140"><path
             d="m 0,0 -1.109,0 -0.219,1.656 -0.117,0.121 -1.3,0 0,-7.918 0.146,-0.161 0.862,-0.101 0,-0.868 -3.928,0 0,0.868 0.876,0.081 0.145,0.162 0,7.937 -1.298,0 L -6.06,1.656 -6.264,0 l -1.11,0 0,2.787 L 0,2.787 0,0 z"
             inkscape:connector-curvature="0"
             id="path142"
             style="fill:#231f20;fill-opacity:1;fill-rule:nonzero;stroke:none" /></g><g
           transform="translate(7297.5527,7178.3203)"
           id="g144"><path
             d="M 0,0 -0.316,2.35"
             inkscape:connector-curvature="0"
             id="path146"
             style="fill:#ffdd00;fill-opacity:1;fill-rule:nonzero;stroke:#231f20;stroke-width:0.75;stroke-linecap:butt;stroke-linejoin:miter;stroke-miterlimit:4;stroke-opacity:1;stroke-dasharray:none" /></g><g
           transform="translate(7294.9355,7185.8008)"
           id="g148"><path
             d="M 0,0 -0.045,0.959"
             inkscape:connector-curvature="0"
             id="path150"
             style="fill:#ffdd00;fill-opacity:1;fill-rule:nonzero;stroke:#231f20;stroke-width:0.75;stroke-linecap:butt;stroke-linejoin:miter;stroke-miterlimit:4;stroke-opacity:1;stroke-dasharray:none" /></g><g
           transform="translate(7300.5293,7161.6318)"
           id="g152"><path
             d="M 0,0 -0.271,0.721"
             inkscape:connector-curvature="0"
             id="path154"
             style="fill:#ffdd00;fill-opacity:1;fill-rule:nonzero;stroke:#231f20;stroke-width:0.75;stroke-linecap:butt;stroke-linejoin:miter;stroke-miterlimit:4;stroke-opacity:1;stroke-dasharray:none" /></g><g
           transform="translate(7286.9531,7163.3594)"
           id="g156"><path
             d="M 0,0 0,0.672"
             inkscape:connector-curvature="0"
             id="path158"
             style="fill:#ffdd00;fill-opacity:1;fill-rule:nonzero;stroke:#231f20;stroke-width:0.75;stroke-linecap:butt;stroke-linejoin:miter;stroke-miterlimit:4;stroke-opacity:1;stroke-dasharray:none" /></g><g
           transform="translate(7286.3672,7179.8555)"
           id="g160"><path
             d="M 0,0 0.633,0.238"
             inkscape:connector-curvature="0"
             id="path162"
             style="fill:#ffdd00;fill-opacity:1;fill-rule:nonzero;stroke:#231f20;stroke-width:0.75;stroke-linecap:butt;stroke-linejoin:miter;stroke-miterlimit:4;stroke-opacity:1;stroke-dasharray:none" /></g><g
           transform="translate(7306.752,7172.2305)"
           id="g164"><path
             d="M 0,0 -0.813,-1.822"
             inkscape:connector-curvature="0"
             id="path166"
             style="fill:#ffdd00;fill-opacity:1;fill-rule:nonzero;stroke:#231f20;stroke-width:0.75;stroke-linecap:butt;stroke-linejoin:miter;stroke-miterlimit:4;stroke-opacity:1;stroke-dasharray:none" /></g><g
           transform="translate(7287.2246,7193.2324)"
           id="g168"><path
             d="M 0,0 0.631,0.721"
             inkscape:connector-curvature="0"
             id="path170"
             style="fill:#ffdd00;fill-opacity:1;fill-rule:nonzero;stroke:#231f20;stroke-width:0.75;stroke-linecap:butt;stroke-linejoin:miter;stroke-miterlimit:4;stroke-opacity:1;stroke-dasharray:none" /></g><g
           transform="translate(7301.8359,7170.7441)"
           id="g172"><path
             d="M 0,0 -0.945,2.59"
             inkscape:connector-curvature="0"
             id="path174"
             style="fill:#ffdd00;fill-opacity:1;fill-rule:nonzero;stroke:#231f20;stroke-width:0.75;stroke-linecap:butt;stroke-linejoin:miter;stroke-miterlimit:4;stroke-opacity:1;stroke-dasharray:none" /></g><g
           transform="translate(7306.5254,7185.5605)"
           id="g176"><path
             d="M 0,0 -0.631,-0.67"
             inkscape:connector-curvature="0"
             id="path178"
             style="fill:#ffdd00;fill-opacity:1;fill-rule:nonzero;stroke:#231f20;stroke-width:0.75;stroke-linecap:butt;stroke-linejoin:miter;stroke-miterlimit:4;stroke-opacity:1;stroke-dasharray:none" /></g><g
           transform="translate(7257.2188,7226.4932)"
           id="g180"><path
             d="M 0,0 -0.316,2.349"
             inkscape:connector-curvature="0"
             id="path182"
             style="fill:#ffdd00;fill-opacity:1;fill-rule:nonzero;stroke:#231f20;stroke-width:0.75;stroke-linecap:butt;stroke-linejoin:miter;stroke-miterlimit:4;stroke-opacity:1;stroke-dasharray:none" /></g><g
           transform="translate(7254.6035,7233.9736)"
           id="g184"><path
             d="M 0,0 -0.045,0.959"
             inkscape:connector-curvature="0"
             id="path186"
             style="fill:#ffdd00;fill-opacity:1;fill-rule:nonzero;stroke:#231f20;stroke-width:0.75;stroke-linecap:butt;stroke-linejoin:miter;stroke-miterlimit:4;stroke-opacity:1;stroke-dasharray:none" /></g><g
           transform="translate(7260.1953,7209.8052)"
           id="g188"><path
             d="M 0,0 -0.271,0.72"
             inkscape:connector-curvature="0"
             id="path190"
             style="fill:#ffdd00;fill-opacity:1;fill-rule:nonzero;stroke:#231f20;stroke-width:0.75;stroke-linecap:butt;stroke-linejoin:miter;stroke-miterlimit:4;stroke-opacity:1;stroke-dasharray:none" /></g><g
           transform="translate(7246.6211,7211.5322)"
           id="g192"><path
             d="M 0,0 0,0.671"
             inkscape:connector-curvature="0"
             id="path194"
             style="fill:#ffdd00;fill-opacity:1;fill-rule:nonzero;stroke:#231f20;stroke-width:0.75;stroke-linecap:butt;stroke-linejoin:miter;stroke-miterlimit:4;stroke-opacity:1;stroke-dasharray:none" /></g><g
           transform="translate(7246.0332,7228.0273)"
           id="g196"><path
             d="M 0,0 0.633,0.24"
             inkscape:connector-curvature="0"
             id="path198"
             style="fill:#ffdd00;fill-opacity:1;fill-rule:nonzero;stroke:#231f20;stroke-width:0.75;stroke-linecap:butt;stroke-linejoin:miter;stroke-miterlimit:4;stroke-opacity:1;stroke-dasharray:none" /></g><g
           transform="translate(7266.418,7220.4028)"
           id="g200"><path
             d="M 0,0 -0.813,-1.822"
             inkscape:connector-curvature="0"
             id="path202"
             style="fill:#ffdd00;fill-opacity:1;fill-rule:nonzero;stroke:#231f20;stroke-width:0.75;stroke-linecap:butt;stroke-linejoin:miter;stroke-miterlimit:4;stroke-opacity:1;stroke-dasharray:none" /></g><g
           transform="translate(7246.8906,7241.4058)"
           id="g204"><path
             d="M 0,0 0.631,0.719"
             inkscape:connector-curvature="0"
             id="path206"
             style="fill:#ffdd00;fill-opacity:1;fill-rule:nonzero;stroke:#231f20;stroke-width:0.75;stroke-linecap:butt;stroke-linejoin:miter;stroke-miterlimit:4;stroke-opacity:1;stroke-dasharray:none" /></g><g
           transform="translate(7261.502,7218.916)"
           id="g208"><path
             d="M 0,0 -0.945,2.59"
             inkscape:connector-curvature="0"
             id="path210"
             style="fill:#ffdd00;fill-opacity:1;fill-rule:nonzero;stroke:#231f20;stroke-width:0.75;stroke-linecap:butt;stroke-linejoin:miter;stroke-miterlimit:4;stroke-opacity:1;stroke-dasharray:none" /></g><g
           transform="translate(7266.1914,7233.7339)"
           id="g212"><path
             d="M 0,0 -0.629,-0.671"
             inkscape:connector-curvature="0"
             id="path214"
             style="fill:#ffdd00;fill-opacity:1;fill-rule:nonzero;stroke:#231f20;stroke-width:0.75;stroke-linecap:butt;stroke-linejoin:miter;stroke-miterlimit:4;stroke-opacity:1;stroke-dasharray:none" /></g><g
           transform="translate(7287.1191,7242.2021)"
           id="g216"><path
             d="m 0,0 -1.297,1.825 c 0,0 5.078,1.08 3.504,-4.022 l 5.813,-4.507 0.07,-1.043 -0.07,1.192 0.351,1.229 c 0,0 2.451,-1.229 2.592,1.341 0,0 0.279,2.197 -2.067,1.9 0,0 -0.49,0.409 -0.246,2.272 0,0 0.807,-0.224 2.733,0.893 0,0 10.683,-1.452 1.576,-13.146 0,0 7.352,-9.583 7.309,-9.584 -0.043,-0.002 -0.748,-2.011 -0.748,-2.011 l 0.759,2.051 c 0,0 -0.642,9.643 -2.277,13.268 0,0 -0.701,3.129 4.111,8.541 0,0 4.787,-0.534 -2.674,-8.914 l 0.586,0.654 2.741,-5.347 -0.35,-7.969 -0.666,-3.315 c 0,0 -0.98,-1.75 -0.84,-4.246 l -6.515,-4.916 -0.981,1.676 0.387,-0.673 -1.858,-1.301 c 0,0 -1.05,3.091 4.553,5.847 l -1.33,5.029 -0.945,2.495 0.937,-2.495 0.045,-0.164 -2.875,-0.079 -5.066,-6.126 -4.063,-2.632 -3.457,0 0,1.887 -0.006,-0.66 -2.381,0.008 c 0,0 2.075,2.561 5.139,2.132 l 2.969,4.628 -0.42,1.936 6.936,5.14 -1.262,1.713 -0.24,2.31 0.228,-2.31 -10.17,-3.377 c 0,0 -1.541,2.161 -2.31,4.594 l 1.587,0.497 -0.63,-0.181 -1.02,1.925 c 0,0 4.172,-0.305 2.981,-3.532 0,0 3.41,0.497 6.304,4.171 0,0 -3.058,-0.993 -5.183,1.614 l 2.218,1.328 -5.183,7.449 1.365,1.601"
             inkscape:connector-curvature="0"
             id="path218"
             style="fill:#d1232a;fill-opacity:1;fill-rule:nonzero;stroke:#231f20;stroke-width:0.5;stroke-linecap:butt;stroke-linejoin:miter;stroke-miterlimit:4;stroke-opacity:1;stroke-dasharray:none" /></g><g
           transform="translate(7297.7891,7239.4214)"
           id="g220"><path
             d="m 0,0 c 0,0 -2.754,-1.688 -3.502,0.348 0,0 -0.42,0.248 -0.328,-0.646 0,0 0.607,-1.837 3.971,-0.645 0,0 0.279,0.099 -0.141,0.943"
             inkscape:connector-curvature="0"
             id="path222"
             style="fill:#ffdd00;fill-opacity:1;fill-rule:nonzero;stroke:none" /></g><g
           transform="translate(7297.7891,7239.4214)"
           id="g224"><path
             d="m 0,0 c 0,0 -2.754,-1.688 -3.502,0.348 0,0 -0.42,0.248 -0.328,-0.646 0,0 0.607,-1.837 3.971,-0.645 0,0 0.279,0.099 -0.141,0.943 z"
             inkscape:connector-curvature="0"
             id="path226"
             style="fill:none;stroke:#231f20;stroke-width:0.25;stroke-linecap:butt;stroke-linejoin:miter;stroke-miterlimit:4;stroke-opacity:1;stroke-dasharray:none" /></g><g
           transform="translate(7309.3984,7242.2739)"
           id="g228"><path
             d="M 0,0 C 0,0 0.15,-2.16 -1.98,-4.248"
             inkscape:connector-curvature="0"
             id="path230"
             style="fill:none;stroke:#231f20;stroke-width:0.5;stroke-linecap:butt;stroke-linejoin:miter;stroke-miterlimit:4;stroke-opacity:1;stroke-dasharray:none" /></g><g
           transform="translate(7298.584,7243.3354)"
           id="g232"><path
             d="m 0,0 1.814,1.877 c 0,0 1.149,0.637 0.299,-1.54 0,0 -0.215,-0.531 0.401,0.389 0,0 1.847,2 0.832,-0.62 0,0 -0.332,-1.398 0.566,-0.141 l 0.649,0.832 c 0,0 0.949,0.319 0.533,-0.832 0,0 -0.367,-0.921 -0.266,-3.31 0,0 -0.849,2.478 -4.828,3.345"
             inkscape:connector-curvature="0"
             id="path234"
             style="fill:#ffdd00;fill-opacity:1;fill-rule:nonzero;stroke:none" /></g><g
           transform="translate(7298.584,7243.3354)"
           id="g236"><path
             d="m 0,0 1.814,1.877 c 0,0 1.149,0.637 0.299,-1.54 0,0 -0.215,-0.531 0.401,0.389 0,0 1.847,2 0.832,-0.62 0,0 -0.332,-1.398 0.566,-0.141 l 0.649,0.832 c 0,0 0.949,0.319 0.533,-0.832 0,0 -0.367,-0.921 -0.266,-3.31 0,0 -0.849,2.478 -4.828,3.345 z"
             inkscape:connector-curvature="0"
             id="path238"
             style="fill:none;stroke:#231f20;stroke-width:0.5;stroke-linecap:butt;stroke-linejoin:miter;stroke-miterlimit:4;stroke-opacity:1;stroke-dasharray:none" /></g><g
           transform="translate(7303.5332,7239.583)"
           id="g240"><path
             d="M 0,0 C 0,0 -0.232,1.13 -2.369,1.452"
             inkscape:connector-curvature="0"
             id="path242"
             style="fill:none;stroke:#231f20;stroke-width:0.5;stroke-linecap:butt;stroke-linejoin:miter;stroke-miterlimit:4;stroke-opacity:1;stroke-dasharray:none" /></g><g
           transform="translate(7303.2949,7235.6602)"
           id="g244"><path
             d="M 0,0 C 0,0 0.109,1.407 -1.803,1.673"
             inkscape:connector-curvature="0"
             id="path246"
             style="fill:none;stroke:#231f20;stroke-width:0.5;stroke-linecap:butt;stroke-linejoin:miter;stroke-miterlimit:4;stroke-opacity:1;stroke-dasharray:none" /></g><g
           transform="translate(7303.6875,7237.3853)"
           id="g248"><path
             d="M 0,0 C 0,0 -0.422,1.912 -2.209,2.049"
             inkscape:connector-curvature="0"
             id="path250"
             style="fill:none;stroke:#231f20;stroke-width:0.5;stroke-linecap:butt;stroke-linejoin:miter;stroke-miterlimit:4;stroke-opacity:1;stroke-dasharray:none" /></g><g
           transform="translate(7289.4902,7232.4136)"
           id="g252"><path
             d="M 0,0 C 0,0 2.314,-1.087 4.092,0.066"
             inkscape:connector-curvature="0"
             id="path254"
             style="fill:none;stroke:#231f20;stroke-width:0.5;stroke-linecap:butt;stroke-linejoin:miter;stroke-miterlimit:4;stroke-opacity:1;stroke-dasharray:none" /></g><g
           transform="translate(7246.5449,7193.6797)"
           id="g256"><path
             d="m 0,0 -1.297,1.824 c 0,0 5.078,1.08 3.502,-4.021 l 5.815,-4.508 0.07,-1.043 -0.07,1.193 0.351,1.229 c 0,0 2.451,-1.229 2.592,1.34 0,0 0.279,2.197 -2.067,1.9 0,0 -0.49,0.41 -0.246,2.272 0,0 0.805,-0.223 2.733,0.894 0,0 10.683,-1.453 1.576,-13.146 0,0 7.352,-9.584 7.309,-9.584 -0.043,-0.002 -0.748,-2.012 -0.748,-2.012 l 0.759,2.051 c 0,0 -0.642,9.642 -2.277,13.267 0,0 -0.701,3.129 4.111,8.541 0,0 4.787,-0.533 -2.674,-8.912 l 0.586,0.654 2.741,-5.347 -0.35,-7.971 -0.666,-3.314 c 0,0 -0.98,-1.75 -0.84,-4.245 l -6.515,-4.916 -0.981,1.675 0.387,-0.674 -1.858,-1.3 c 0,0 -1.05,3.091 4.553,5.848 l -1.33,5.028 -0.945,2.496 0.937,-2.496 0.045,-0.164 -2.875,-0.079 -5.066,-6.126 -4.063,-2.632 -3.457,0 0,1.887 -0.006,-0.661 -2.381,0.008 c 0,0 2.075,2.562 5.139,2.134 l 2.969,4.627 -0.42,1.937 6.936,5.139 -1.262,1.713 -0.24,2.31 0.228,-2.31 -10.17,-3.377 c 0,0 -1.541,2.16 -2.31,4.594 l 1.587,0.496 -0.63,-0.18 -1.022,1.924 c 0,0 4.174,-0.303 2.983,-3.531 0,0 3.41,0.496 6.304,4.172 0,0 -3.058,-0.995 -5.183,1.613 l 2.218,1.328 -5.183,7.449 1.365,1.602"
             inkscape:connector-curvature="0"
             id="path258"
             style="fill:#d1232a;fill-opacity:1;fill-rule:nonzero;stroke:#231f20;stroke-width:0.5;stroke-linecap:butt;stroke-linejoin:miter;stroke-miterlimit:4;stroke-opacity:1;stroke-dasharray:none" /></g><g
           transform="translate(7257.2148,7190.8984)"
           id="g260"><path
             d="m 0,0 c 0,0 -2.756,-1.688 -3.502,0.348 0,0 -0.42,0.248 -0.328,-0.647 0,0 0.607,-1.836 3.971,-0.644 0,0 0.279,0.099 -0.141,0.943"
             inkscape:connector-curvature="0"
             id="path262"
             style="fill:#ffdd00;fill-opacity:1;fill-rule:nonzero;stroke:none" /></g><g
           transform="translate(7257.2148,7190.8984)"
           id="g264"><path
             d="m 0,0 c 0,0 -2.756,-1.688 -3.502,0.348 0,0 -0.42,0.248 -0.328,-0.647 0,0 0.607,-1.836 3.971,-0.644 0,0 0.279,0.099 -0.141,0.943 z"
             inkscape:connector-curvature="0"
             id="path266"
             style="fill:none;stroke:#231f20;stroke-width:0.25;stroke-linecap:butt;stroke-linejoin:miter;stroke-miterlimit:4;stroke-opacity:1;stroke-dasharray:none" /></g><g
           transform="translate(7268.8242,7193.75)"
           id="g268"><path
             d="M 0,0 C 0,0 0.15,-2.16 -1.98,-4.248"
             inkscape:connector-curvature="0"
             id="path270"
             style="fill:none;stroke:#231f20;stroke-width:0.5;stroke-linecap:butt;stroke-linejoin:miter;stroke-miterlimit:4;stroke-opacity:1;stroke-dasharray:none" /></g><g
           transform="translate(7258.0078,7194.8125)"
           id="g272"><path
             d="m 0,0 1.816,1.877 c 0,0 1.149,0.637 0.299,-1.541 0,0 -0.217,-0.531 0.401,0.391 0,0 1.847,2 0.832,-0.622 0,0 -0.334,-1.398 0.566,-0.14 l 0.649,0.832 c 0,0 0.949,0.318 0.533,-0.832 0,0 -0.367,-0.92 -0.266,-3.311 0,0 -0.85,2.479 -4.83,3.346"
             inkscape:connector-curvature="0"
             id="path274"
             style="fill:#ffdd00;fill-opacity:1;fill-rule:nonzero;stroke:none" /></g><g
           transform="translate(7258.0078,7194.8125)"
           id="g276"><path
             d="m 0,0 1.816,1.877 c 0,0 1.149,0.637 0.299,-1.541 0,0 -0.217,-0.531 0.401,0.391 0,0 1.847,2 0.832,-0.622 0,0 -0.334,-1.398 0.566,-0.14 l 0.649,0.832 c 0,0 0.949,0.318 0.533,-0.832 0,0 -0.367,-0.92 -0.266,-3.311 0,0 -0.85,2.479 -4.83,3.346 z"
             inkscape:connector-curvature="0"
             id="path278"
             style="fill:none;stroke:#231f20;stroke-width:0.5;stroke-linecap:butt;stroke-linejoin:miter;stroke-miterlimit:4;stroke-opacity:1;stroke-dasharray:none" /></g><g
           transform="translate(7262.959,7191.0605)"
           id="g280"><path
             d="M 0,0 C 0,0 -0.232,1.129 -2.369,1.451"
             inkscape:connector-curvature="0"
             id="path282"
             style="fill:none;stroke:#231f20;stroke-width:0.5;stroke-linecap:butt;stroke-linejoin:miter;stroke-miterlimit:4;stroke-opacity:1;stroke-dasharray:none" /></g><g
           transform="translate(7262.7207,7187.1367)"
           id="g284"><path
             d="M 0,0 C 0,0 0.109,1.406 -1.803,1.672"
             inkscape:connector-curvature="0"
             id="path286"
             style="fill:none;stroke:#231f20;stroke-width:0.5;stroke-linecap:butt;stroke-linejoin:miter;stroke-miterlimit:4;stroke-opacity:1;stroke-dasharray:none" /></g><g
           transform="translate(7263.1113,7188.8613)"
           id="g288"><path
             d="M 0,0 C 0,0 -0.42,1.912 -2.207,2.049"
             inkscape:connector-curvature="0"
             id="path290"
             style="fill:none;stroke:#231f20;stroke-width:0.5;stroke-linecap:butt;stroke-linejoin:miter;stroke-miterlimit:4;stroke-opacity:1;stroke-dasharray:none" /></g><g
           transform="translate(7248.916,7183.8906)"
           id="g292"><path
             d="M 0,0 C 0,0 2.314,-1.088 4.092,0.066"
             inkscape:connector-curvature="0"
             id="path294"
             style="fill:none;stroke:#231f20;stroke-width:0.5;stroke-linecap:butt;stroke-linejoin:miter;stroke-miterlimit:4;stroke-opacity:1;stroke-dasharray:none" /></g><g
           transform="translate(7291.541,7184.5879)"
           id="g296"><path
             d="M 0,0 -4.863,7.004 -3.559,8.578 -4.113,7.92 -5.389,9.678 c 0,0 4.743,0.863 3.266,-3.701 L 3.404,1.551 3.414,0.619 3.4,1.572 3.668,2.984 c 0,0 2.277,-1.08 2.498,1.129 0,0 0.266,2.326 -1.945,1.928 0,0 -0.399,0.234 -0.198,2.068 0,0 1.832,0.141 4.62,2.069 0,0 1.236,-0.401 0.662,-1.951 0,0 5.793,-3.104 -1.194,-11.706 l 6.924,-9.177 -0.812,-1.799 0.816,1.81 0.02,0.04 -0.041,0.494 c 0,0 -0.59,5.679 -1.307,9.232 -0.49,1.654 -0.963,2.881 -0.955,3.059 0.045,0.99 0.461,4.508 4.021,8.093 0,0 4.42,-0.798 -2.652,-8.554 l 0.6,0.662 2.627,-5.082 -0.311,-7.332 -0.662,-3.197 c 0,0 -1.193,-3.196 -0.797,-4.231 l -6.166,-4.583 -0.885,1.621 0.352,-0.666 -1.779,-1.176 c 0,0 -1.104,2.689 4.267,5.509 l -1.258,4.725 -0.863,2.361 0.84,-2.346 0.025,-0.086 -2.656,-0.152 -4.74,-5.865 -3.846,-2.491 -3.316,0.047 0,1.833 -0.006,-0.661 -2.151,0.008 c 0,0 1.377,2.258 4.709,2.047 l 2.852,4.424 -0.398,1.797 6.576,4.748 -1.194,1.693 -0.308,2.256 0.283,-2.252 -9.635,-3.201 c 0,0 -1.791,2.926 -2.021,4.441 l 1.343,0.459 -0.591,-0.197 -0.94,1.76 c 0,0 4,-0.375 2.807,-3.336 0,0 3.803,0.892 5.902,3.947 0,0 -3.162,-0.822 -4.797,1.527 L 0,0 z"
             inkscape:connector-curvature="0"
             id="path298"
             style="fill:#ffdd00;fill-opacity:1;fill-rule:nonzero;stroke:none" /></g><g
           transform="translate(7291.541,7184.5879)"
           id="g300"><path
             d="M 0,0 -4.863,7.004 -3.559,8.578 -4.113,7.92 -5.389,9.678 c 0,0 4.743,0.863 3.266,-3.701 L 3.404,1.551 3.414,0.619 3.4,1.572 3.668,2.984 c 0,0 2.277,-1.08 2.498,1.129 0,0 0.266,2.326 -1.945,1.928 0,0 -0.399,0.234 -0.198,2.068 0,0 1.832,0.141 4.62,2.069 0,0 1.236,-0.401 0.662,-1.951 0,0 5.793,-3.104 -1.194,-11.706 l 6.924,-9.177 -0.812,-1.799 0.816,1.81 0.02,0.04 -0.041,0.494 c 0,0 -0.59,5.679 -1.307,9.232 -0.49,1.654 -0.963,2.881 -0.955,3.059 0.045,0.99 0.461,4.508 4.021,8.093 0,0 4.42,-0.798 -2.652,-8.554 l 0.6,0.662 2.627,-5.082 -0.311,-7.332 -0.662,-3.197 c 0,0 -1.193,-3.196 -0.797,-4.231 l -6.166,-4.583 -0.885,1.621 0.352,-0.666 -1.779,-1.176 c 0,0 -1.104,2.689 4.267,5.509 l -1.258,4.725 -0.863,2.361 0.84,-2.346 0.025,-0.086 -2.656,-0.152 -4.74,-5.865 -3.846,-2.491 -3.316,0.047 0,1.833 -0.006,-0.661 -2.151,0.008 c 0,0 1.377,2.258 4.709,2.047 l 2.852,4.424 -0.398,1.797 6.576,4.748 -1.194,1.693 -0.308,2.256 0.283,-2.252 -9.635,-3.201 c 0,0 -1.791,2.926 -2.021,4.441 l 1.343,0.459 -0.591,-0.197 -0.94,1.76 c 0,0 4,-0.375 2.807,-3.336 0,0 3.803,0.892 5.902,3.947 0,0 -3.162,-0.822 -4.797,1.527 L 0,0 z"
             inkscape:connector-curvature="0"
             id="path302"
             style="fill:none;stroke:#231f20;stroke-width:0.5;stroke-linecap:butt;stroke-linejoin:miter;stroke-miterlimit:4;stroke-opacity:1;stroke-dasharray:none" /></g><g
           transform="translate(7308.5156,7192.75)"
           id="g304"><path
             d="M 0,0 C 0,0 0.465,-1.658 -1.824,-4.125"
             inkscape:connector-curvature="0"
             id="path306"
             style="fill:none;stroke:#231f20;stroke-width:0.5;stroke-linecap:butt;stroke-linejoin:miter;stroke-miterlimit:4;stroke-opacity:1;stroke-dasharray:none" /></g><g
           transform="translate(7289.6172,7183.3184)"
           id="g308"><path
             d="M 0,0 C 0,0 2.354,-1.021 3.781,0.07"
             inkscape:connector-curvature="0"
             id="path310"
             style="fill:none;stroke:#231f20;stroke-width:0.5;stroke-linecap:butt;stroke-linejoin:miter;stroke-miterlimit:4;stroke-opacity:1;stroke-dasharray:none" /></g><g
           transform="translate(7300.6016,7191.5293)"
           id="g312"><path
             d="M 0,0 C 0,0 1.961,-0.189 2.297,-1.49"
             inkscape:connector-curvature="0"
             id="path314"
             style="fill:none;stroke:#231f20;stroke-width:0.5;stroke-linecap:butt;stroke-linejoin:miter;stroke-miterlimit:4;stroke-opacity:1;stroke-dasharray:none" /></g><g
           transform="translate(7300.875,7189.9941)"
           id="g316"><path
             d="M 0,0 C 0,0 1.959,-0.111 2.139,-2.396"
             inkscape:connector-curvature="0"
             id="path318"
             style="fill:none;stroke:#231f20;stroke-width:0.5;stroke-linecap:butt;stroke-linejoin:miter;stroke-miterlimit:4;stroke-opacity:1;stroke-dasharray:none" /></g><g
           transform="translate(7300.9199,7187.9824)"
           id="g320"><path
             d="M 0,0 C 0,0 2.002,-0.1 1.645,-2.084"
             inkscape:connector-curvature="0"
             id="path322"
             style="fill:none;stroke:#231f20;stroke-width:0.5;stroke-linecap:butt;stroke-linejoin:miter;stroke-miterlimit:4;stroke-opacity:1;stroke-dasharray:none" /></g><g
           transform="translate(7297.3711,7189.9238)"
           id="g324"><path
             d="m 0,0 c 0,0 -2.387,-1.391 -3.141,0.172 0,0 -0.242,0.543 -0.439,-0.061 0,0 -0.127,-2.179 3.754,-0.949 0,0 0.068,0.432 -0.174,0.838"
             inkscape:connector-curvature="0"
             id="path326"
             style="fill:#d1232a;fill-opacity:1;fill-rule:nonzero;stroke:none" /></g><g
           transform="translate(7297.3711,7189.9238)"
           id="g328"><path
             d="m 0,0 c 0,0 -2.387,-1.391 -3.141,0.172 0,0 -0.242,0.543 -0.439,-0.061 0,0 -0.127,-2.179 3.754,-0.949 0,0 0.068,0.432 -0.174,0.838 z"
             inkscape:connector-curvature="0"
             id="path330"
             style="fill:none;stroke:#d1232a;stroke-width:0.25;stroke-linecap:butt;stroke-linejoin:miter;stroke-miterlimit:4;stroke-opacity:1;stroke-dasharray:none" /></g><g
           transform="translate(7251.5566,7233.3022)"
           id="g332"><path
             d="m 0,0 -4.863,7.004 1.304,1.575 -0.554,-0.66 -1.274,1.758 c 0,0 4.741,0.865 3.264,-3.701 L 3.404,1.551 3.414,0.619 3.4,1.572 3.668,2.985 c 0,0 2.279,-1.081 2.498,1.128 0,0 0.266,2.327 -1.945,1.928 0,0 -0.397,0.234 -0.198,2.068 0,0 1.834,0.141 4.62,2.068 0,0 1.236,-0.4 0.664,-1.95 0,0 5.791,-3.103 -1.196,-11.706 l 6.926,-9.177 -0.812,-1.798 0.814,1.808 0.02,0.041 -0.041,0.493 c 0,0 -0.59,5.68 -1.307,9.234 -0.49,1.654 -0.961,2.88 -0.955,3.058 0.047,0.989 0.461,4.508 4.021,8.093 0,0 4.42,-0.798 -2.652,-8.555 l 0.6,0.663 2.627,-5.082 -0.309,-7.333 -0.664,-3.196 c 0,0 -1.193,-3.196 -0.797,-4.23 l -6.166,-4.583 -0.883,1.621 0.35,-0.665 -1.779,-1.177 c 0,0 -1.102,2.688 4.269,5.509 l -1.26,4.724 -0.863,2.362 0.84,-2.346 0.025,-0.087 -2.656,-0.152 -4.74,-5.865 -3.846,-2.49 -3.316,0.046 0,1.833 -0.006,-0.66 -2.149,0.008 c 0,0 1.375,2.257 4.707,2.045 l 2.852,4.424 -0.398,1.798 6.576,4.748 -1.192,1.692 -0.31,2.257 0.283,-2.251 -9.633,-3.203 c 0,0 -1.791,2.927 -2.023,4.443 l 1.343,0.458 -0.591,-0.196 -0.94,1.759 c 0,0 4.002,-0.376 2.807,-3.337 0,0 3.803,0.893 5.902,3.948 0,0 -3.16,-0.822 -4.797,1.528 L 0,0 z"
             inkscape:connector-curvature="0"
             id="path334"
             style="fill:#ffdd00;fill-opacity:1;fill-rule:nonzero;stroke:none" /></g><g
           transform="translate(7251.5566,7233.3022)"
           id="g336"><path
             d="m 0,0 -4.863,7.004 1.304,1.575 -0.554,-0.66 -1.274,1.758 c 0,0 4.741,0.865 3.264,-3.701 L 3.404,1.551 3.414,0.619 3.4,1.572 3.668,2.985 c 0,0 2.279,-1.081 2.498,1.128 0,0 0.266,2.327 -1.945,1.928 0,0 -0.397,0.234 -0.198,2.068 0,0 1.834,0.141 4.62,2.068 0,0 1.236,-0.4 0.664,-1.95 0,0 5.791,-3.103 -1.196,-11.706 l 6.926,-9.177 -0.812,-1.798 0.814,1.808 0.02,0.041 -0.041,0.493 c 0,0 -0.59,5.68 -1.307,9.234 -0.49,1.654 -0.961,2.88 -0.955,3.058 0.047,0.989 0.461,4.508 4.021,8.093 0,0 4.42,-0.798 -2.652,-8.555 l 0.6,0.663 2.627,-5.082 -0.309,-7.333 -0.664,-3.196 c 0,0 -1.193,-3.196 -0.797,-4.23 l -6.166,-4.583 -0.883,1.621 0.35,-0.665 -1.779,-1.177 c 0,0 -1.102,2.688 4.269,5.509 l -1.26,4.724 -0.863,2.362 0.84,-2.346 0.025,-0.087 -2.656,-0.152 -4.74,-5.865 -3.846,-2.49 -3.316,0.046 0,1.833 -0.006,-0.66 -2.149,0.008 c 0,0 1.375,2.257 4.707,2.045 l 2.852,4.424 -0.398,1.798 6.576,4.748 -1.192,1.692 -0.31,2.257 0.283,-2.251 -9.633,-3.203 c 0,0 -1.791,2.927 -2.023,4.443 l 1.343,0.458 -0.591,-0.196 -0.94,1.759 c 0,0 4.002,-0.376 2.807,-3.337 0,0 3.803,0.893 5.902,3.948 0,0 -3.16,-0.822 -4.797,1.528 L 0,0 z"
             inkscape:connector-curvature="0"
             id="path338"
             style="fill:none;stroke:#231f20;stroke-width:0.5;stroke-linecap:butt;stroke-linejoin:miter;stroke-miterlimit:4;stroke-opacity:1;stroke-dasharray:none" /></g><g
           transform="translate(7268.5332,7241.4644)"
           id="g340"><path
             d="M 0,0 C 0,0 0.463,-1.658 -1.824,-4.125"
             inkscape:connector-curvature="0"
             id="path342"
             style="fill:none;stroke:#231f20;stroke-width:0.5;stroke-linecap:butt;stroke-linejoin:miter;stroke-miterlimit:4;stroke-opacity:1;stroke-dasharray:none" /></g><g
           transform="translate(7249.6348,7232.0332)"
           id="g344"><path
             d="M 0,0 C 0,0 2.352,-1.022 3.779,0.071"
             inkscape:connector-curvature="0"
             id="path346"
             style="fill:none;stroke:#231f20;stroke-width:0.5;stroke-linecap:butt;stroke-linejoin:miter;stroke-miterlimit:4;stroke-opacity:1;stroke-dasharray:none" /></g><g
           transform="translate(7260.6172,7240.2437)"
           id="g348"><path
             d="M 0,0 C 0,0 1.961,-0.19 2.297,-1.49"
             inkscape:connector-curvature="0"
             id="path350"
             style="fill:none;stroke:#231f20;stroke-width:0.5;stroke-linecap:butt;stroke-linejoin:miter;stroke-miterlimit:4;stroke-opacity:1;stroke-dasharray:none" /></g><g
           transform="translate(7260.8906,7238.709)"
           id="g352"><path
             d="M 0,0 C 0,0 1.961,-0.112 2.141,-2.397"
             inkscape:connector-curvature="0"
             id="path354"
             style="fill:none;stroke:#231f20;stroke-width:0.5;stroke-linecap:butt;stroke-linejoin:miter;stroke-miterlimit:4;stroke-opacity:1;stroke-dasharray:none" /></g><g
           transform="translate(7260.9355,7236.6973)"
           id="g356"><path
             d="M 0,0 C 0,0 2.004,-0.101 1.645,-2.083"
             inkscape:connector-curvature="0"
             id="path358"
             style="fill:none;stroke:#231f20;stroke-width:0.5;stroke-linecap:butt;stroke-linejoin:miter;stroke-miterlimit:4;stroke-opacity:1;stroke-dasharray:none" /></g><g
           transform="translate(7257.3887,7238.6387)"
           id="g360"><path
             d="m 0,0 c 0,0 -2.389,-1.392 -3.143,0.172 0,0 -0.242,0.543 -0.439,-0.061 0,0 -0.127,-2.18 3.754,-0.949 0,0 0.07,0.431 -0.172,0.838"
             inkscape:connector-curvature="0"
             id="path362"
             style="fill:#d1232a;fill-opacity:1;fill-rule:nonzero;stroke:none" /></g><g
           transform="translate(7257.3887,7238.6387)"
           id="g364"><path
             d="m 0,0 c 0,0 -2.389,-1.392 -3.143,0.172 0,0 -0.242,0.543 -0.439,-0.061 0,0 -0.127,-2.18 3.754,-0.949 0,0 0.07,0.431 -0.172,0.838 z"
             inkscape:connector-curvature="0"
             id="path366"
             style="fill:none;stroke:#d1232a;stroke-width:0.25;stroke-linecap:butt;stroke-linejoin:miter;stroke-miterlimit:4;stroke-opacity:1;stroke-dasharray:none" /></g></g></g></g></svg>