<?xml version="1.0" encoding="UTF-8" standalone="no"?>
<!DOCTYPE svg PUBLIC "-//W3C//DTD SVG 1.1//EN" "http://www.w3.org/Graphics/SVG/1.1/DTD/svg11.dtd">
<svg width="100%" height="100%" viewBox="0 0 1000 416" version="1.1" xmlns="http://www.w3.org/2000/svg" xmlns:xlink="http://www.w3.org/1999/xlink" xml:space="preserve" xmlns:serif="http://www.serif.com/" style="fill-rule:evenodd;clip-rule:evenodd;stroke-miterlimit:2;">
    <g id="name---brandmark" serif:id="name + brandmark" transform="matrix(4.26422,0,0,4.26422,-1360.55,-1213.89)">
        <g id="Name">
            <g id="Fanfare">
                <path d="M400.104,335.626L398.995,335.626L398.805,334.111L398.703,333.99L396.556,333.99L396.556,337.524L397.987,337.524L398.089,337.384L398.221,336.232L399.185,336.232L399.185,339.827L398.221,339.827L398.089,338.676L397.973,338.535L396.556,338.535L396.556,341.908L396.702,342.069L397.607,342.171L397.607,343.039L393.738,343.039L393.738,342.171L394.526,342.09L394.658,341.928L394.658,334.111L394.526,333.95L393.68,333.869L393.68,332.98L400.104,332.98L400.104,335.626Z" style="fill:rgb(34,30,31);fill-rule:nonzero;"/>
                <path d="M408.282,338.515L407.347,335.384L406.442,338.515L408.282,338.515ZM412.064,343.039L408.472,343.039L408.472,342.171L409.29,342.069L409.348,341.908L408.618,339.524L406.15,339.524L405.435,341.926L405.522,342.089L406.34,342.171L406.34,343.039L403.419,343.039L403.419,342.171L404.193,342.049L406.982,332.859L408.472,332.859L411.319,342.029L412.064,342.171L412.064,343.039Z" style="fill:rgb(34,30,31);fill-rule:nonzero;"/>
                <path d="M424.812,333.849L424.053,333.95L423.877,334.151L423.877,343.039L422.282,343.039L418.226,335.525L418.226,341.848L418.372,342.069L419.19,342.171L419.19,343.039L416.153,343.039L416.153,342.171L416.927,342.09L417.087,341.866L417.087,334.092L416.97,333.93L416.153,333.849L416.153,332.98L419.19,332.98L419.19,333.444L422.738,339.948L422.738,334.132L422.578,333.93L421.774,333.849L421.774,332.98L424.812,332.98L424.812,333.849Z" style="fill:rgb(34,30,31);fill-rule:nonzero;"/>
                <path d="M435.954,335.626L434.844,335.626L434.654,334.111L434.552,333.99L432.405,333.99L432.405,337.524L433.836,337.524L433.938,337.384L434.07,336.232L435.034,336.232L435.034,339.827L434.07,339.827L433.938,338.676L433.822,338.535L432.405,338.535L432.405,341.908L432.551,342.069L433.457,342.171L433.457,343.039L429.587,343.039L429.587,342.171L430.375,342.09L430.507,341.928L430.507,334.111L430.375,333.95L429.528,333.869L429.528,332.98L435.954,332.98L435.954,335.626Z" style="fill:rgb(34,30,31);fill-rule:nonzero;"/>
                <path d="M444.131,338.515L443.196,335.384L442.291,338.515L444.131,338.515ZM447.913,343.039L444.32,343.039L444.32,342.171L445.139,342.069L445.197,341.908L444.467,339.524L441.999,339.524L441.283,341.926L441.371,342.089L442.188,342.171L442.188,343.039L439.269,343.039L439.269,342.171L440.042,342.049L442.831,332.859L444.32,332.859L447.168,342.029L447.913,342.171L447.913,343.039Z" style="fill:rgb(34,30,31);fill-rule:nonzero;"/>
                <path d="M456.967,335.848C456.967,334.609 456.401,333.99 455.272,333.99L454.835,333.99L454.835,337.687C454.902,337.7 455.01,337.706 455.156,337.706C456.363,337.706 456.967,337.087 456.967,335.848ZM460.442,343.004C459.829,343.095 459.41,343.14 459.187,343.14C458.495,343.14 457.945,342.918 457.536,342.474C457.205,342.11 456.933,341.483 456.719,340.595C456.543,339.841 456.326,339.333 456.068,339.07C455.811,338.808 455.399,338.676 454.835,338.676L454.835,341.908L454.98,342.069L455.77,342.171L455.77,343.039L452.002,343.039L452.002,342.171L452.805,342.09L452.937,341.928L452.937,334.111L452.805,333.95L452.002,333.869L452.002,332.98L455.93,332.98C457.936,332.98 458.938,333.842 458.938,335.565C458.938,336.912 458.285,337.768 456.981,338.131C457.429,338.266 457.765,338.494 457.988,338.817C458.213,339.141 458.437,339.72 458.66,340.555C458.846,341.241 459.023,341.676 459.193,341.857C459.363,342.039 459.692,342.13 460.179,342.13L460.442,342.171L460.442,343.004Z" style="fill:rgb(34,30,31);fill-rule:nonzero;"/>
                <path d="M471.919,343.039L465.07,343.039L465.07,342.15L465.859,342.069L466.005,341.908L466.005,334.111L465.874,333.95L465.07,333.869L465.07,332.98L471.525,332.98L471.525,335.464L470.415,335.464L470.226,334.111L470.123,333.99L467.903,333.99L467.903,337.322L469.276,337.322L469.394,337.201L469.51,336.03L470.488,336.03L470.488,339.625L469.51,339.625L469.394,338.454L469.276,338.333L467.903,338.333L467.903,342.029L470.488,342.029L470.593,341.867L470.831,340.231L471.919,340.231L471.919,343.039Z" style="fill:rgb(34,30,31);fill-rule:nonzero;"/>
            </g>
            <g id="De-Vooruitgang" serif:id="De Vooruitgang">
                <path d="M326.377,355.644C326.377,351.927 325.233,350.068 322.946,350.068L322.099,350.068L322.099,361.319L322.946,361.319C325.233,361.319 326.377,359.428 326.377,355.644ZM328.568,355.623C328.568,357.077 328.346,358.343 327.903,359.42C327.46,360.498 326.83,361.299 326.013,361.824C325.341,362.255 324.44,362.471 323.311,362.471L319.062,362.471L319.062,361.48L319.938,361.38L320.171,361.057L320.171,350.331L319.938,350.008L319.062,349.906L319.062,348.917L323.311,348.917C324.966,348.917 326.256,349.506 327.181,350.685C328.105,351.862 328.568,353.509 328.568,355.623Z" style="fill:rgb(34,30,31);fill-rule:nonzero;"/>
                <path d="M339.374,362.471L332.525,362.471L332.525,361.582L333.313,361.501L333.459,361.339L333.459,353.542L333.328,353.381L332.525,353.3L332.525,352.411L338.979,352.411L338.979,354.896L337.87,354.896L337.68,353.542L337.578,353.421L335.358,353.421L335.358,356.754L336.73,356.754L336.848,356.633L336.964,355.461L337.943,355.461L337.943,359.057L336.964,359.057L336.848,357.885L336.73,357.764L335.358,357.764L335.358,361.46L337.943,361.46L338.047,361.299L338.286,359.663L339.374,359.663L339.374,362.471Z" style="fill:rgb(34,30,31);fill-rule:nonzero;"/>
                <path d="M358.692,349.906L357.744,350.169L354.501,362.511L353.027,362.511L349.712,350.149L348.748,349.906L348.748,348.917L352.764,348.917L352.764,349.906L351.917,350.008L351.756,350.311L354.181,359.521L356.531,350.311L356.371,350.008L355.495,349.906L355.495,348.917L358.692,348.917L358.692,349.906Z" style="fill:rgb(34,30,31);fill-rule:nonzero;"/>
                <path d="M367.542,357.501C367.542,356.223 367.339,355.202 366.936,354.441C366.532,353.681 365.994,353.3 365.322,353.3C364.67,353.3 364.146,353.677 363.752,354.432C363.358,355.186 363.161,356.175 363.161,357.4C363.161,358.652 363.363,359.663 363.767,360.431C364.171,361.198 364.699,361.582 365.352,361.582C366.003,361.582 366.532,361.208 366.936,360.461C367.339,359.713 367.542,358.727 367.542,357.501ZM369.645,357.461C369.645,358.982 369.238,360.238 368.425,361.229C367.612,362.218 366.587,362.713 365.352,362.713C364.086,362.713 363.054,362.222 362.255,361.238C361.457,360.256 361.058,358.982 361.058,357.421C361.058,355.845 361.455,354.576 362.248,353.613C363.042,352.65 364.086,352.169 365.38,352.169C366.607,352.169 367.625,352.671 368.433,353.674C369.24,354.677 369.645,355.939 369.645,357.461Z" style="fill:rgb(34,30,31);fill-rule:nonzero;"/>
                <path d="M380.1,357.501C380.1,356.223 379.897,355.202 379.494,354.441C379.09,353.681 378.552,353.3 377.88,353.3C377.228,353.3 376.705,353.677 376.311,354.432C375.916,355.186 375.719,356.175 375.719,357.4C375.719,358.652 375.921,359.663 376.325,360.431C376.729,361.198 377.257,361.582 377.909,361.582C378.562,361.582 379.09,361.208 379.494,360.461C379.897,359.713 380.1,358.727 380.1,357.501ZM382.203,357.461C382.203,358.982 381.796,360.238 380.983,361.229C380.17,362.218 379.146,362.713 377.909,362.713C376.644,362.713 375.612,362.222 374.813,361.238C374.015,360.256 373.616,358.982 373.616,357.421C373.616,355.845 374.013,354.576 374.806,353.613C375.6,352.65 376.644,352.169 377.938,352.169C379.165,352.169 380.182,352.671 380.99,353.674C381.798,354.677 382.203,355.939 382.203,357.461Z" style="fill:rgb(34,30,31);fill-rule:nonzero;"/>
                <path d="M391.066,355.279C391.066,354.041 390.501,353.421 389.372,353.421L388.934,353.421L388.934,357.117C389.002,357.131 389.109,357.138 389.255,357.138C390.462,357.138 391.066,356.519 391.066,355.279ZM394.542,362.436C393.928,362.526 393.509,362.571 393.286,362.571C392.594,362.571 392.044,362.35 391.636,361.905C391.305,361.541 391.032,360.915 390.818,360.026C390.643,359.272 390.426,358.764 390.168,358.501C389.91,358.238 389.499,358.107 388.934,358.107L388.934,361.339L389.08,361.501L389.869,361.602L389.869,362.471L386.101,362.471L386.101,361.602L386.904,361.521L387.036,361.358L387.036,353.543L386.904,353.381L386.101,353.3L386.101,352.411L390.029,352.411C392.035,352.411 393.038,353.273 393.038,354.997C393.038,356.344 392.385,357.198 391.081,357.562C391.528,357.696 391.864,357.926 392.088,358.249C392.312,358.572 392.536,359.151 392.76,359.986C392.945,360.673 393.123,361.107 393.293,361.289C393.463,361.471 393.792,361.562 394.279,361.562L394.542,361.602L394.542,362.436Z" style="fill:rgb(34,30,31);fill-rule:nonzero;"/>
                <path d="M406.077,353.28L405.274,353.381L405.143,353.542L405.143,358.814C405.143,360.188 404.88,361.194 404.354,361.834C403.829,362.474 403.001,362.794 401.872,362.794C400.441,362.794 399.462,362.328 398.937,361.397C398.625,360.844 398.469,359.953 398.469,358.725L398.469,353.522L398.353,353.361L397.535,353.28L397.535,352.411L401.302,352.411L401.302,353.28L400.484,353.361L400.368,353.522L400.368,358.787C400.368,359.746 400.509,360.432 400.791,360.843C401.073,361.255 401.545,361.46 402.208,361.46C402.84,361.46 403.293,361.244 403.566,360.813C403.838,360.381 403.975,359.658 403.975,358.646L403.975,353.522L403.843,353.361L403.011,353.28L403.011,352.411L406.077,352.411L406.077,353.28Z" style="fill:rgb(34,30,31);fill-rule:nonzero;"/>
                <path d="M413.817,362.471L409.874,362.471L409.874,361.602L410.765,361.501L410.896,361.339L410.896,353.542L410.765,353.381L409.874,353.28L409.874,352.411L413.817,352.411L413.817,353.28L412.926,353.361L412.794,353.523L412.794,361.358L412.926,361.521L413.817,361.602L413.817,362.471Z" style="fill:rgb(34,30,31);fill-rule:nonzero;"/>
                <path d="M424.608,355.198L423.498,355.198L423.279,353.542L423.162,353.421L421.862,353.421L421.862,361.339L422.008,361.501L422.87,361.602L422.87,362.471L418.942,362.471L418.942,361.602L419.818,361.521L419.964,361.358L419.964,353.421L418.665,353.421L418.548,353.542L418.343,355.198L417.233,355.198L417.233,352.411L424.608,352.411L424.608,355.198Z" style="fill:rgb(34,30,31);fill-rule:nonzero;"/>
                <path d="M436.407,358.289L435.633,358.391L435.501,358.512L435.501,362.006C434.499,362.45 433.559,362.672 432.683,362.672C431.33,362.672 430.237,362.191 429.405,361.229C428.572,360.266 428.156,358.996 428.156,357.421C428.156,355.845 428.578,354.583 429.422,353.634C430.266,352.684 431.385,352.209 432.78,352.209C433.609,352.209 434.516,352.378 435.501,352.714L435.501,355.381L434.359,355.381L434.11,353.744L433.964,353.522C433.671,353.401 433.358,353.341 433.026,353.341C432.148,353.341 431.455,353.701 430.947,354.421C430.439,355.142 430.186,356.128 430.186,357.38C430.186,358.673 430.446,359.689 430.967,360.431C431.488,361.171 432.196,361.541 433.092,361.541C433.199,361.541 433.354,361.521 433.559,361.48L433.661,361.46L433.661,358.492L433.515,358.37L432.552,358.289L432.552,357.421L436.407,357.421L436.407,358.289Z" style="fill:rgb(34,30,31);fill-rule:nonzero;"/>
                <path d="M444.307,357.945L443.372,354.815L442.467,357.945L444.307,357.945ZM448.088,362.471L444.496,362.471L444.496,361.602L445.313,361.501L445.372,361.339L444.643,358.956L442.175,358.956L441.459,361.357L441.547,361.521L442.364,361.602L442.364,362.471L439.443,362.471L439.443,361.602L440.218,361.48L443.007,352.29L444.496,352.29L447.344,361.46L448.088,361.602L448.088,362.471Z" style="fill:rgb(34,30,31);fill-rule:nonzero;"/>
                <path d="M459.887,353.28L459.128,353.381L458.952,353.583L458.952,362.471L457.356,362.471L453.302,354.956L453.302,361.278L453.447,361.501L454.266,361.602L454.266,362.471L451.228,362.471L451.228,361.602L452.002,361.521L452.162,361.297L452.162,353.523L452.046,353.361L451.228,353.28L451.228,352.411L454.266,352.411L454.266,352.876L457.813,359.38L457.813,353.563L457.653,353.361L456.85,353.28L456.85,352.411L459.887,352.411L459.887,353.28Z" style="fill:rgb(34,30,31);fill-rule:nonzero;"/>
                <path d="M472.021,358.289L471.248,358.391L471.116,358.512L471.116,362.006C470.113,362.45 469.174,362.672 468.298,362.672C466.945,362.672 465.853,362.191 465.02,361.229C464.188,360.266 463.771,358.996 463.771,357.421C463.771,355.845 464.193,354.583 465.037,353.634C465.881,352.684 467,352.209 468.395,352.209C469.224,352.209 470.131,352.378 471.116,352.714L471.116,355.381L469.975,355.381L469.726,353.744L469.579,353.522C469.286,353.401 468.974,353.341 468.642,353.341C467.763,353.341 467.07,353.701 466.563,354.421C466.055,355.142 465.801,356.128 465.801,357.38C465.801,358.673 466.062,359.689 466.582,360.431C467.103,361.171 467.812,361.541 468.707,361.541C468.814,361.541 468.97,361.521 469.174,361.48L469.276,361.46L469.276,358.492L469.131,358.37L468.167,358.289L468.167,357.421L472.021,357.421L472.021,358.289Z" style="fill:rgb(34,30,31);fill-rule:nonzero;"/>
            </g>
            <g id="Stiphout">
                <path d="M399.287,379.014C399.287,379.929 398.976,380.673 398.353,381.245C397.729,381.817 396.917,382.104 395.914,382.104C395.086,382.104 394.244,381.922 393.388,381.559L393.388,378.751L394.585,378.751L394.804,380.609L394.921,380.771C395.252,380.905 395.578,380.973 395.899,380.973C396.873,380.973 397.36,380.528 397.36,379.64C397.36,379.249 397.26,378.922 397.06,378.66C396.861,378.397 396.488,378.098 395.943,377.761C395.028,377.195 394.405,376.697 394.074,376.267C393.743,375.835 393.578,375.304 393.578,374.671C393.578,373.769 393.857,373.038 394.417,372.479C394.977,371.92 395.709,371.641 396.615,371.641C397.394,371.641 398.207,371.822 399.054,372.186L399.054,374.711L397.915,374.711L397.681,373.115L397.564,372.934C397.331,372.825 397.067,372.771 396.775,372.771C395.88,372.771 395.432,373.209 395.432,374.085C395.432,374.569 395.631,374.993 396.031,375.357C396.235,375.546 396.717,375.849 397.477,376.267C398.684,376.926 399.287,377.842 399.287,379.014Z" style="fill:rgb(34,30,31);fill-rule:nonzero;"/>
                <path d="M410.341,374.63L409.231,374.63L409.012,372.974L408.896,372.853L407.596,372.853L407.596,380.771L407.742,380.932L408.604,381.033L408.604,381.901L404.675,381.901L404.675,381.033L405.551,380.952L405.697,380.79L405.697,372.853L404.398,372.853L404.281,372.974L404.077,374.63L402.967,374.63L402.967,371.843L410.341,371.843L410.341,374.63Z" style="fill:rgb(34,30,31);fill-rule:nonzero;"/>
                <path d="M416.971,381.901L413.028,381.901L413.028,381.033L413.918,380.932L414.05,380.771L414.05,372.974L413.918,372.813L413.028,372.711L413.028,371.843L416.971,371.843L416.971,372.711L416.08,372.792L415.948,372.955L415.948,380.789L416.08,380.952L416.971,381.033L416.971,381.901Z" style="fill:rgb(34,30,31);fill-rule:nonzero;"/>
                <path d="M424.943,374.983C424.943,373.59 424.413,372.893 423.352,372.893L422.855,372.893L422.855,377.216C422.953,377.229 423.045,377.235 423.133,377.235C424.34,377.235 424.943,376.485 424.943,374.983ZM426.915,374.872C426.915,375.937 426.625,376.771 426.046,377.377C425.467,377.983 424.661,378.286 423.629,378.286L422.855,378.286L422.855,380.773L422.987,380.932L423.907,381.033L423.907,381.901L420.022,381.901L420.022,381.033L420.811,380.952L420.957,380.77L420.957,372.974L420.84,372.813L419.964,372.731L419.964,371.843L423.425,371.843C425.751,371.843 426.915,372.853 426.915,374.872Z" style="fill:rgb(34,30,31);fill-rule:nonzero;"/>
                <path d="M438.582,381.901L434.8,381.901L434.8,381.033L435.618,380.932L435.749,380.77L435.749,377.216L432.858,377.216L432.858,380.788L433.004,380.951L433.822,381.033L433.822,381.901L430.025,381.901L430.025,381.033L430.813,380.952L430.959,380.79L430.959,372.974L430.813,372.813L430.025,372.711L430.025,371.843L433.822,371.843L433.822,372.711L433.004,372.793L432.858,372.955L432.858,376.165L435.749,376.165L435.749,372.955L435.618,372.793L434.8,372.711L434.8,371.843L438.582,371.843L438.582,372.711L437.794,372.792L437.647,372.955L437.647,380.789L437.794,380.952L438.582,381.033L438.582,381.901Z" style="fill:rgb(34,30,31);fill-rule:nonzero;"/>
                <path d="M448.234,376.933C448.234,375.653 448.032,374.634 447.628,373.872C447.225,373.112 446.687,372.731 446.015,372.731C445.362,372.731 444.839,373.108 444.445,373.862C444.051,374.617 443.854,375.606 443.854,376.832C443.854,378.084 444.056,379.094 444.46,379.861C444.863,380.629 445.392,381.013 446.044,381.013C446.696,381.013 447.225,380.64 447.628,379.892C448.032,379.145 448.234,378.158 448.234,376.933ZM450.337,376.893C450.337,378.414 449.931,379.67 449.118,380.659C448.305,381.649 447.28,382.145 446.044,382.145C444.778,382.145 443.746,381.652 442.948,380.67C442.149,379.687 441.751,378.414 441.751,376.852C441.751,375.276 442.147,374.007 442.94,373.044C443.734,372.082 444.778,371.601 446.073,371.601C447.3,371.601 448.316,372.102 449.125,373.105C449.933,374.108 450.337,375.371 450.337,376.893Z" style="fill:rgb(34,30,31);fill-rule:nonzero;"/>
                <path d="M462.106,372.711L461.304,372.813L461.172,372.974L461.172,378.246C461.172,379.619 460.909,380.626 460.384,381.266C459.857,381.905 459.03,382.225 457.901,382.225C456.47,382.225 455.491,381.76 454.966,380.828C454.654,380.275 454.499,379.385 454.499,378.156L454.499,372.954L454.382,372.792L453.564,372.711L453.564,371.843L457.331,371.843L457.331,372.711L456.514,372.792L456.396,372.954L456.396,378.219C456.396,379.178 456.538,379.862 456.82,380.274C457.103,380.686 457.575,380.892 458.237,380.892C458.869,380.892 459.322,380.676 459.595,380.244C459.867,379.812 460.004,379.09 460.004,378.077L460.004,372.954L459.872,372.792L459.04,372.711L459.04,371.843L462.106,371.843L462.106,372.711Z" style="fill:rgb(34,30,31);fill-rule:nonzero;"/>
                <path d="M472.255,374.63L471.146,374.63L470.927,372.974L470.81,372.853L469.51,372.853L469.51,380.771L469.656,380.932L470.518,381.033L470.518,381.901L466.59,381.901L466.59,381.033L467.466,380.952L467.611,380.79L467.611,372.853L466.313,372.853L466.195,372.974L465.991,374.63L464.881,374.63L464.881,371.843L472.255,371.843L472.255,374.63Z" style="fill:rgb(34,30,31);fill-rule:nonzero;"/>
            </g>
        </g>
        <g id="brandmark" transform="matrix(1,0,0,1,0.938038,0)">
            <g id="leeuw-2e-kwadrant" serif:id="leeuw 2e kwadrant">
                <rect x="512.836" y="284.669" width="39.742" height="48.229" style="fill:white;"/>
                <path d="M522.619,293.298L521.322,291.473C521.322,291.473 526.4,290.393 524.826,295.495L530.639,300.001L530.709,301.044L530.639,299.853L530.99,298.624C530.99,298.624 533.441,299.853 533.582,297.283C533.582,297.283 533.861,295.085 531.516,295.383C531.516,295.383 531.025,294.974 531.27,293.111C531.27,293.111 532.076,293.334 534.002,292.218C534.002,292.218 544.686,293.67 535.578,305.364C535.578,305.364 542.93,314.947 542.887,314.948C542.844,314.95 542.139,316.959 542.139,316.959L542.898,314.908C542.898,314.908 542.256,305.265 540.621,301.64C540.621,301.64 539.92,298.511 544.732,293.099C544.732,293.099 549.52,293.633 542.059,302.013L542.645,301.358L545.385,306.706L545.035,314.675L544.369,317.99C544.369,317.99 543.389,319.74 543.529,322.235L537.014,327.152L536.033,325.476L536.42,326.148L534.563,327.45C534.563,327.45 533.512,324.358 539.115,321.603L537.785,316.574L536.84,314.079L537.777,316.574L537.822,316.738L534.947,316.816L529.881,322.943L525.818,325.575L522.361,325.575L522.361,323.688L522.354,324.348L519.974,324.34C519.974,324.34 522.049,321.779 525.113,322.208L528.082,317.58L527.662,315.644L534.598,310.504L533.336,308.791L533.096,306.48L533.324,308.791L523.154,312.167C523.154,312.167 521.612,310.007 520.844,307.574L522.432,307.077L521.801,307.258L520.781,305.333C520.781,305.333 524.953,305.638 523.762,308.865C523.762,308.865 527.172,308.368 530.066,304.694C530.066,304.694 527.008,305.687 524.883,303.08L527.102,301.751L521.918,294.303L523.283,292.702" style="fill:rgb(210,35,43);fill-rule:nonzero;"/>
                <path d="M522.619,293.298L521.322,291.473C521.322,291.473 526.4,290.393 524.826,295.495L530.639,300.001L530.709,301.044L530.639,299.853L530.99,298.624C530.99,298.624 533.441,299.853 533.582,297.283C533.582,297.283 533.861,295.085 531.516,295.383C531.516,295.383 531.025,294.974 531.27,293.111C531.27,293.111 532.076,293.334 534.002,292.218C534.002,292.218 544.686,293.67 535.578,305.364C535.578,305.364 542.93,314.947 542.887,314.948C542.844,314.95 542.139,316.959 542.139,316.959L542.898,314.908C542.898,314.908 542.256,305.265 540.621,301.64C540.621,301.64 539.92,298.511 544.732,293.099C544.732,293.099 549.52,293.633 542.059,302.013L542.645,301.358L545.385,306.706L545.035,314.675L544.369,317.99C544.369,317.99 543.389,319.74 543.529,322.235L537.014,327.152L536.033,325.476L536.42,326.148L534.563,327.45C534.563,327.45 533.512,324.358 539.115,321.603L537.785,316.574L536.84,314.079L537.777,316.574L537.822,316.738L534.947,316.816L529.881,322.943L525.818,325.575L522.361,325.575L522.361,323.688L522.354,324.348L519.974,324.34C519.974,324.34 522.049,321.779 525.113,322.208L528.082,317.58L527.662,315.644L534.598,310.504L533.336,308.791L533.096,306.48L533.324,308.791L523.154,312.167C523.154,312.167 521.612,310.007 520.844,307.574L522.432,307.077L521.801,307.258L520.781,305.333C520.781,305.333 524.953,305.638 523.762,308.865C523.762,308.865 527.172,308.368 530.066,304.694C530.066,304.694 527.008,305.687 524.883,303.08L527.102,301.751L521.918,294.303L523.283,292.702" style="fill:none;stroke:rgb(34,30,31);stroke-width:0.49px;"/>
                <path d="M533.289,296.079C533.289,296.079 530.535,297.767 529.787,295.731C529.787,295.731 529.367,295.482 529.459,296.376C529.459,296.376 530.066,298.214 533.43,297.022C533.43,297.022 533.709,296.923 533.289,296.079Z" style="fill:rgb(252,221,5);fill-rule:nonzero;"/>
                <path d="M533.289,296.079C533.289,296.079 530.535,297.767 529.787,295.731C529.787,295.731 529.367,295.482 529.459,296.376C529.459,296.376 530.066,298.214 533.43,297.022C533.43,297.022 533.709,296.923 533.289,296.079Z" style="fill:none;stroke:rgb(34,30,31);stroke-width:0.24px;"/>
                <path d="M544.898,293.226C544.898,293.226 545.049,295.386 542.918,297.474" style="fill:none;stroke:rgb(34,30,31);stroke-width:0.49px;"/>
                <path d="M534.084,292.165L535.898,290.288C535.898,290.288 537.047,289.651 536.197,291.828C536.197,291.828 535.982,292.359 536.598,291.438C536.598,291.438 538.445,289.438 537.43,292.058C537.43,292.058 537.098,293.457 537.996,292.2L538.645,291.367C538.645,291.367 539.594,291.049 539.178,292.2C539.178,292.2 538.811,293.12 538.912,295.51C538.912,295.51 538.063,293.032 534.084,292.165Z" style="fill:rgb(252,221,5);fill-rule:nonzero;"/>
                <path d="M534.084,292.165L535.898,290.288C535.898,290.288 537.047,289.651 536.197,291.828C536.197,291.828 535.982,292.359 536.598,291.438C536.598,291.438 538.445,289.438 537.43,292.058C537.43,292.058 537.098,293.457 537.996,292.2L538.645,291.367C538.645,291.367 539.594,291.049 539.178,292.2C539.178,292.2 538.811,293.12 538.912,295.51C538.912,295.51 538.063,293.032 534.084,292.165Z" style="fill:none;stroke:rgb(34,30,31);stroke-width:0.49px;"/>
                <path d="M539.033,295.917C539.033,295.917 538.801,294.787 536.664,294.465" style="fill:none;stroke:rgb(34,30,31);stroke-width:0.49px;"/>
                <path d="M538.795,299.84C538.795,299.84 538.904,298.433 536.992,298.167" style="fill:none;stroke:rgb(34,30,31);stroke-width:0.49px;"/>
                <path d="M539.188,298.115C539.188,298.115 538.766,296.203 536.979,296.066" style="fill:none;stroke:rgb(34,30,31);stroke-width:0.49px;"/>
                <path d="M524.99,303.086C524.99,303.086 527.305,304.174 529.082,303.021" style="fill:none;stroke:rgb(34,30,31);stroke-width:0.49px;"/>
            </g>
            <g id="leeuw-3e-kwadrant" serif:id="leeuw 3e kwadrant">
                <g transform="matrix(1.01212,0,0,0.996547,-5.74096,1.51398)">
                    <rect x="473.84" y="333.083" width="38.926" height="48.947" style="fill:white;"/>
                </g>
                <path d="M482.045,341.82L480.748,339.996C480.748,339.996 485.826,338.916 484.25,344.018L490.064,348.525L490.135,349.568L490.064,348.375L490.416,347.146C490.416,347.146 492.867,348.375 493.008,345.807C493.008,345.807 493.287,343.609 490.941,343.906C490.941,343.906 490.451,343.496 490.695,341.635C490.695,341.635 491.5,341.857 493.428,340.74C493.428,340.74 504.111,342.193 495.004,353.887C495.004,353.887 502.355,363.471 502.313,363.471C502.27,363.473 501.564,365.482 501.564,365.482L502.324,363.432C502.324,363.432 501.682,353.789 500.047,350.164C500.047,350.164 499.346,347.035 504.158,341.623C504.158,341.623 508.945,342.156 501.484,350.535L502.07,349.881L504.811,355.229L504.461,363.199L503.795,366.514C503.795,366.514 502.814,368.264 502.955,370.758L496.439,375.675L495.459,373.999L495.846,374.673L493.988,375.974C493.988,375.974 492.938,372.882 498.541,370.125L497.211,365.098L496.266,362.602L497.203,365.098L497.248,365.262L494.373,365.34L489.307,371.467L485.244,374.099L481.787,374.099L481.787,372.211L481.781,372.872L479.4,372.864C479.4,372.864 481.475,370.303 484.539,370.73L487.508,366.104L487.088,364.166L494.023,359.027L492.762,357.314L492.521,355.004L492.75,357.314L482.58,360.691C482.58,360.691 481.039,358.531 480.27,356.098L481.857,355.602L481.227,355.781L480.205,353.857C480.205,353.857 484.379,354.16 483.188,357.389C483.188,357.389 486.598,356.893 489.492,353.217C489.492,353.217 486.434,354.211 484.309,351.604L486.527,350.275L481.344,342.826L482.709,341.225" style="fill:rgb(210,35,43);fill-rule:nonzero;"/>
                <path d="M482.045,341.82L480.748,339.996C480.748,339.996 485.826,338.916 484.25,344.018L490.064,348.525L490.135,349.568L490.064,348.375L490.416,347.146C490.416,347.146 492.867,348.375 493.008,345.807C493.008,345.807 493.287,343.609 490.941,343.906C490.941,343.906 490.451,343.496 490.695,341.635C490.695,341.635 491.5,341.857 493.428,340.74C493.428,340.74 504.111,342.193 495.004,353.887C495.004,353.887 502.355,363.471 502.313,363.471C502.27,363.473 501.564,365.482 501.564,365.482L502.324,363.432C502.324,363.432 501.682,353.789 500.047,350.164C500.047,350.164 499.346,347.035 504.158,341.623C504.158,341.623 508.945,342.156 501.484,350.535L502.07,349.881L504.811,355.229L504.461,363.199L503.795,366.514C503.795,366.514 502.814,368.264 502.955,370.758L496.439,375.675L495.459,373.999L495.846,374.673L493.988,375.974C493.988,375.974 492.938,372.882 498.541,370.125L497.211,365.098L496.266,362.602L497.203,365.098L497.248,365.262L494.373,365.34L489.307,371.467L485.244,374.099L481.787,374.099L481.787,372.211L481.781,372.872L479.4,372.864C479.4,372.864 481.475,370.303 484.539,370.73L487.508,366.104L487.088,364.166L494.023,359.027L492.762,357.314L492.521,355.004L492.75,357.314L482.58,360.691C482.58,360.691 481.039,358.531 480.27,356.098L481.857,355.602L481.227,355.781L480.205,353.857C480.205,353.857 484.379,354.16 483.188,357.389C483.188,357.389 486.598,356.893 489.492,353.217C489.492,353.217 486.434,354.211 484.309,351.604L486.527,350.275L481.344,342.826L482.709,341.225" style="fill:none;stroke:rgb(34,30,31);stroke-width:0.49px;"/>
                <path d="M492.715,344.602C492.715,344.602 489.959,346.289 489.213,344.254C489.213,344.254 488.793,344.006 488.885,344.9C488.885,344.9 489.492,346.736 492.855,345.545C492.855,345.545 493.135,345.445 492.715,344.602Z" style="fill:rgb(252,221,5);fill-rule:nonzero;"/>
                <path d="M492.715,344.602C492.715,344.602 489.959,346.289 489.213,344.254C489.213,344.254 488.793,344.006 488.885,344.9C488.885,344.9 489.492,346.736 492.855,345.545C492.855,345.545 493.135,345.445 492.715,344.602Z" style="fill:none;stroke:rgb(34,30,31);stroke-width:0.24px;"/>
                <path d="M504.324,341.75C504.324,341.75 504.475,343.91 502.344,345.998" style="fill:none;stroke:rgb(34,30,31);stroke-width:0.49px;"/>
                <path d="M493.508,340.688L495.324,338.811C495.324,338.811 496.473,338.174 495.623,340.352C495.623,340.352 495.406,340.883 496.023,339.961C496.023,339.961 497.871,337.961 496.855,340.582C496.855,340.582 496.521,341.98 497.422,340.723L498.07,339.891C498.07,339.891 499.02,339.572 498.604,340.723C498.604,340.723 498.236,341.643 498.338,344.033C498.338,344.033 497.488,341.555 493.508,340.688Z" style="fill:rgb(252,221,5);fill-rule:nonzero;"/>
                <path d="M493.508,340.688L495.324,338.811C495.324,338.811 496.473,338.174 495.623,340.352C495.623,340.352 495.406,340.883 496.023,339.961C496.023,339.961 497.871,337.961 496.855,340.582C496.855,340.582 496.521,341.98 497.422,340.723L498.07,339.891C498.07,339.891 499.02,339.572 498.604,340.723C498.604,340.723 498.236,341.643 498.338,344.033C498.338,344.033 497.488,341.555 493.508,340.688Z" style="fill:none;stroke:rgb(34,30,31);stroke-width:0.49px;"/>
                <path d="M498.459,344.439C498.459,344.439 498.227,343.311 496.09,342.988" style="fill:none;stroke:rgb(34,30,31);stroke-width:0.49px;"/>
                <path d="M498.221,348.363C498.221,348.363 498.33,346.957 496.418,346.691" style="fill:none;stroke:rgb(34,30,31);stroke-width:0.49px;"/>
                <path d="M498.611,346.639C498.611,346.639 498.191,344.727 496.404,344.59" style="fill:none;stroke:rgb(34,30,31);stroke-width:0.49px;"/>
                <path d="M484.416,351.609C484.416,351.609 486.73,352.697 488.508,351.543" style="fill:none;stroke:rgb(34,30,31);stroke-width:0.49px;"/>
            </g>
            <g id="leeuw-4e-kwadrant" serif:id="leeuw 4e kwadrant">
                <g transform="matrix(0.994714,0,0,1,2.932,0.237991)">
                    <rect x="513.016" y="333.209" width="39.607" height="48.772" style="fill:rgb(34,30,31);"/>
                </g>
                <path d="M533.053,357.18L532.736,354.83" style="fill:none;fill-rule:nonzero;"/>
                <path d="M533.053,357.18L532.736,354.83" style="fill:none;stroke:rgb(34,30,31);stroke-width:0.73px;"/>
                <path d="M530.436,349.699L530.391,348.74" style="fill:none;fill-rule:nonzero;"/>
                <path d="M530.436,349.699L530.391,348.74" style="fill:none;stroke:rgb(34,30,31);stroke-width:0.73px;"/>
                <path d="M536.029,373.868L535.758,373.147" style="fill:none;fill-rule:nonzero;"/>
                <path d="M536.029,373.868L535.758,373.147" style="fill:none;stroke:rgb(34,30,31);stroke-width:0.73px;"/>
                <path d="M522.453,372.141L522.453,371.469" style="fill:none;fill-rule:nonzero;"/>
                <path d="M522.453,372.141L522.453,371.469" style="fill:none;stroke:rgb(34,30,31);stroke-width:0.73px;"/>
                <path d="M521.867,355.645L522.5,355.406" style="fill:none;fill-rule:nonzero;"/>
                <path d="M521.867,355.645L522.5,355.406" style="fill:none;stroke:rgb(34,30,31);stroke-width:0.73px;"/>
                <path d="M542.252,363.27L541.439,365.092" style="fill:none;fill-rule:nonzero;"/>
                <path d="M542.252,363.27L541.439,365.092" style="fill:none;stroke:rgb(34,30,31);stroke-width:0.73px;"/>
                <path d="M522.724,342.268L523.354,341.547" style="fill:none;fill-rule:nonzero;"/>
                <path d="M522.724,342.268L523.354,341.547" style="fill:none;stroke:rgb(34,30,31);stroke-width:0.73px;"/>
                <path d="M537.336,364.756L536.391,362.166" style="fill:none;fill-rule:nonzero;"/>
                <path d="M537.336,364.756L536.391,362.166" style="fill:none;stroke:rgb(34,30,31);stroke-width:0.73px;"/>
                <path d="M542.025,349.939L541.395,350.609" style="fill:none;fill-rule:nonzero;"/>
                <path d="M542.025,349.939L541.395,350.609" style="fill:none;stroke:rgb(34,30,31);stroke-width:0.73px;"/>
                <path d="M527.041,350.912L522.177,343.908L523.482,342.334L522.927,342.992L521.651,341.234C521.651,341.234 526.395,340.371 524.918,344.936L530.445,349.361L530.455,350.293L530.441,349.34L530.709,347.928C530.709,347.928 532.986,349.008 533.207,346.799C533.207,346.799 533.473,344.473 531.262,344.871C531.262,344.871 530.863,344.637 531.064,342.803C531.064,342.803 532.896,342.662 535.684,340.734C535.684,340.734 536.92,341.135 536.346,342.686C536.346,342.686 542.139,345.789 535.152,354.391L542.076,363.568L541.264,365.367L542.08,363.557L542.1,363.518L542.059,363.023C542.059,363.023 541.469,357.344 540.752,353.791C540.262,352.137 539.789,350.91 539.797,350.732C539.842,349.742 540.258,346.225 543.818,342.639C543.818,342.639 548.238,343.438 541.166,351.193L541.766,350.531L544.393,355.613L544.082,362.945L543.42,366.143C543.42,366.143 542.227,369.338 542.623,370.373L536.457,374.956L535.572,373.335L535.924,374.001L534.145,375.177C534.145,375.177 533.041,372.488 538.412,369.668L537.154,364.943L536.291,362.582L537.131,364.928L537.156,365.014L534.5,365.166L529.76,371.031L525.914,373.522L522.598,373.476L522.598,371.643L522.591,372.303L520.44,372.295C520.44,372.295 521.818,370.037 525.15,370.248L528.002,365.824L527.604,364.027L534.18,359.279L532.986,357.586L532.678,355.33L532.961,357.582L523.326,360.783C523.326,360.783 521.534,357.857 521.305,356.342L522.648,355.883L522.057,356.08L521.117,354.32C521.117,354.32 525.117,354.695 523.924,357.656C523.924,357.656 527.727,356.764 529.826,353.709C529.826,353.709 526.664,354.531 525.029,352.182L527.041,350.912Z" style="fill:rgb(252,221,5);fill-rule:nonzero;"/>
                <path d="M527.041,350.912L522.177,343.908L523.482,342.334L522.927,342.992L521.651,341.234C521.651,341.234 526.395,340.371 524.918,344.936L530.445,349.361L530.455,350.293L530.441,349.34L530.709,347.928C530.709,347.928 532.986,349.008 533.207,346.799C533.207,346.799 533.473,344.473 531.262,344.871C531.262,344.871 530.863,344.637 531.064,342.803C531.064,342.803 532.896,342.662 535.684,340.734C535.684,340.734 536.92,341.135 536.346,342.686C536.346,342.686 542.139,345.789 535.152,354.391L542.076,363.568L541.264,365.367L542.08,363.557L542.1,363.518L542.059,363.023C542.059,363.023 541.469,357.344 540.752,353.791C540.262,352.137 539.789,350.91 539.797,350.732C539.842,349.742 540.258,346.225 543.818,342.639C543.818,342.639 548.238,343.438 541.166,351.193L541.766,350.531L544.393,355.613L544.082,362.945L543.42,366.143C543.42,366.143 542.227,369.338 542.623,370.373L536.457,374.956L535.572,373.335L535.924,374.001L534.145,375.177C534.145,375.177 533.041,372.488 538.412,369.668L537.154,364.943L536.291,362.582L537.131,364.928L537.156,365.014L534.5,365.166L529.76,371.031L525.914,373.522L522.598,373.476L522.598,371.643L522.591,372.303L520.44,372.295C520.44,372.295 521.818,370.037 525.15,370.248L528.002,365.824L527.604,364.027L534.18,359.279L532.986,357.586L532.678,355.33L532.961,357.582L523.326,360.783C523.326,360.783 521.534,357.857 521.305,356.342L522.648,355.883L522.057,356.08L521.117,354.32C521.117,354.32 525.117,354.695 523.924,357.656C523.924,357.656 527.727,356.764 529.826,353.709C529.826,353.709 526.664,354.531 525.029,352.182L527.041,350.912Z" style="fill:none;stroke:rgb(34,30,31);stroke-width:0.49px;"/>
                <path d="M544.016,342.75C544.016,342.75 544.48,344.408 542.191,346.875" style="fill:none;stroke:rgb(34,30,31);stroke-width:0.49px;"/>
                <path d="M525.117,352.182C525.117,352.182 527.471,353.203 528.898,352.111" style="fill:none;stroke:rgb(34,30,31);stroke-width:0.49px;"/>
                <path d="M536.102,343.971C536.102,343.971 538.063,344.16 538.398,345.461" style="fill:none;stroke:rgb(34,30,31);stroke-width:0.49px;"/>
                <path d="M536.375,345.506C536.375,345.506 538.334,345.617 538.514,347.902" style="fill:none;stroke:rgb(34,30,31);stroke-width:0.49px;"/>
                <path d="M536.42,347.518C536.42,347.518 538.422,347.617 538.064,349.602" style="fill:none;stroke:rgb(34,30,31);stroke-width:0.49px;"/>
                <path d="M532.871,345.576C532.871,345.576 530.484,346.967 529.73,345.404C529.73,345.404 529.488,344.861 529.291,345.465C529.291,345.465 529.164,347.645 533.045,346.414C533.045,346.414 533.113,345.982 532.871,345.576Z" style="fill:rgb(210,35,43);fill-rule:nonzero;"/>
                <path d="M532.871,345.576C532.871,345.576 530.484,346.967 529.73,345.404C529.73,345.404 529.488,344.861 529.291,345.465C529.291,345.465 529.164,347.645 533.045,346.414C533.045,346.414 533.113,345.982 532.871,345.576Z" style="fill:none;stroke:rgb(210,35,43);stroke-width:0.24px;"/>
            </g>
            <g id="leeuw-1e-kwadrant" serif:id="leeuw 1e kwadrant">
                <g transform="matrix(1.01797,0,0,1.01287,-8.49553,-3.66488)">
                    <rect x="473.818" y="284.676" width="38.702" height="48.158" style="fill:rgb(34,30,31);"/>
                </g>
                <path d="M492.719,309.007L492.402,306.658" style="fill:none;fill-rule:nonzero;"/>
                <path d="M492.719,309.007L492.402,306.658" style="fill:none;stroke:rgb(34,30,31);stroke-width:0.73px;"/>
                <path d="M490.104,301.526L490.059,300.567" style="fill:none;fill-rule:nonzero;"/>
                <path d="M490.104,301.526L490.059,300.567" style="fill:none;stroke:rgb(34,30,31);stroke-width:0.73px;"/>
                <path d="M495.695,325.695L495.424,324.975" style="fill:none;fill-rule:nonzero;"/>
                <path d="M495.695,325.695L495.424,324.975" style="fill:none;stroke:rgb(34,30,31);stroke-width:0.73px;"/>
                <path d="M482.121,323.968L482.121,323.297" style="fill:none;fill-rule:nonzero;"/>
                <path d="M482.121,323.968L482.121,323.297" style="fill:none;stroke:rgb(34,30,31);stroke-width:0.73px;"/>
                <path d="M481.533,307.473L482.166,307.233" style="fill:none;fill-rule:nonzero;"/>
                <path d="M481.533,307.473L482.166,307.233" style="fill:none;stroke:rgb(34,30,31);stroke-width:0.73px;"/>
                <path d="M501.918,315.097L501.105,316.919" style="fill:none;fill-rule:nonzero;"/>
                <path d="M501.918,315.097L501.105,316.919" style="fill:none;stroke:rgb(34,30,31);stroke-width:0.73px;"/>
                <path d="M482.391,294.094L483.021,293.375" style="fill:none;fill-rule:nonzero;"/>
                <path d="M482.391,294.094L483.021,293.375" style="fill:none;stroke:rgb(34,30,31);stroke-width:0.73px;"/>
                <path d="M497.002,316.584L496.057,313.994" style="fill:none;fill-rule:nonzero;"/>
                <path d="M497.002,316.584L496.057,313.994" style="fill:none;stroke:rgb(34,30,31);stroke-width:0.73px;"/>
                <path d="M501.691,301.766L501.063,302.437" style="fill:none;fill-rule:nonzero;"/>
                <path d="M501.691,301.766L501.063,302.437" style="fill:none;stroke:rgb(34,30,31);stroke-width:0.73px;"/>
                <path d="M487.057,302.198L482.193,295.193L483.498,293.619L482.943,294.278L481.67,292.521C481.67,292.521 486.41,291.656 484.934,296.222L490.461,300.646L490.471,301.579L490.457,300.625L490.725,299.213C490.725,299.213 493.004,300.294 493.223,298.084C493.223,298.084 493.488,295.758 491.277,296.157C491.277,296.157 490.881,295.922 491.08,294.088C491.08,294.088 492.914,293.948 495.699,292.021C495.699,292.021 496.936,292.42 496.363,293.971C496.363,293.971 502.154,297.074 495.168,305.676L502.094,314.854L501.281,316.652L502.096,314.843L502.115,314.803L502.074,314.31C502.074,314.31 501.484,308.63 500.768,305.076C500.277,303.422 499.807,302.195 499.813,302.018C499.859,301.028 500.273,297.51 503.834,293.924C503.834,293.924 508.254,294.723 501.182,302.479L501.781,301.816L504.408,306.898L504.1,314.231L503.436,317.428C503.436,317.428 502.242,320.624 502.639,321.658L496.473,326.241L495.59,324.62L495.939,325.285L494.16,326.462C494.16,326.462 493.059,323.773 498.43,320.953L497.17,316.229L496.307,313.867L497.146,316.213L497.172,316.299L494.516,316.452L489.775,322.316L485.93,324.807L482.613,324.761L482.613,322.928L482.607,323.587L480.459,323.58C480.459,323.58 481.834,321.323 485.166,321.535L488.018,317.11L487.619,315.313L494.195,310.565L493.004,308.873L492.693,306.616L492.977,308.867L483.344,312.069C483.344,312.069 481.553,309.143 481.32,307.626L482.664,307.168L482.072,307.365L481.133,305.605C481.133,305.605 485.135,305.981 483.939,308.943C483.939,308.943 487.742,308.05 489.842,304.995C489.842,304.995 486.682,305.817 485.045,303.467L487.057,302.198Z" style="fill:rgb(252,221,5);fill-rule:nonzero;"/>
                <path d="M487.057,302.198L482.193,295.193L483.498,293.619L482.943,294.278L481.67,292.521C481.67,292.521 486.41,291.656 484.934,296.222L490.461,300.646L490.471,301.579L490.457,300.625L490.725,299.213C490.725,299.213 493.004,300.294 493.223,298.084C493.223,298.084 493.488,295.758 491.277,296.157C491.277,296.157 490.881,295.922 491.08,294.088C491.08,294.088 492.914,293.948 495.699,292.021C495.699,292.021 496.936,292.42 496.363,293.971C496.363,293.971 502.154,297.074 495.168,305.676L502.094,314.854L501.281,316.652L502.096,314.843L502.115,314.803L502.074,314.31C502.074,314.31 501.484,308.63 500.768,305.076C500.277,303.422 499.807,302.195 499.813,302.018C499.859,301.028 500.273,297.51 503.834,293.924C503.834,293.924 508.254,294.723 501.182,302.479L501.781,301.816L504.408,306.898L504.1,314.231L503.436,317.428C503.436,317.428 502.242,320.624 502.639,321.658L496.473,326.241L495.59,324.62L495.939,325.285L494.16,326.462C494.16,326.462 493.059,323.773 498.43,320.953L497.17,316.229L496.307,313.867L497.146,316.213L497.172,316.299L494.516,316.452L489.775,322.316L485.93,324.807L482.613,324.761L482.613,322.928L482.607,323.587L480.459,323.58C480.459,323.58 481.834,321.323 485.166,321.535L488.018,317.11L487.619,315.313L494.195,310.565L493.004,308.873L492.693,306.616L492.977,308.867L483.344,312.069C483.344,312.069 481.553,309.143 481.32,307.626L482.664,307.168L482.072,307.365L481.133,305.605C481.133,305.605 485.135,305.981 483.939,308.943C483.939,308.943 487.742,308.05 489.842,304.995C489.842,304.995 486.682,305.817 485.045,303.467L487.057,302.198Z" style="fill:none;stroke:rgb(34,30,31);stroke-width:0.49px;"/>
                <path d="M504.033,294.036C504.033,294.036 504.496,295.693 502.209,298.161" style="fill:none;stroke:rgb(34,30,31);stroke-width:0.49px;"/>
                <path d="M485.135,303.467C485.135,303.467 487.486,304.489 488.914,303.396" style="fill:none;stroke:rgb(34,30,31);stroke-width:0.49px;"/>
                <path d="M496.117,295.256C496.117,295.256 498.078,295.447 498.414,296.746" style="fill:none;stroke:rgb(34,30,31);stroke-width:0.49px;"/>
                <path d="M496.391,296.791C496.391,296.791 498.352,296.903 498.531,299.188" style="fill:none;stroke:rgb(34,30,31);stroke-width:0.49px;"/>
                <path d="M496.436,298.803C496.436,298.803 498.439,298.904 498.08,300.886" style="fill:none;stroke:rgb(34,30,31);stroke-width:0.49px;"/>
                <path d="M492.889,296.861C492.889,296.861 490.5,298.253 489.746,296.689C489.746,296.689 489.504,296.146 489.307,296.75C489.307,296.75 489.18,298.931 493.061,297.699C493.061,297.699 493.131,297.268 492.889,296.861Z" style="fill:rgb(210,35,43);fill-rule:nonzero;"/>
                <path d="M492.889,296.861C492.889,296.861 490.5,298.253 489.746,296.689C489.746,296.689 489.504,296.146 489.307,296.75C489.307,296.75 489.18,298.931 493.061,297.699C493.061,297.699 493.131,297.268 492.889,296.861Z" style="fill:none;stroke:rgb(210,35,43);stroke-width:0.24px;"/>
            </g>
        </g>
    </g>
</svg>
