<svg xmlns="http://www.w3.org/2000/svg" fill-rule="evenodd" stroke-miterlimit="1.414" viewBox="0 0 440 699" clip-rule="evenodd" stroke-linejoin="round">
  <path fill="#231f20" fill-rule="nonzero" d="M107.646 309.456v-2.718c2.6 0 3.9-.802 3.9-2.408l.124-3.41v-25.687l-.125-3.435c0-1.59-1.3-2.384-3.9-2.384v-2.72h26.948v7.503h-2.718v-.7l-.025-1.904c0-1.452-1.24-2.18-3.72-2.18h-7.912v17.827h4.697l2.16-.1c1.02 0 1.533-.652 1.533-1.954v-.952h2.718v8.546h-2.718v-1.052c0-1.218-.513-1.828-1.533-1.828l-2.16-.1h-4.697v11.125l.125 3.408c0 1.603 1.3 2.405 3.9 2.405v2.718h-16.597zm37.85-12.468h8.903l-4.56-11.055-4.35 11.055zm-9.257 12.468v-2.718l.97-.126c1.15-.116 2.21-1.415 3.18-3.895l11.14-28.494h2.65l11.58 28.52c1 2.495 2.38 3.828 4.15 3.995v2.718h-15.05v-2.718c1.93 0 2.9-.3 2.9-.905 0-.335-.3-1.257-.88-2.764l-1.39-3.37H144.4l-1.19 3.03c-.635 1.57-.953 2.57-.953 2.99 0 .65.8.99 2.4 1v2.72h-8.44zm35.3 0v-2.718c1.97 0 3.14-.347 3.49-1.04.35-.693.53-2.285.53-4.776v-17.12c0-2.49-.18-4.082-.53-4.775-.36-.693-1.52-1.04-3.5-1.04v-2.718h8.31l17.12 21.4v-12.86l-.13-3.44c0-1.6-1.3-2.39-3.9-2.39v-2.72h12.33v2.71c-2.59 0-3.88.79-3.88 2.38l-.15 3.43v25.94h-4.29l-17.12-21.66v12.84l.12 3.41c0 1.6 1.3 2.4 3.9 2.4v2.72h-12.33zm36.45 0v-2.718c2.6 0 3.9-.802 3.9-2.406l.12-3.41v-17.12l-.13-3.433c0-1.59-1.3-2.39-3.9-2.39v-2.72h24.38v7.5h-2.72l-.03-.68-.03-1.93c0-1.45-1.24-2.18-3.72-2.18h-5.33v11.82h2.65c1.56 0 2.57-.08 3.02-.23.45-.15.68-.75.68-1.8v-.96h2.71v8.54h-2.72v-1.08c0-1.22-.52-1.83-1.54-1.83l-2.17-.08-2.65-.02v8.56l.12 3.4c0 1.6 1.3 2.4 3.9 2.4v2.71h-16.59zm35.29-12.468h8.9l-4.56-11.055-4.35 11.055zm-9.26 12.468v-2.718l.97-.126c1.15-.116 2.21-1.415 3.17-3.895l11.14-28.494h2.65l11.58 28.52c1 2.495 2.39 3.828 4.16 3.995v2.718h-15.05v-2.718c1.93 0 2.9-.3 2.9-.905 0-.335-.29-1.257-.88-2.764l-1.39-3.37H242.2l-1.19 3.03c-.636 1.57-.954 2.57-.954 2.99 0 .65.8.99 2.4 1v2.72h-8.44zm47.87-31.47v12.86h1.36c5.38 0 8.07-2.3 8.07-6.906 0-3.968-2.38-5.953-7.15-5.953h-2.29zm-12.58 31.47v-2.72c2.6 0 3.9-.8 3.9-2.404l.12-3.41v-17.12l-.13-3.433c0-1.59-1.3-2.39-3.9-2.39v-2.72h17.07c8.99 0 13.48 2.75 13.48 8.27 0 4.19-2.32 7.13-6.96 8.8l5.65 10.2c1.25 2.28 2.74 3.68 4.47 4.19v2.72h-10.28l-8.13-15.89h-2.73v7.36l.12 3.4c0 .9.13 1.49.41 1.76.27.27 1.23.49 2.86.64v2.71H269.3zm35.33 0v-2.718c2.59 0 3.89-.802 3.89-2.406l.12-3.41v-17.12l-.13-3.433c0-1.59-1.3-2.39-3.9-2.39v-2.72h26.53v7.5h-2.72l-.03-.68v-1.93c0-1.45-1.24-2.18-3.72-2.18h-7.49v11.82h4.1l2.17-.08c1.02 0 1.54-.65 1.54-1.95v-.96h2.72v8.54H325v-1.08c0-1.22-.513-1.83-1.54-1.83l-2.17-.07-4.11-.03v8.56c0 2.35.14 3.91.42 4.67.27.76 1.666 1.13 4.18 1.13h1.96l3.19-.1c.99 0 1.565-.26 1.733-.77.165-.51.25-1.66.25-3.43v-.86H332v7.86h-27.39z"/>
  <path fill="#ed1c24" fill-rule="nonzero" d="M12.57 330.992v31.505c0 2.557.156 4.167.466 4.83.31.658 1.124.988 2.446.988 4.733 0 7.1-6.588 7.1-19.766 0-11.71-2.768-17.56-8.305-17.56H12.57zM0 371.034v-2.72c2.6 0 3.9-.8 3.9-2.406l.124-3.41V336.81l-.125-3.435c0-1.59-1.3-2.383-3.9-2.383v-2.72h18.29c4.18 0 7.47 1.847 9.9 5.537s3.63 8.71 3.63 15.08c0 6.66-1.25 12.02-3.74 16.07-2.49 4.04-5.79 6.07-9.88 6.07H0zm35.33 0v-2.72c2.598 0 3.898-.8 3.898-2.405l.126-3.41v-17.12l-.126-3.44c0-1.59-1.3-2.38-3.9-2.38v-2.72h26.53v7.5H59.14l-.026-.68v-1.93c0-1.46-1.24-2.18-3.72-2.18H47.9v11.81h4.11l2.167-.08c1.026 0 1.538-.65 1.538-1.95v-.95h2.72v8.54h-2.72v-1.08c0-1.22-.512-1.83-1.538-1.83l-2.167-.08-4.11-.02v8.56c0 2.35.14 3.91.415 4.67.276.76 1.67 1.14 4.185 1.14h1.96l3.19-.1c.99 0 1.567-.26 1.735-.77.167-.52.25-1.66.25-3.43v-.86h3.085V371H35.33zm61.94.34L84.7 336.81l-1.257-3.234c-.653-1.724-1.323-2.584-2.01-2.584v-2.72h15.003v2.72h-.675c-2.2 0-3.3.39-3.3 1.178 0 .582.46 2.128 1.38 4.632l7.84 21.476 7.49-21.464.78-2.31c.4-1.052.6-1.824.6-2.31 0-.785-.57-1.187-1.7-1.202h-2.18v-2.72h8.47v2.72c-.68 0-1.7 1.94-3.06 5.818l-12.06 34.564h-2.74zm35.338-2.04c3.74 0 5.612-5.213 5.612-15.645 0-10.12-1.912-15.17-5.737-15.17-3.808 0-5.71 5.12-5.71 15.37 0 10.29 1.943 15.44 5.835 15.44zm-.325 2.72c-4.53 0-8.122-1.637-10.78-4.91-2.656-3.275-3.984-7.684-3.984-13.23 0-5.61 1.33-10.034 4.01-13.265 2.67-3.24 6.32-4.85 10.95-4.85 4.63 0 8.28 1.61 10.96 4.85 2.68 3.23 4.02 7.63 4.02 13.21 0 5.69-1.35 10.15-4.04 13.36-2.69 3.21-6.41 4.82-11.16 4.82zm34.527-2.72c3.74 0 5.61-5.213 5.61-15.645 0-10.12-1.912-15.17-5.736-15.17-3.808 0-5.71 5.12-5.71 15.37 0 10.29 1.945 15.44 5.836 15.44zm-.326 2.72c-4.53 0-8.122-1.637-10.778-4.91-2.658-3.275-3.986-7.684-3.986-13.23 0-5.61 1.337-10.034 4.01-13.265 2.674-3.24 6.326-4.85 10.954-4.85 4.63 0 8.284 1.61 10.966 4.85 2.683 3.23 4.023 7.63 4.023 13.21 0 5.69-1.345 10.15-4.035 13.36-2.69 3.21-6.408 4.82-11.154 4.82zm31.25-32.49v12.86h1.36c5.384 0 8.077-2.302 8.077-6.907 0-3.968-2.38-5.952-7.14-5.952h-2.29zm-12.57 31.47v-2.72c2.6 0 3.9-.8 3.9-2.405l.125-3.41v-17.12l-.13-3.44c0-1.59-1.3-2.38-3.9-2.38v-2.72h17.07c8.99 0 13.48 2.76 13.48 8.27 0 4.19-2.32 7.12-6.96 8.8l5.65 10.2c1.25 2.28 2.74 3.68 4.47 4.19v2.72h-10.28l-8.13-15.9h-2.74v7.36l.13 3.4c0 .9.14 1.49.41 1.76.28.27 1.23.49 2.86.64V371h-15.97zm35.328-31.47v-2.72h16.414v2.72c-2.478 0-3.716.795-3.716 2.38l-.126 3.434v12.102c0 4.677.44 7.91 1.318 9.696.88 1.788 2.484 2.68 4.81 2.68 4.488 0 6.73-4.125 6.73-12.376v-12.102l-.125-3.434c0-1.452-1.248-2.246-3.742-2.38v-2.718h12.18v2.72c-2.583.132-3.874.926-3.874 2.378l-.15 3.433v12.098c0 9.718-4.15 14.578-12.47 14.578-8.81 0-13.22-4.86-13.22-14.578v-12.098l-.12-3.433c0-1.585-1.3-2.38-3.9-2.38zm53.08 31.47H256.95v-2.72c2.595 0 3.892-.8 3.892-2.405l.125-3.41v-17.12l-.125-3.44c0-1.59-1.297-2.38-3.893-2.38v-2.72h16.62v2.72c-2.6 0-3.9.79-3.9 2.38l-.13 3.43v17.12l.12 3.41c0 1.6 1.3 2.4 3.9 2.4v2.72zm6.98 0v-2.17c.27 0 .907-.042 1.913-.125 1.023-.09 1.63-.39 1.823-.92.193-.53.29-1.73.29-3.62v-23.93h-3.483c-1.687 0-2.635.28-2.843.85-.21.56-.323 1.76-.34 3.59v.67h-2.717v-8.55h27.313v8.54h-2.718v-.68c0-1.84-.105-3.03-.313-3.6-.21-.57-1.166-.85-2.87-.85h-3.482v23.94c0 1.88.096 3.09.29 3.62.192.52.8.83 1.823.91 1.022.08 1.66.12 1.912.12V371h-16.597zm41.714-14.402v-2.718h12.572v16.56c-4.896 1.053-8.814 1.58-11.754 1.58-5.598 0-10.022-1.625-13.272-4.874-3.25-3.25-4.875-7.67-4.875-13.266 0-12.075 6.166-18.114 18.497-18.114 3.66 0 7.46.502 11.404 1.504v7.043h-2.718l-.026-.677c0-3.434-2.652-5.15-7.958-5.15-3.548 0-6.07 1.17-7.568 3.51-1.498 2.34-2.247 6.302-2.247 11.884 0 10.28 3.04 15.42 9.11 15.42.69 0 1.65-.142 2.87-.427v-6.44l-.12-3.445c0-1.593-1.3-2.39-3.9-2.39zm24.274 1.934h8.902l-4.554-11.056-4.348 11.056zm-9.257 12.468v-2.72l.976-.124c1.15-.116 2.21-1.415 3.18-3.894l11.14-28.496h2.65l11.58 28.52c1 2.496 2.38 3.828 4.15 3.995v2.72h-15.05v-2.72c1.93 0 2.9-.3 2.9-.905 0-.334-.29-1.256-.88-2.764l-1.39-3.36h-11.09l-1.19 3.027c-.64 1.578-.96 2.576-.96 2.996 0 .65.8.99 2.39 1v2.72h-8.44zm35.3 0v-2.72c1.98 0 3.145-.345 3.497-1.04.35-.69.527-2.284.527-4.773v-17.12c0-2.49-.177-4.08-.527-4.77-.352-.69-1.518-1.04-3.498-1.04v-2.72h8.31l17.12 21.41V345.4l-.123-3.44c0-1.59-1.3-2.385-3.91-2.385v-2.72h12.33v2.72c-2.59 0-3.88.794-3.88 2.38l-.15 3.435v25.94H398l-17.12-21.654v12.83l.125 3.41c0 1.605 1.297 2.407 3.9 2.407v2.72h-12.33zm54.544-14.402v-2.718H439.7v16.56c-4.9 1.053-8.817 1.58-11.756 1.58-5.6 0-10.023-1.625-13.272-4.874-3.25-3.25-4.875-7.67-4.875-13.266 0-12.075 6.166-18.114 18.496-18.114 3.66 0 7.462.502 11.406 1.504v7.043h-2.72l-.03-.677c0-3.434-2.66-5.15-7.96-5.15-3.55 0-6.07 1.17-7.57 3.51s-2.25 6.302-2.25 11.884c0 10.28 3.03 15.42 9.1 15.42.69 0 1.64-.142 2.87-.427v-6.44l-.13-3.445c0-1.593-1.3-2.39-3.9-2.39z"/>
  <path fill="#231f20" fill-rule="nonzero" d="M98.78 432.052v-8.694h3.084c0 5.036 2.47 7.554 7.414 7.554 4.187 0 6.282-2.482 6.282-7.445-.013-2.923-1.733-5.47-5.16-7.642l-2.484-1.58c-6.053-3.84-9.082-8.324-9.084-13.448 0-3.622 1.116-6.52 3.35-8.7 2.236-2.176 5.21-3.265 8.927-3.265 2.91 0 6.25.634 10.01 1.902v7.69h-3.09c0-4.583-1.96-6.875-5.88-6.875-3.87 0-5.81 2.2-5.81 6.6 0 2.55 1.69 4.94 5.07 7.17l2.51 1.65c6.2 4.07 9.3 8.64 9.3 13.69 0 3.94-1.26 7.08-3.76 9.43-2.51 2.35-5.88 3.52-10.11 3.52-3.1 0-6.63-.53-10.59-1.58zm32.214.558v-2.17c.27 0 .907-.04 1.913-.124 1.023-.083 1.63-.388 1.824-.913.2-.526.29-1.732.29-3.62V401.85h-3.48c-1.69 0-2.63.283-2.84.85-.21.566-.32 1.765-.33 3.598v.674h-2.72v-8.547h27.32v8.547h-2.71v-.674c0-1.833-.1-3.032-.31-3.6-.21-.565-1.16-.848-2.87-.848h-3.48v23.936c0 1.887.1 3.093.29 3.62.19.524.8.83 1.83.912 1.03.085 1.66.125 1.91.125v2.17H131zm40.25 0h-16.622v-2.717c2.596 0 3.894-.803 3.894-2.407l.125-3.408v-17.12l-.12-3.434c0-1.588-1.3-2.382-3.89-2.382v-2.72h16.63v2.72c-2.6 0-3.9.794-3.9 2.382l-.12 3.434v17.12l.13 3.408c0 1.604 1.3 2.407 3.9 2.407v2.718zm15.294-16.388h1.458c5.318 0 7.977-2.717 7.977-8.154 0-4.618-2.448-6.926-7.347-6.926h-2.088v15.08zm0 2.72v5.137c0 2.58.145 4.15.438 4.68.29.53.97.85 2.036.95 1.134.11 1.842.17 2.126.17v2.72h-17.172v-2.72c2.6 0 3.9-.8 3.9-2.41l.125-3.41v-17.12l-.12-3.44c0-1.43-1.3-2.22-3.9-2.39v-2.72h16.85c9.14 0 13.71 3.07 13.71 9.2 0 7.54-5.42 11.32-16.27 11.32h-1.7zm54.796-20.52v2.72c-2.6 0-3.9.794-3.9 2.38l-.126 3.436v17.12l.126 3.408c0 1.604 1.3 2.407 3.9 2.407v2.718H228.76v-17.09h-8.598v17.1H207.59v-2.72c2.584 0 3.876-.8 3.876-2.4l.15-3.4v-17.12l-.15-3.43c0-1.59-1.292-2.38-3.876-2.38v-2.72h12.572v13.67h8.6v-5.13l-.126-3.43c0-1.58-1.29-2.38-3.874-2.38v-2.72h16.572zm18.56 32.49c3.74 0 5.61-5.216 5.61-15.646 0-10.113-1.912-15.17-5.735-15.17-3.81 0-5.72 5.125-5.72 15.37 0 10.3 1.94 15.446 5.83 15.446zm-.328 2.72c-4.527 0-8.12-1.638-10.777-4.912-2.66-3.274-3.99-7.683-3.99-13.23 0-5.61 1.34-10.03 4.01-13.264 2.67-3.232 6.32-4.848 10.95-4.848 4.62 0 8.28 1.616 10.96 4.848 2.68 3.233 4.02 7.638 4.02 13.216 0 5.694-1.35 10.15-4.04 13.366-2.69 3.215-6.41 4.823-11.16 4.823zm18.684-32.49v-2.72h16.414v2.72c-2.48 0-3.72.794-3.72 2.38l-.123 3.434v12.1c0 4.678.44 7.91 1.32 9.7.88 1.786 2.49 2.68 4.81 2.68 4.49 0 6.74-4.126 6.74-12.38v-12.1l-.12-3.434c0-1.452-1.24-2.246-3.74-2.38v-2.72H312v2.72c-2.585.134-3.876.926-3.876 2.38l-.15 3.43v12.1c0 9.718-4.157 14.58-12.47 14.58-8.815 0-13.222-4.862-13.222-14.58v-12.1l-.127-3.43c0-1.586-1.3-2.38-3.898-2.38zm40.713 31.468v-2.17c.27 0 .908-.04 1.914-.124 1.022-.083 1.63-.388 1.825-.913.192-.526.287-1.732.287-3.62V401.85h-3.49c-1.69 0-2.64.283-2.85.85-.21.566-.33 1.765-.34 3.598v.674h-2.71v-8.547h27.31v8.547h-2.72v-.674c0-1.833-.11-3.032-.32-3.6-.21-.565-1.16-.848-2.86-.848h-3.49v23.936c0 1.887.1 3.093.29 3.62.19.524.8.83 1.82.912 1.02.085 1.66.125 1.91.125v2.17h-16.6z"/>
  <path fill="#ed1c24" d="M109.425 110.494C109.425 49.508 158.863.07 219.85.07c60.986 0 110.424 49.438 110.424 110.424 0 60.986-49.438 110.425-110.425 110.425-60.99 0-110.43-49.44-110.43-110.43z"/>
  <path fill="#fff" fill-rule="nonzero" d="M210.768 59.387l-3.06 4.505-6.948-3.347c.07-.204.138-.41.207-.613.782.16 1.575.49 2.344.438 1.12-.073 2.23-.382 3.32-.66 1.7-.43 3.41-1.394 5.05-1.28 3.18.224 4.5 2.182 3.41 5.18-.88 2.424-2.23 4.893-4.03 6.674-.93.92-3.53.938-4.94.335-1.15-.5-1.66-2.51-2.53-3.99 3.79-1.29 3.32 1.63 4.24 2.91 4.02-1.6 5.51-6.13 2.95-10.16zM196.88 85.533c4.216-1.44 6.11-5.3 4.372-9.714l-3.833 4.06-6.46-4.41.3-.57c.82.32 1.63.82 2.48.92 1 .12 2.06 0 3.06-.18 1.46-.27 2.94-1.08 4.34-.94 3.7.37 5.15 2.64 3.57 5.96-1.06 2.23-2.72 4.42-4.68 5.88-1.08.8-3.6.55-4.94-.19-1.12-.62-1.46-2.64-2.25-4.24 4.1-1.05 3.04 2.17 4.01 3.4zm-8.466 16.627c4.216-1.442 6.11-5.3 4.372-9.715-1.338 1.418-2.513 2.664-3.833 4.06l-6.46-4.408.306-.568c.82.32 1.63.81 2.48.92 1 .12 2.06-.01 3.06-.19 1.46-.27 2.94-1.08 4.34-.94 3.7.37 5.15 2.64 3.57 5.96-1.07 2.23-2.72 4.43-4.68 5.88-1.08.8-3.6.55-4.94-.19-1.12-.62-1.46-2.64-2.24-4.24 4.1-1.05 3.04 2.18 4.01 3.4z"/>
  <path fill="#fff" fill-rule="nonzero" d="M231.13 17.43l-9.985-3.582s-12.247 25.767-37.216 25.737c0 0-7.93.367-7.92-8.44l-10.28-.012s6.11 30.287 40.22 8.53c0 0-46.54 49.973-50.5 103.12 0 0-3.26 70.508 57.35 36.982 0 0 13.22-6.88 18.7-6.908 0 0-5.02-3.437-8.71-11.54 0 0-31.14 34.04-47.82 11.223-16.68-22.818-9.19-73.355 56.12-155.11z"/>
  <path fill="#fff" fill-rule="nonzero" d="M219.935 132.075s8.587 46.234 28.696 36.308c0 0 19.44-5.295-4.58-53.965 0 0-12-21.592-23.81-15.764 0 0-5.28 2.574-6.3 11.5-1.02 8.928-.78 13.082-7.7 16.498-6.92 3.415-18.7-1.84-25.34-15.3 0 0 .66 27.39 27.31 22.036 0 0 12.89-3.794 13.21-17.414 0 0-.01-5.75 2.41-6.944s8.99-5.02 18.6 20.115c9.62 25.136 4.93 29.716 3.23 31.462-1.7 1.746-12.18 3.146-25.71-28.532zm35.202-31.855s-.008-5.75 2.41-6.944c2.42-1.194 8.992-5.02 18.603 20.115 9.612 25.14 4.928 29.72 3.223 31.47s-12.188 3.15-25.71-28.53c0 0 8.588 46.24 28.697 36.31 0 0 19.438-5.29-4.584-53.96 0 0-12.004-21.59-23.812-15.76 0 0-5.28 2.58-6.3 11.5 0 0-.444 9.85 4.982 19.56 0 0 3.886-2.77 2.49-13.73z"/>
  <path fill="#fff" d="M286.863 72.016h1.028s1.5 1.497 3.87 3.742c2.37 2.247 3.11 5.728.38 8.734-1.25 1.372.5-1.872.5-2.87s-1.99-5.49-4.36-5.49v10.23c0 1.5-1.5 3.12-3.87 3.12s-3.87-1.746-3.12-4.24c.55-1.81 4.24-2.372 5.62-.626l-.03-12.6zm8.577 9.76l.033 10.854c-1.373-1.747-5.073-1.183-5.614.625-.75 2.495.74 4.242 3.11 4.242s3.87-1.622 3.87-3.12v-12.6h-1.41zm-13.89-31.234v-1.126l6.838 1.902v1.125l-6.837-1.9zm-1.402-3.51l.03 11.743c-1.373-1.747-5.07-1.186-5.613.623-.75 2.496.748 4.242 3.118 4.242 2.372 0 3.868-1.622 3.868-3.118v-7.9l6.85 1.903.02 6.62c-1.37-1.747-5.07-1.184-5.61.624-.75 2.49.75 4.24 3.12 4.24s3.87-1.63 3.87-3.12V49.68l-9.63-2.647z"/>
  <path fill="#fff" fill-rule="nonzero" d="M229.825 203.618l-2.712 1.23-.637-1.682 3.542-1.523 1.708-.183 1.296 12.07-2.108.227-1.09-10.14zm14.945 2.58l-.097-.547c-.517-2.85-2.135-4.74-4.4-4.23-1.6.36-2.69 1.96-2.226 4 .427 1.9 1.7 3.06 3.718 2.6 1.183-.27 2.31-.88 3.006-1.82zm-6.437 9.634c2.413-.547 4.52-1.748 5.675-3.51.835-1.224 1.2-2.704 1.006-4.472-.943 1.094-1.997 1.694-3.203 1.968-2.95.668-5.31-.97-5.96-3.85-.65-2.857 1.11-5.61 4.14-6.294 4.04-.914 6.23 2.472 6.98 5.77 1.33 5.86-1.44 10.55-7.82 11.99l-.8-1.602zm12.687-6.997c1.317-2.303 4.766-7.62 3.92-9.865-.398-1.064-1.36-1.538-2.825-.987-.97.365-1.95 1.274-2.432 2.427l-1.568-.867c.617-1.446 2.028-2.786 3.54-3.356 2.245-.844 4.48-.5 5.315 1.722.97 2.57-1.652 6.71-2.888 8.88.015-.04.72-.38 1.31-.6l5.224-1.97.63 1.67-9.922 3.73-.303-.81zm11.024-14.72l-2.1 2.116-1.193-1.34 2.78-2.68 1.53-.78 5.51 10.84-1.89.96-4.62-9.1zM273 190.15l4.265-3.026 1.052 1.483-4.266 3.025-1.05-1.483zm15.686-2.854c.255-2.64 1.212-8.904-.48-10.602-.802-.805-1.873-.843-2.98.262-.735.73-1.255 1.962-1.222 3.21l-1.785-.144c-.04-1.572.7-3.372 1.84-4.513 1.7-1.7 3.87-2.3 5.55-.62 1.94 1.95 1.25 6.8 1.02 9.28 0-.04.5-.64.95-1.09l3.95-3.94 1.26 1.26-7.51 7.48-.61-.61zm11.83-21.356c-2.04-1.53-4.51-1.648-6.084.45-1.59 2.12-.79 4.33 1.27 5.877 2.06 1.546 4.498 1.704 6.09-.416 1.574-2.09.782-4.36-1.277-5.91zm-6.153 8.195c-2.32-1.743-3.94-5.39-1.334-8.86 2.59-3.452 6.44-2.99 8.82-1.203 2.34 1.758 3.93 5.444 1.34 8.895-2.61 3.473-6.49 2.925-8.83 1.168zm13.307-9.537c-.503-2.605-1.363-8.885-3.467-10.034-.998-.544-2.035-.277-2.786 1.097-.496.91-.647 2.24-.26 3.43l-1.753.37c-.478-1.49-.28-3.43.492-4.85 1.15-2.1 3.07-3.3 5.15-2.16 2.417 1.32 3.134 6.17 3.612 8.62-.01-.03.3-.75.6-1.31l2.673-4.9 1.58.86-5.08 9.31-.75-.41zm-1.242-18.323l-.213 2.97-1.782-.245.353-3.84.653-1.585 11.22 4.624-.81 1.96-9.43-3.89z"/>
  <clipPath id="a">
    <path d="M109.425 588.576c0-60.986 49.438-110.425 110.424-110.425 60.98 0 110.42 49.44 110.42 110.43 0 60.98-49.44 110.42-110.42 110.42-60.99 0-110.43-49.44-110.43-110.42z"/>
  </clipPath>
  <g fill-rule="nonzero" clip-path="url(#a)">
    <path fill="#e6e7e8" d="M219.847 445.9h113.387v139.623H219.847z"/>
    <path fill="#e6e7e8" d="M333.234 585.523s-109.18-4.188-109.81-4.704c-.63-.52-3.577-134.92-3.577-134.92h113.387v139.62z"/>
    <path fill="#e5e6e7" d="M333.234 585.523S228.26 577.146 227 576.116c-1.26-1.03-7.153-130.215-7.153-130.215h113.387v139.63z"/>
    <path fill="#e4e5e6" d="M333.234 585.523s-100.767-12.565-102.656-14.11c-1.89-1.547-10.73-125.512-10.73-125.512h113.386v139.63z"/>
    <path fill="#e3e4e5" d="M333.234 585.523s-96.56-16.754-99.08-18.814c-2.52-2.07-14.307-120.81-14.307-120.81h113.387v139.62z"/>
    <path fill="#e3e4e5" d="M333.234 585.523s-92.353-20.942-95.502-23.518c-3.15-2.578-17.885-116.104-17.885-116.104h113.387v139.63z"/>
    <path fill="#e2e3e4" d="M333.234 585.523s-88.147-25.13-91.926-28.222c-3.78-3.09-21.46-111.4-21.46-111.4h113.386v139.63z"/>
    <path fill="#e1e2e3" d="M333.234 585.523s-83.94-29.318-88.35-32.926c-4.408-3.607-25.037-106.696-25.037-106.696h113.387v139.63z"/>
    <path fill="#e0e1e2" d="M333.234 585.523s-79.732-33.507-84.772-37.63c-5.04-4.122-28.615-101.992-28.615-101.992h113.387v139.63z"/>
    <path fill="#dfe0e1" d="M333.234 585.523s-75.525-37.695-81.194-42.333c-5.67-4.64-32.193-97.29-32.193-97.29h113.387v139.623z"/>
    <path fill="#dedfe1" d="M333.234 585.523s-71.32-41.884-77.617-47.036c-6.3-5.154-35.77-92.586-35.77-92.586h113.387v139.63z"/>
    <path fill="#dedfe0" d="M333.234 585.523s-67.112-46.072-74.04-51.74c-6.93-5.67-39.347-87.882-39.347-87.882h113.387v139.63z"/>
    <path fill="#dddedf" d="M333.234 585.523s-62.905-50.26-70.464-56.443c-7.558-6.186-42.923-83.18-42.923-83.18h113.387v139.623z"/>
    <path fill="#dcddde" d="M333.234 585.523s-58.698-54.45-66.887-61.147c-8.188-6.7-46.5-78.475-46.5-78.475h113.387v139.63z"/>
    <path fill="#dbdcde" d="M333.234 585.523s-54.49-58.637-63.31-65.85c-8.82-7.216-50.077-73.772-50.077-73.772h113.387v139.63z"/>
    <path fill="#dadbdd" d="M333.234 585.523S282.95 522.7 273.5 514.968c-9.447-7.73-53.653-69.067-53.653-69.067h113.387v139.63z"/>
    <path fill="#d9dbdc" d="M333.234 585.523s-46.078-67.014-56.156-75.26c-10.078-8.245-57.23-64.362-57.23-64.362h113.386v139.63z"/>
    <path fill="#d9dadb" d="M333.234 585.523s-41.87-71.202-52.58-79.962c-10.707-8.76-60.807-59.66-60.807-59.66h113.387v139.63z"/>
    <path fill="#d8d9da" d="M333.234 585.523s-37.664-75.39-49.002-84.666c-11.338-9.276-64.385-54.956-64.385-54.956h113.387v139.63z"/>
    <path fill="#d7d8da" d="M333.234 585.523s-33.458-79.58-45.425-89.37c-11.97-9.793-67.97-50.253-67.97-50.253h113.39v139.63z"/>
    <path fill="#d6d7d9" d="M333.234 585.523s-29.25-83.767-41.85-94.073c-12.595-10.308-71.537-45.55-71.537-45.55h113.387v139.623z"/>
    <path fill="#d5d7d8" d="M333.234 585.523s-25.044-87.956-38.272-98.776c-13.227-10.824-75.115-40.846-75.115-40.846h113.387v139.63z"/>
    <path fill="#d4d6d7" d="M333.234 585.523s-20.837-92.143-34.694-103.48c-13.858-11.338-78.693-36.142-78.693-36.142h113.387v139.63z"/>
    <path fill="#d4d5d7" d="M333.234 585.523s-16.63-96.332-31.117-108.183c-14.488-11.855-82.27-31.44-82.27-31.44h113.387v139.623z"/>
    <path fill="#d3d4d6" d="M333.234 585.523s-12.424-100.52-27.54-112.888c-15.117-12.37-85.847-26.734-85.847-26.734h113.387v139.63z"/>
    <path fill="#d2d3d5" d="M333.234 585.523s-8.217-104.71-23.964-117.59c-15.746-12.885-89.423-22.032-89.423-22.032h113.387v139.63z"/>
    <path fill="#d1d3d4" d="M333.234 585.523V445.9H219.847s76.623 3.93 93 17.328c16.377 13.398 20.387 122.295 20.387 122.295z"/>
    <path fill="#ed1c24" d="M106.465 445.9h113.382v139.623H106.465z"/>
    <path fill="#ec1c24" d="M106.465 585.523V445.9h113.382s-1.18 137.535-1.43 137.74c-.253.207-111.952 1.883-111.952 1.883z"/>
    <path fill="#eb1c24" d="M106.465 585.523V445.9h113.382s-2.358 135.447-2.862 135.86c-.503.413-110.52 3.763-110.52 3.763z"/>
    <path fill="#ea1c23" d="M106.465 585.523V445.9h113.382s-3.536 133.36-4.292 133.98c-.756.617-109.09 5.643-109.09 5.643z"/>
    <path fill="#ea1b23" d="M106.465 585.523V445.9h113.382s-4.715 131.273-5.723 132.097c-1.008.825-107.66 7.526-107.66 7.526z"/>
    <path fill="#e91b23" d="M106.465 585.523V445.9h113.382s-5.894 129.185-7.154 130.216c-1.26 1.03-106.228 9.407-106.228 9.407z"/>
    <path fill="#e81b23" d="M106.465 585.523V445.9h113.382s-7.073 127.097-8.585 128.334c-1.51 1.236-104.797 11.29-104.797 11.29z"/>
    <path fill="#e71b23" d="M106.465 585.523V445.9h113.382s-8.252 125.01-10.015 126.452c-1.764 1.444-103.367 13.17-103.367 13.17z"/>
    <path fill="#e61b23" d="M106.465 585.523V445.9h113.382s-9.43 122.922-11.446 124.57c-2.01 1.65-101.93 15.053-101.93 15.053z"/>
    <path fill="#e51b22" d="M106.465 585.523V445.9h113.382s-10.61 120.834-12.877 122.69c-2.267 1.855-100.505 16.933-100.505 16.933z"/>
    <path fill="#e41b22" d="M106.465 585.523V445.9h113.382S208.06 564.648 205.54 566.71c-2.52 2.06-99.075 18.813-99.075 18.813z"/>
    <path fill="#e31a22" d="M106.465 585.523V445.9h113.382s-12.967 116.66-15.74 118.927c-2.77 2.267-97.642 20.696-97.642 20.696z"/>
    <path fill="#e21a22" d="M106.465 585.523V445.9h113.382s-14.146 114.57-17.17 117.045c-3.022 2.474-96.212 22.578-96.212 22.578z"/>
    <path fill="#e11a22" d="M106.465 585.523V445.9h113.382s-15.324 112.484-18.6 115.164c-3.275 2.68-94.782 24.46-94.782 24.46z"/>
    <path fill="#e01a22" d="M106.465 585.523V445.9h113.382s-16.504 110.397-20.03 113.282c-3.527 2.886-93.352 26.34-93.352 26.34z"/>
    <path fill="#df1a21" d="M106.465 585.523V445.9h113.382s-17.682 108.31-21.462 111.4c-3.778 3.093-91.92 28.223-91.92 28.223z"/>
    <path fill="#de1a21" d="M106.465 585.523V445.9h113.382s-18.86 106.22-22.892 109.52c-4.03 3.297-90.49 30.103-90.49 30.103z"/>
    <path fill="#de1a21" d="M106.465 585.523V445.9h113.382s-20.04 104.134-24.323 107.638c-4.283 3.504-89.06 31.985-89.06 31.985z"/>
    <path fill="#dd1a21" d="M106.465 585.523V445.9h113.382s-21.218 102.046-25.754 105.757c-4.534 3.71-87.628 33.866-87.628 33.866z"/>
    <path fill="#dc1921" d="M106.465 585.523V445.9h113.382s-22.398 99.958-27.184 103.875c-4.787 3.916-86.198 35.748-86.198 35.748z"/>
    <path fill="#db1921" d="M106.465 585.523V445.9h113.382s-23.576 97.87-28.615 101.994c-5.04 4.122-84.767 37.63-84.767 37.63z"/>
    <path fill="#db1921" d="M106.465 585.523V445.9h113.382s-24.755 95.783-30.046 100.112c-5.29 4.328-83.33 39.51-83.33 39.51z"/>
    <path fill="#da1920" d="M106.465 585.523V445.9h113.382s-25.934 93.695-31.477 98.23c-5.542 4.536-81.905 41.393-81.905 41.393z"/>
    <path fill="#d91920" d="M106.465 585.523V445.9h113.382s-27.113 91.607-32.907 96.35c-5.794 4.74-80.475 43.273-80.475 43.273z"/>
    <path fill="#d81920" d="M106.465 585.523V445.9h113.382s-28.292 89.52-34.338 94.468c-6.05 4.947-79.05 45.155-79.05 45.155z"/>
    <path fill="#d81920" d="M106.465 585.523V445.9h113.382s-29.47 87.433-35.77 92.587c-6.297 5.152-77.612 47.036-77.612 47.036z"/>
    <path fill="#d71920" d="M106.465 585.523V445.9h113.382s-30.65 85.345-37.2 90.705c-6.55 5.36-76.182 48.918-76.182 48.918z"/>
    <path fill="#d71920" d="M106.465 585.523V445.9h113.382s-31.828 83.258-38.63 88.823c-6.802 5.566-74.752 50.8-74.752 50.8z"/>
    <path fill="#d61820" d="M106.465 585.523V445.9h113.382s-33.007 81.17-40.06 86.942c-7.055 5.77-73.322 52.68-73.322 52.68z"/>
    <path fill="#d51820" d="M106.465 585.523V445.9h113.382s-34.186 79.082-41.492 85.06c-7.306 5.978-71.89 54.563-71.89 54.563z"/>
    <path fill="#d51820" d="M106.465 585.523V445.9h113.382s-35.364 76.994-42.923 83.18c-7.557 6.182-70.46 56.443-70.46 56.443z"/>
    <path fill="#d4181f" d="M106.465 585.523V445.9h113.382s-36.543 74.907-44.354 81.298c-7.81 6.39-69.028 58.325-69.028 58.325z"/>
    <path fill="#d3181f" d="M106.465 585.523V445.9h113.382s-37.722 72.82-45.784 79.416c-8.06 6.596-67.598 60.207-67.598 60.207z"/>
    <path fill="#d2181f" d="M106.465 585.523V445.9h113.382s-38.9 70.732-47.215 77.536c-8.313 6.8-66.167 62.087-66.167 62.087z"/>
    <path fill="#d2181f" d="M106.465 585.523V445.9h113.382s-40.08 68.645-48.646 75.653c-8.56 7.008-64.73 63.97-64.73 63.97z"/>
    <path fill="#d1181f" d="M106.465 585.523V445.9h113.382s-41.26 66.557-50.077 73.773c-8.817 7.213-63.305 65.85-63.305 65.85z"/>
    <path fill="#d0171f" d="M106.465 585.523V445.9h113.382s-42.437 64.47-51.508 71.89c-9.07 7.42-61.88 67.733-61.88 67.733z"/>
    <path fill="#cf171e" d="M106.465 585.523V445.9h113.382s-43.616 62.38-52.938 70.01c-9.33 7.625-60.45 69.613-60.45 69.613z"/>
    <path fill="#cf171e" d="M106.465 585.523V445.9h113.382s-44.795 60.294-54.37 68.128c-9.572 7.832-59.012 71.495-59.012 71.495z"/>
    <path fill="#ce171e" d="M106.465 585.523V445.9h113.382s-45.974 58.206-55.8 66.247c-9.824 8.037-57.582 73.376-57.582 73.376z"/>
    <path fill="#cd171e" d="M106.465 585.523V445.9h113.382s-47.153 56.118-57.23 64.364c-10.077 8.245-56.152 75.26-56.152 75.26z"/>
    <path fill="#cc171e" d="M106.465 585.523V445.9h113.382s-48.33 54.03-58.66 62.483c-10.33 8.45-54.722 77.14-54.722 77.14z"/>
    <path fill="#cc171d" d="M106.465 585.523V445.9h113.382s-49.51 51.943-60.092 60.602c-10.58 8.658-53.29 79.02-53.29 79.02z"/>
    <path fill="#cb161d" d="M106.465 585.523V445.9h113.382s-50.69 49.856-61.523 58.72c-10.832 8.863-51.86 80.903-51.86 80.903z"/>
    <path fill="#ca161d" d="M106.465 585.523V445.9h113.382s-51.868 47.768-62.954 56.84c-11.084 9.068-50.428 82.783-50.428 82.783z"/>
    <path fill="#c9161d" d="M106.465 585.523V445.9h113.382s-53.047 45.68-64.385 54.957c-11.335 9.275-48.997 84.666-48.997 84.666z"/>
    <path fill="#c9161d" d="M106.465 585.523V445.9h113.382s-54.225 43.593-65.815 53.076c-11.588 9.482-47.567 86.547-47.567 86.547z"/>
    <path fill="#c8161d" d="M106.465 585.523V445.9h113.382s-55.405 41.505-67.246 51.194c-11.84 9.688-46.13 88.43-46.13 88.43z"/>
    <path fill="#c7161c" d="M106.465 585.523V445.9h113.382s-56.583 39.418-68.676 49.314c-12.09 9.892-44.7 90.31-44.7 90.31z"/>
    <path fill="#c6161c" d="M106.465 585.523V445.9h113.382s-57.762 37.33-70.108 47.432c-12.35 10.1-43.28 92.19-43.28 92.19z"/>
    <path fill="#c6151c" d="M106.465 585.523V445.9h113.382s-58.94 35.242-71.538 45.55c-12.6 10.306-41.85 94.073-41.85 94.073z"/>
    <path fill="#c5151c" d="M106.465 585.523V445.9h113.382s-60.12 33.154-72.97 43.67c-12.847 10.51-40.412 95.953-40.412 95.953z"/>
    <path fill="#c4151c" d="M106.465 585.523V445.9h113.382s-61.3 31.067-74.4 41.787c-13.1 10.718-38.982 97.836-38.982 97.836z"/>
    <path fill="#c3151b" d="M106.465 585.523V445.9h113.382s-62.477 28.98-75.83 39.906c-13.353 10.924-37.552 99.717-37.552 99.717z"/>
    <path fill="#c3151b" d="M106.465 585.523V445.9h113.382s-63.656 26.892-77.26 38.024c-13.604 11.13-36.122 101.6-36.122 101.6z"/>
    <path fill="#c2151b" d="M106.465 585.523V445.9h113.382s-64.835 24.805-78.692 36.143c-13.855 11.337-34.69 103.48-34.69 103.48z"/>
    <path fill="#c1141b" d="M106.465 585.523V445.9h113.382s-66.014 22.717-80.123 34.262c-14.107 11.542-33.26 105.36-33.26 105.36z"/>
    <path fill="#c0141b" d="M106.465 585.523V445.9h113.382s-67.193 20.63-81.553 32.38c-14.36 11.75-31.83 107.243-31.83 107.243z"/>
    <path fill="#c0141a" d="M106.465 585.523V445.9h113.382s-68.37 18.54-82.984 30.498c-14.61 11.955-30.398 109.125-30.398 109.125z"/>
    <path fill="#bf141a" d="M106.465 585.523V445.9h113.382s-69.55 16.454-84.415 28.617c-14.863 12.16-28.967 111.006-28.967 111.006z"/>
    <path fill="#be141a" d="M106.465 585.523V445.9h113.382s-70.73 14.366-85.846 26.735c-15.11 12.368-27.53 112.888-27.53 112.888z"/>
    <path fill="#bd131a" d="M106.465 585.523V445.9h113.382s-71.908 12.278-87.277 24.855c-15.366 12.572-26.105 114.768-26.105 114.768z"/>
    <path fill="#bd131a" d="M106.465 585.523V445.9h113.382s-73.087 10.19-88.707 22.973c-15.62 12.78-24.675 116.65-24.675 116.65z"/>
    <path fill="#bc1319" d="M106.465 585.523V445.9h113.382s-74.265 8.104-90.138 21.09c-15.88 12.986-23.25 118.533-23.25 118.533z"/>
    <path fill="#bb1319" d="M106.465 585.523V445.9h113.382s-75.444 6.016-91.57 19.21c-16.12 13.19-21.812 120.413-21.812 120.413z"/>
    <path fill="#ba1319" d="M106.465 585.523V445.9h113.382s-76.623 3.93-93 17.328c-16.374 13.398-20.382 122.295-20.382 122.295z"/>
    <path fill="#e6e7e8" d="M106.465 585.523h113.382v139.622H106.465z"/>
    <path fill="#e6e7e8" d="M106.465 585.523s109.175 4.19 109.805 4.703c.63.516 3.577 134.92 3.577 134.92H106.465V585.522z"/>
    <path fill="#e5e6e7" d="M106.465 585.523s104.97 8.377 106.228 9.407c1.26 1.032 7.154 130.215 7.154 130.215H106.465V585.523z"/>
    <path fill="#e4e5e6" d="M106.465 585.523s100.762 12.566 102.65 14.11c1.89 1.547 10.732 125.512 10.732 125.512H106.465V585.523z"/>
    <path fill="#e3e4e5" d="M106.465 585.523s96.555 16.754 99.074 18.815c2.52 2.06 14.3 120.807 14.3 120.807H106.46V585.523z"/>
    <path fill="#e3e4e5" d="M106.465 585.523s92.35 20.942 95.497 23.52c3.15 2.576 17.885 116.102 17.885 116.102H106.465V585.523z"/>
    <path fill="#e2e3e4" d="M106.465 585.523s88.142 25.13 91.92 28.223c3.78 3.092 21.462 111.4 21.462 111.4H106.465V585.522z"/>
    <path fill="#e1e2e3" d="M106.465 585.523s83.935 29.32 88.344 32.926c4.4 3.6 25.03 106.69 25.03 106.69H106.46V585.52z"/>
    <path fill="#e0e1e2" d="M106.465 585.523s79.728 33.508 84.767 37.63c5.04 4.123 28.615 101.992 28.615 101.992H106.465V585.523z"/>
    <path fill="#dfe0e1" d="M106.465 585.523s75.522 37.696 81.19 42.334c5.67 4.638 32.192 97.288 32.192 97.288H106.465V585.523z"/>
    <path fill="#dedfe1" d="M106.465 585.523s71.315 41.885 77.613 47.037c6.3 5.155 35.77 92.585 35.77 92.585H106.464V585.523z"/>
    <path fill="#dedfe0" d="M106.465 585.523s67.108 46.073 74.036 51.74c6.93 5.67 39.35 87.882 39.35 87.882H106.47V585.523z"/>
    <path fill="#dddedf" d="M106.465 585.523s62.902 50.262 70.46 56.444c7.558 6.185 42.922 83.178 42.922 83.178H106.465V585.523z"/>
    <path fill="#dcddde" d="M106.465 585.523s58.695 54.45 66.882 61.15c8.188 6.7 46.5 78.472 46.5 78.472H106.465V585.523z"/>
    <path fill="#dbdcde" d="M106.465 585.523s54.488 58.64 63.305 65.853c8.818 7.214 50.077 73.77 50.077 73.77H106.465V585.522z"/>
    <path fill="#dadbdd" d="M106.465 585.523s50.282 62.826 59.728 70.556c9.448 7.73 53.654 69.06 53.654 69.06H106.465V585.52z"/>
    <path fill="#d9dbdc" d="M106.465 585.523s46.075 67.015 56.15 75.26c10.08 8.246 57.232 64.362 57.232 64.362H106.465V585.523z"/>
    <path fill="#d9dadb" d="M106.465 585.523s41.868 71.203 52.575 79.964c10.707 8.76 60.807 59.658 60.807 59.658H106.465V585.523z"/>
    <path fill="#d8d9da" d="M106.465 585.523s37.662 75.392 48.997 84.667c11.338 9.277 64.385 54.955 64.385 54.955H106.465V585.523z"/>
    <path fill="#d7d8da" d="M106.465 585.523s33.455 79.58 45.42 89.37c11.968 9.793 67.962 50.252 67.962 50.252H106.465V585.523z"/>
    <path fill="#d6d7d9" d="M106.465 585.523s29.248 83.77 41.844 94.075c12.59 10.307 71.53 45.547 71.53 45.547H106.46V585.523z"/>
    <path fill="#d5d7d8" d="M106.465 585.523s25.04 87.957 38.267 98.778c13.227 10.83 75.115 40.85 75.115 40.85H106.465V585.53z"/>
    <path fill="#d4d6d7" d="M106.465 585.523s20.835 92.146 34.69 103.483c13.857 11.337 78.692 36.14 78.692 36.14H106.465V585.522z"/>
    <path fill="#d4d5d7" d="M106.465 585.523s16.628 96.334 31.113 108.187c14.487 11.853 82.27 31.435 82.27 31.435H106.464V585.523z"/>
    <path fill="#d3d4d6" d="M106.465 585.523s12.42 100.523 27.536 112.89c15.12 12.37 85.85 26.732 85.85 26.732H106.47V585.523z"/>
    <path fill="#d2d3d5" d="M106.465 585.523s8.215 104.71 23.958 117.594c15.748 12.884 89.424 22.028 89.424 22.028H106.465V585.523z"/>
    <path fill="#d1d3d4" d="M106.465 585.523v139.622h113.382s-76.623-3.925-93-17.325c-16.374-13.397-20.382-122.297-20.382-122.297z"/>
    <path fill="#ed1c24" d="M219.847 585.523h113.387v139.622H219.847z"/>
    <path fill="#ec1c24" d="M333.234 725.145H219.847s1.18-137.534 1.43-137.74c.253-.207 111.957-1.882 111.957-1.882v139.622z"/>
    <path fill="#eb1c24" d="M333.234 725.145H219.847s2.358-135.447 2.862-135.86c.5-.41 110.52-3.762 110.52-3.762v139.622z"/>
    <path fill="#ea1c23" d="M333.234 725.145H219.847s3.536-133.36 4.292-133.977c.75-.62 109.09-5.645 109.09-5.645v139.622z"/>
    <path fill="#ea1b23" d="M333.234 725.145H219.847s4.715-131.27 5.723-132.097c1.008-.824 107.664-7.525 107.664-7.525v139.622z"/>
    <path fill="#e91b23" d="M333.234 725.145H219.847S225.74 595.962 227 594.93c1.26-1.03 106.234-9.407 106.234-9.407v139.622z"/>
    <path fill="#e81b23" d="M333.234 725.145H219.847s7.073-127.097 8.584-128.333c1.52-1.237 104.81-11.29 104.81-11.29v139.623z"/>
    <path fill="#e71b23" d="M333.234 725.145H219.847s8.252-125.01 10.016-126.452c1.763-1.442 103.37-13.17 103.37-13.17v139.622z"/>
    <path fill="#e61b23" d="M333.234 725.145H219.847s9.43-122.92 11.447-124.57c2.015-1.65 101.94-15.052 101.94-15.052v139.622z"/>
    <path fill="#e51b22" d="M333.234 725.145H219.847s10.61-120.833 12.877-122.688c2.268-1.856 100.51-16.934 100.51-16.934v139.622z"/>
    <path fill="#e41b22" d="M333.234 725.145H219.847s11.788-118.746 14.308-120.807c2.52-2.06 99.08-18.815 99.08-18.815v139.622z"/>
    <path fill="#e31a22" d="M333.234 725.145H219.847s12.967-116.658 15.74-118.926c2.77-2.27 97.647-20.7 97.647-20.7v139.62z"/>
    <path fill="#e21a22" d="M333.234 725.145H219.847s14.146-114.57 17.17-117.044c3.023-2.47 96.217-22.57 96.217-22.57v139.62z"/>
    <path fill="#e11a22" d="M333.234 725.145H219.847s15.324-112.482 18.6-115.163c3.275-2.68 94.787-24.46 94.787-24.46v139.623z"/>
    <path fill="#e01a22" d="M333.234 725.145H219.847s16.503-110.395 20.03-113.28c3.528-2.887 93.357-26.342 93.357-26.342v139.622z"/>
    <path fill="#df1a21" d="M333.234 725.145H219.847s17.682-108.307 21.46-111.4c3.78-3.09 91.927-28.222 91.927-28.222v139.622z"/>
    <path fill="#de1a21" d="M333.234 725.145H219.847s18.862-106.22 22.893-109.518c4.03-3.298 90.494-30.104 90.494-30.104v139.622z"/>
    <path fill="#de1a21" d="M333.234 725.145H219.847s20.04-104.132 24.324-107.637c4.29-3.503 89.07-31.985 89.07-31.985v139.622z"/>
    <path fill="#dd1a21" d="M333.234 725.145H219.847S241.067 623.1 245.6 619.39c4.536-3.71 87.634-33.867 87.634-33.867v139.622z"/>
    <path fill="#dc1921" d="M333.234 725.145H219.847s22.398-99.957 27.185-103.874c4.787-3.91 86.202-35.74 86.202-35.74v139.62z"/>
    <path fill="#db1921" d="M333.234 725.145H219.847s23.576-97.87 28.615-101.992c5.04-4.122 84.772-37.63 84.772-37.63v139.622z"/>
    <path fill="#db1921" d="M333.234 725.145H219.847s24.755-95.78 30.046-100.11c5.29-4.33 83.34-39.512 83.34-39.512v139.622z"/>
    <path fill="#da1920" d="M333.234 725.145H219.847s25.934-93.694 31.477-98.23c5.543-4.533 81.91-41.392 81.91-41.392v139.622z"/>
    <path fill="#d91920" d="M333.234 725.145H219.847s27.113-91.606 32.907-96.347c5.795-4.742 80.48-43.275 80.48-43.275v139.622z"/>
    <path fill="#d81920" d="M333.234 725.145H219.847s28.292-89.518 34.338-94.466c6.047-4.95 79.05-45.16 79.05-45.16v139.62z"/>
    <path fill="#d81920" d="M333.234 725.145H219.847s29.47-87.43 35.77-92.585c6.298-5.152 77.617-47.037 77.617-47.037v139.622z"/>
    <path fill="#d71920" d="M333.234 725.145H219.847s30.65-85.344 37.2-90.703c6.55-5.36 76.187-48.92 76.187-48.92v139.623z"/>
    <path fill="#d71920" d="M333.234 725.145H219.847s31.828-83.256 38.63-88.822c6.804-5.565 74.757-50.8 74.757-50.8v139.622z"/>
    <path fill="#d61820" d="M333.234 725.145H219.847s33.007-81.168 40.062-86.94c7.05-5.772 73.32-52.682 73.32-52.682v139.622z"/>
    <path fill="#d51820" d="M333.234 725.145H219.847s34.186-79.08 41.49-85.058c7.31-5.978 71.897-54.564 71.897-54.564v139.622z"/>
    <path fill="#d51820" d="M333.234 725.145H219.847s35.365-76.993 42.923-83.178c7.56-6.182 70.464-56.444 70.464-56.444v139.622z"/>
    <path fill="#d4181f" d="M333.234 725.145H219.847S256.39 650.24 264.2 643.85c7.81-6.39 69.034-58.327 69.034-58.327v139.622z"/>
    <path fill="#d3181f" d="M333.234 725.145H219.847s37.722-72.817 45.784-79.414c8.07-6.59 67.61-60.2 67.61-60.2v139.62z"/>
    <path fill="#d2181f" d="M333.234 725.145H219.847s38.902-70.73 47.215-77.533c8.315-6.802 66.172-62.09 66.172-62.09v139.623z"/>
    <path fill="#d2181f" d="M333.234 725.145H219.847s40.08-68.642 48.647-75.65c8.565-7.01 64.74-63.972 64.74-63.972v139.622z"/>
    <path fill="#d1181f" d="M333.234 725.145H219.847s41.258-66.555 50.077-73.77c8.82-7.213 63.31-65.852 63.31-65.852v139.622z"/>
    <path fill="#d0171f" d="M333.234 725.145H219.847s42.438-64.467 51.508-71.888c9.07-7.42 61.88-67.734 61.88-67.734v139.622z"/>
    <path fill="#cf171e" d="M333.234 725.145H219.847s43.616-62.38 52.94-70.007c9.32-7.626 60.447-69.615 60.447-69.615v139.622z"/>
    <path fill="#cf171e" d="M333.234 725.145H219.847s44.795-60.292 54.37-68.125c9.574-7.833 59.017-71.497 59.017-71.497v139.622z"/>
    <path fill="#ce171e" d="M333.234 725.145H219.847s45.974-58.204 55.8-66.244c9.826-8.03 57.587-73.37 57.587-73.37v139.62z"/>
    <path fill="#cd171e" d="M333.234 725.145H219.847s47.153-56.116 57.23-64.362c10.08-8.245 56.157-75.26 56.157-75.26v139.622z"/>
    <path fill="#cc171e" d="M333.234 725.145H219.847s48.332-54.028 58.66-62.48c10.33-8.45 54.727-77.142 54.727-77.142v139.622z"/>
    <path fill="#cc171d" d="M333.234 725.145H219.847s49.51-51.94 60.092-60.6c10.58-8.656 53.29-79.022 53.29-79.022v139.622z"/>
    <path fill="#cb161d" d="M333.234 725.145H219.847s50.69-49.853 61.524-58.718c10.84-8.863 51.87-80.904 51.87-80.904v139.622z"/>
    <path fill="#ca161d" d="M333.234 725.145H219.847s51.868-47.765 62.954-56.836c11.09-9.07 50.44-82.79 50.44-82.79v139.62z"/>
    <path fill="#c9161d" d="M333.234 725.145H219.847s53.047-45.678 64.385-54.955c11.338-9.275 49.002-84.667 49.002-84.667v139.622z"/>
    <path fill="#c9161d" d="M333.234 725.145H219.847s54.226-43.59 65.816-53.073c11.59-9.482 47.57-86.55 47.57-86.55v139.623z"/>
    <path fill="#c8161d" d="M333.234 725.145H219.847s55.405-41.503 67.246-51.19c11.842-9.69 46.14-88.432 46.14-88.432v139.622z"/>
    <path fill="#c7161c" d="M333.234 725.145H219.847s56.583-39.415 68.677-49.31c12.094-9.894 44.71-90.312 44.71-90.312v139.622z"/>
    <path fill="#c6161c" d="M333.234 725.145H219.847s57.763-37.327 70.108-47.43c12.345-10.098 43.28-92.192 43.28-92.192v139.622z"/>
    <path fill="#c6151c" d="M333.234 725.145H219.847s58.942-35.24 71.538-45.547c12.598-10.306 41.85-94.075 41.85-94.075v139.622z"/>
    <path fill="#c5151c" d="M333.234 725.145H219.847s60.12-33.152 72.97-43.666c12.85-10.52 40.417-95.96 40.417-95.96v139.62z"/>
    <path fill="#c4151c" d="M333.234 725.145H219.847s61.3-31.064 74.4-41.784c13.1-10.71 38.987-97.83 38.987-97.83v139.62z"/>
    <path fill="#c3151b" d="M333.234 725.145H219.847s62.478-28.976 75.83-39.902c13.355-10.925 37.557-99.72 37.557-99.72v139.622z"/>
    <path fill="#c3151b" d="M333.234 725.145H219.847s63.657-26.89 77.262-38.02c13.6-11.13 36.12-101.602 36.12-101.602v139.622z"/>
    <path fill="#c2151b" d="M333.234 725.145H219.847s64.835-24.802 78.693-36.14c13.857-11.336 34.694-103.482 34.694-103.482v139.622z"/>
    <path fill="#c1141b" d="M333.234 725.145H219.847s66.014-22.714 80.123-34.258c14.11-11.543 33.264-105.364 33.264-105.364v139.622z"/>
    <path fill="#c0141b" d="M333.234 725.145H219.847s67.193-20.626 81.554-32.377c14.37-11.748 31.84-107.245 31.84-107.245v139.622z"/>
    <path fill="#c0141a" d="M333.234 725.145H219.847s68.372-18.54 82.985-30.495c14.613-11.955 30.402-109.127 30.402-109.127v139.622z"/>
    <path fill="#bf141a" d="M333.234 725.145H219.847s69.55-16.45 84.415-28.614c14.866-12.16 28.972-111 28.972-111v139.62z"/>
    <path fill="#be141a" d="M333.234 725.145H219.847s70.73-14.363 85.847-26.732c15.116-12.367 27.54-112.89 27.54-112.89v139.622z"/>
    <path fill="#bd131a" d="M333.234 725.145H219.847s71.908-12.275 87.278-24.85c15.368-12.574 26.11-114.772 26.11-114.772v139.622z"/>
    <path fill="#bd131a" d="M333.234 725.145H219.847s73.087-10.188 88.708-22.97c15.62-12.778 24.68-116.652 24.68-116.652v139.622z"/>
    <path fill="#bc1319" d="M333.234 725.145H219.847s74.266-8.1 90.14-21.088c15.872-12.985 23.247-118.534 23.247-118.534v139.622z"/>
    <path fill="#bb1319" d="M333.234 725.145H219.847s75.445-6.013 91.57-19.206 21.817-120.42 21.817-120.42v139.62z"/>
    <path fill="#ba1319" d="M333.234 585.523v139.622H219.847s76.623-3.925 93-17.325c16.377-13.397 20.387-122.297 20.387-122.297z"/>
    <path fill="#fff" d="M275.368 619.478s-6.367 3.48-9.388-1.442c0 0-1.044-1.377-1.372.196 0 0 1.836 7.088 10.887 3.348 0 0 .918-.524.593-1.31-.333-.792-.198-.99-.72-.792z"/>
    <path fill="#231f20" d="M275.49 482.49s-6.368 3.478-9.388-1.442c0 0-1.05-1.38-1.372.197 0 0 1.836 7.087 10.886 3.346 0 0 .923-.52.594-1.3-.33-.79-.2-.99-.72-.79z"/>
    <path fill="#231f20" d="M302.055 499.287s-1.116.46-1.377-.33c-.26-.788.595-2.23.595-2.23s10.822-11.677 9.774-20.533c0 0-1.053-.198-1.638 1.903-.6 2.1-3.48 7.937-6.24 8.198 0 0-1.25-.327-.2-1.508 1.05-1.182 4.42-5.06 4.57-8.306 0 0-7.49 5.83-10.22 19.61 0 0 .59 2.73 1.9 6.06 1.31 3.33 4.04 15.21 4.39 31.37 0 0 .47 2.26-.47 4.99 0 0-.59.66-.62 1.82 0 0 .07 1.16-1.22 1.16s-.61-1.8-.61-1.8.07-.84.47-1.52c.41-.68 1.32-1.93.17-3.42l-19.49-25.33s-.92-1.18.07-2.29c.98-1.11 12.85-15.35 6.61-17.84 0 0-1.05-.72-1.96-.53 0 0-.4 0-.4-.72s.46-.98.46-.98 1.64-.78 3.61 1.44c0 0 .45.6 1.11.2.66-.39.46-3.6-4.13-6.03 0 0-1.12.13-1.12-.92 0-1.04 1.12-.72 1.12-.72s1.7.13 2.95 1.45c0 0 .79.45 1.18-.14.39-.59-.98-3.21-4.66-4.07 0 0-1.51.13-1.44-1.12.06-1.24 1.44-.78 1.44-.78s2.23.98 3.08 1.12c0 0 1.05-.33-.26-1.31s-5.08-3.84-9.26-5.48c.66-.73 2.16-2.38 2.95-3.18 1.05-1.04 1.31-.46 1.31-.46.85 1.12-.4 2.57-.4 2.57s-.59.65 0 1.31c.59.65 1.24 0 1.24 0s.59-.85 1.25-1.64c.65-.79 1.05-.59 1.05-.59.92.93-.07 2.3-.46 2.7-.4.4-.2 1.05-.2 1.05s.07.26.92.85c.85.6 1.17-.19 1.17-.19l2.04-2.56s.45-.59.91-.39c.45.2.45.92.45.92s-.52 4.93-.72 5.78c-.2.86-1.25 1.05-1.25 1.05.85 1.77 2.23 1.25 2.23 1.25s.78-7.08 1.11-7.94c.33-.85-.06-2.1-.98-2.55-.91-.46-2.43.92-2.96 1.45-.52.52-.59.26-.65 0-.07-.27-.13-.59 0-1.71s-.27-1.38-.27-1.38c-.98-.59-1.37-.13-2.17.27-.78.4-.85-.46-.85-.46-.06-.72-.26-.78-1.18-1.37-.92-.59-2.1.86-2.1.86l-3.67 3.74c-.13.12-.24.22-.31.3-.11.03-.21.07-.28.15-.39.46-1.91 3.08-4.92 3.47l-1.78.21s-.79.06-.79 1.12V478s.07.85.92.85 5.71.528 5.71 6.167c0 5.646-3.8 5.84-6.03 5.84 0 0-1.58-.522-1.91.46 0 0-.66.92-.59 2.166.06 1.25.39 2.696-.53 2.827-.92.13-1.45-1.51-1.25-2.62l-16.4-12.99s-.86-.065.06-1.64c0 0 1.84-7.215-2.62-8.726 0 0-3.09-.86-4.2 0 0 0 .59.59.92 1.51 0 0 2.82-.92 3.14.78.34 1.71-3.14 4.14-3.14 4.14l14.37 20.53s1.77 2.75-3.93 3.74c0 0 1.31 1.44 7.02-.33 0 0 1.63-.85 2.03.78.39 1.64-.79 2.04-.79 2.04s-2.23.92-4.66 1.44c0 0 1.25 1.24 6.23.52 0 0 .47-.194 1.64-.85 0 0 1.9-.79 2.1.33.2 1.116-1.18 2.88-2.23 3.8-1.05.92-9.19 9.19-18.18 11.02 0 0-2.43.27-1.38-1.962 0 0 3.08-4.92-3.94-7.41 0 0-.86.78-.14 1.18.73.39 4.34 2.23 1.32 3.215l-2.36.92s3.94 8.394 5.18 9.84c0 0 .53.33 3.35-.656 2.83-.98 21.12-6.9 23.16-7.68 0 0 .26-.52.26-1.58 0-1.05-.19-3.41-.19-3.41s-.26-.99 1.24-1.05c1.51-.06 1.18 1.31 1.18 1.31s.07 4.33.6 5.19c.52.85 3.342 4.72 3.342 4.72s.66.45-.32 1.31c-.99.85-18.64 13.97-18.64 13.97s-.46.39-.13 1.7c.327 1.31.85 4.2.59 4.72-.263.52-8.783 13.19-8.783 13.19s-7.68-.72-11.09 3.61c0 0 .26.65 1.25.07.98-.59 2.89-1.64 2.95.65l.26 2.89 8.266-.13s8.99-5.71 10.36-6.95c1.39-1.25 14.9-17.71 14.9-17.71l6.63-.13s.32-1.71-1.9-4.86c0 0-.99-1.25.72-2.17 1.71-.92 2.03.73 2.03.73s5.06 13.77 6.24 21.51c0 0-11.61 5.91-12.92 13.65 0 0 1.11-.92 1.83-1.11 0 0 .062-3.15 1.9-3.08 0 0 1.314 2.82 1.97 3.47 0 0 .453.47 1.31-.12.853-.59 15.943-11.81 15.943-11.81s-.2-5.05.33-6.36c.52-1.31 4-11.35 4.33-21.32.32-9.98.32-15.88.32-15.88s-.52-1.11-.72-1.51c-.198-.39-5.91-11.35-5.91-11.35z"/>
    <path fill="#fff" d="M302.055 636.894s-1.116.455-1.377-.332c-.26-.783.595-2.227.595-2.227s10.822-11.682 9.774-20.537c0 0-1.053-.197-1.638 1.907-.6 2.096-3.48 7.936-6.24 8.195 0 0-1.25-.33-.2-1.504 1.05-1.185 4.42-5.064 4.57-8.305 0 0-7.49 5.83-10.22 19.61 0 0 .59 2.73 1.9 6.06 1.31 3.33 4.04 15.21 4.39 31.37 0 0 .47 2.26-.47 4.98 0 0-.59.66-.62 1.82 0 0 .07 1.16-1.22 1.16s-.61-1.8-.61-1.8.07-.84.47-1.52c.41-.68 1.32-1.93.17-3.42l-19.5-25.33s-.92-1.18.07-2.3c.98-1.11 12.85-15.35 6.62-17.84 0 0-1.05-.72-1.96-.52 0 0-.4 0-.4-.72s.46-.99.46-.99 1.64-.78 3.61 1.44c0 0 .45.6 1.11.2.66-.39.46-3.61-4.13-6.03 0 0-1.12.13-1.12-.92s1.12-.72 1.12-.72 1.7.13 2.95 1.45c0 0 .79.46 1.18-.13.39-.58-.98-3.21-4.66-4.06 0 0-1.51.13-1.44-1.12.06-1.24 1.44-.79 1.44-.79s2.23.99 3.08 1.12c0 0 1.05-.33-.26-1.31-1.31-.99-5.08-3.85-9.26-5.49.66-.73 2.15-2.37 2.95-3.18 1.05-1.05 1.31-.46 1.31-.46.85 1.12-.4 2.57-.4 2.57s-.59.65 0 1.31c.59.65 1.24 0 1.24 0s.59-.85 1.25-1.64c.65-.79 1.05-.6 1.05-.6.92.93-.07 2.3-.46 2.7-.39.4-.2 1.05-.2 1.05s.07.26.92.85c.85.59 1.18-.2 1.18-.2l2.04-2.55s.45-.6.91-.4c.46.2.46.92.46.92s-.52 4.93-.72 5.77c-.2.86-1.25 1.06-1.25 1.06.85 1.77 2.23 1.25 2.23 1.25s.78-7.08 1.11-7.94c.32-.85-.06-2.1-.99-2.56-.92-.46-2.43.92-2.96 1.45-.52.53-.59.26-.65 0-.07-.26-.13-.59 0-1.71.13-1.11-.26-1.37-.26-1.37-.99-.59-1.38-.13-2.17.26-.79.4-.85-.46-.85-.46-.07-.72-.26-.78-1.18-1.38-.92-.58-2.11.86-2.11.86l-3.67 3.75c-.14.12-.24.22-.32.31-.11.02-.2.06-.27.14-.39.47-1.91 3.09-4.92 3.48l-1.78.2s-.79.06-.79 1.12v2.69s.06.85.92.85 5.7.52 5.7 6.17-3.81 5.84-6.04 5.84c0 0-1.58-.52-1.9.46 0 0-.65.92-.59 2.17.07 1.25.39 2.69-.52 2.82-.92.13-1.44-1.51-1.25-2.63l-16.38-13s-.85-.06.06-1.64c0 0 1.83-7.21-2.63-8.72 0 0-3.09-.86-4.2 0 0 0 .59.59.92 1.51 0 0 2.82-.92 3.14.78.33 1.71-3.14 4.14-3.14 4.14l14.36 20.53s1.78 2.76-3.93 3.75c0 0 1.31 1.45 7.02-.33 0 0 1.63-.85 2.03.79.4 1.64-.79 2.04-.79 2.04s-2.23.92-4.66 1.44c0 0 1.25 1.25 6.23.53 0 0 .47-.2 1.65-.85 0 0 1.9-.79 2.1.33.2 1.12-1.18 2.89-2.23 3.81-1.05.92-9.19 9.18-18.18 11.02 0 0-2.42.27-1.37-1.96 0 0 3.09-4.92-3.93-7.41 0 0-.86.78-.14 1.18.73.4 4.34 2.24 1.32 3.22l-2.36.93s3.94 8.39 5.18 9.83c0 0 .53.34 3.35-.65 2.82-.98 21.12-6.89 23.16-7.67 0 0 .25-.53.25-1.58s-.19-3.41-.19-3.41-.26-.99 1.24-1.06c1.51-.06 1.18 1.31 1.18 1.31s.07 4.33.6 5.18c.52.86 3.34 4.73 3.34 4.73s.66.46-.32 1.31c-.99.85-18.64 13.98-18.64 13.98s-.46.398-.13 1.71c.32 1.316.85 4.2.59 4.727-.27.53-8.79 13.19-8.79 13.19s-7.68-.72-11.09 3.61c0 0 .27.66 1.25.06.99-.59 2.89-1.64 2.96.66l.26 2.88 8.26-.13s8.99-5.71 10.37-6.95c1.38-1.25 14.89-17.71 14.89-17.71l6.63-.13s.32-1.71-1.91-4.85c0 0-.99-1.25.72-2.17 1.71-.92 2.03.72 2.03.72s5.05 13.78 6.24 21.51c0 0-11.62 5.905-12.93 13.65 0 0 1.11-.92 1.83-1.114 0 0 .07-3.15 1.91-3.08 0 0 1.31 2.82 1.97 3.47 0 0 .45.47 1.31-.12.85-.6 15.94-11.82 15.94-11.82s-.2-5.05.33-6.35c.52-1.31 4-11.35 4.33-21.32.327-9.97.327-15.88.327-15.88s-.52-1.12-.72-1.51c-.2-.39-5.91-11.35-5.91-11.35z"/>
    <path fill="#231f20" d="M162.103 619.947s-6.363 3.476-9.383-1.445c0 0-1.05-1.377-1.377.198 0 0 1.836 7.086 10.89 3.346 0 0 .918-.525.59-1.312-.328-.787-.196-.985-.72-.787z"/>
    <path fill="#231f20" d="M188.673 636.742s-1.116.46-1.38-.33c-.263-.786.593-2.23.593-2.23s10.823-11.677 9.775-20.534c0 0-1.05-.195-1.64 1.903-.59 2.1-3.47 7.94-6.23 8.21 0 0-1.25-.33-.2-1.51s4.42-5.06 4.58-8.3c0 0-7.48 5.82-10.22 19.61 0 0 .6 2.73 1.9 6.06 1.31 3.33 4.05 15.21 4.4 31.37 0 0 .48 2.26-.47 4.99 0 0-.58.67-.61 1.82 0 0 .07 1.16-1.22 1.16-1.28 0-.6-1.8-.6-1.8s.07-.84.47-1.52c.41-.67 1.32-1.93.17-3.42-1.15-1.49-19.5-25.33-19.5-25.33s-.92-1.18.07-2.29c.98-1.11 12.86-15.35 6.62-17.84 0 0-1.04-.72-1.96-.53 0 0-.4 0-.4-.72s.47-.99.47-.99 1.64-.78 3.61 1.45c0 0 .46.59 1.11.2.66-.4.46-3.61-4.13-6.04 0 0-1.12.13-1.12-.92s1.12-.72 1.12-.72 1.71.13 2.95 1.45c0 0 .79.46 1.18-.13.4-.59-.98-3.21-4.65-4.07 0 0-1.51.13-1.44-1.11.07-1.25 1.45-.79 1.45-.79s2.23.98 3.08 1.12c0 0 1.04-.33-.27-1.31-1.3-.99-5.07-3.85-9.24-5.49.66-.73 2.15-2.38 2.95-3.18 1.05-1.05 1.31-.46 1.31-.46.85 1.12-.39 2.56-.39 2.56s-.6.66 0 1.32c.59.65 1.24 0 1.24 0s.59-.85 1.25-1.64c.66-.79 1.05-.59 1.05-.59.92.92-.06 2.3-.45 2.69-.4.39-.2 1.05-.2 1.05s.07.26.92.85c.85.6 1.18-.19 1.18-.19l2.04-2.56s.46-.59.92-.4c.45.2.45.93.45.93s-.52 4.92-.72 5.77c-.2.86-1.25 1.06-1.25 1.06.85 1.77 2.23 1.25 2.23 1.25s.79-7.08 1.12-7.94c.33-.85-.06-2.1-.98-2.56-.92-.46-2.43.92-2.96 1.45-.53.52-.59.26-.66 0-.07-.27-.13-.6 0-1.71.13-1.12-.26-1.38-.26-1.38-.98-.59-1.38-.13-2.16.26-.78.39-.85-.46-.85-.46-.06-.72-.26-.79-1.18-1.38-.92-.59-2.1.85-2.1.85l-3.67 3.75c-.14.12-.24.22-.32.31-.11.02-.2.06-.27.15-.4.45-1.91 3.07-4.92 3.47l-1.78.19s-.78.07-.78 1.12v2.69s.07.85.92.85c.85 0 5.71.52 5.71 6.16s-3.81 5.84-6.04 5.84c0 0-1.57-.52-1.9.46 0 0-.66.92-.59 2.16.06 1.25.4 2.69-.52 2.82-.92.13-1.44-1.51-1.25-2.62l-16.4-12.99s-.85-.06.07-1.64c0 0 1.84-7.21-2.63-8.72 0 0-3.08-.85-4.2 0 0 0 .6.6.92 1.51 0 0 2.82-.91 3.15.79.33 1.71-3.15 4.14-3.15 4.14l14.37 20.53s1.77 2.76-3.93 3.75c0 0 1.31 1.44 7.02-.33 0 0 1.64-.85 2.04.79.39 1.64-.79 2.03-.79 2.03s-2.23.92-4.66 1.44c0 0 1.25 1.24 6.23.52 0 0 .46-.2 1.64-.85 0 0 1.91-.79 2.1.32.2 1.12-1.18 2.89-2.23 3.81-1.04.92-9.18 9.18-18.17 11.02 0 0-2.42.26-1.37-1.97 0 0 3.08-4.92-3.94-7.41 0 0-.85.79-.13 1.18.72.39 4.33 2.23 1.31 3.22l-2.36.92s3.94 8.39 5.19 9.84c0 0 .52.33 3.35-.65 2.82-.99 21.13-6.9 23.16-7.68 0 0 .27-.52.27-1.58 0-1.05-.2-3.41-.2-3.41s-.26-.99 1.26-1.05c1.5-.07 1.17 1.31 1.17 1.31s.07 4.33.59 5.18c.52.85 3.34 4.73 3.34 4.73s.66.45-.322 1.31c-.98.85-18.63 13.97-18.63 13.97s-.45.4-.13 1.71c.33 1.31.85 4.2.59 4.72-.26.52-8.78 13.19-8.78 13.19s-7.68-.72-11.09 3.61c0 0 .265.66 1.25.06.984-.59 2.89-1.64 2.955.66l.26 2.89 8.26-.14s8.99-5.7 10.36-6.95c1.38-1.25 14.89-17.71 14.89-17.71l6.63-.13s.33-1.7-1.9-4.85c0 0-.98-1.24.72-2.16 1.71-.92 2.03.72 2.03.72s5.05 13.78 6.23 21.52c0 0-11.61 5.91-12.92 13.65 0 0 1.11-.92 1.83-1.11 0 0 .07-3.16 1.9-3.09 0 0 1.313 2.82 1.97 3.47 0 0 .46.46 1.31-.13.855-.59 15.945-11.81 15.945-11.81s-.2-5.05.325-6.36c.53-1.31 4-11.35 4.33-21.32.33-9.98.33-15.88.33-15.88s-.52-1.11-.72-1.51c-.2-.39-5.91-11.35-5.91-11.35z"/>
    <path fill="#fff" d="M162.103 480.474s-6.363 3.478-9.383-1.443c0 0-1.05-1.37-1.377.2 0 0 1.836 7.09 10.89 3.35 0 0 .918-.52.59-1.31-.328-.79-.196-.98-.72-.79z"/>
    <path fill="#fff" d="M188.673 497.27s-1.116.458-1.38-.332c-.263-.785.593-2.227.593-2.227s10.823-11.67 9.775-20.53c0 0-1.05-.2-1.64 1.9-.59 2.1-3.47 7.94-6.23 8.2 0 0-1.25-.32-.2-1.51 1.05-1.18 4.42-5.06 4.58-8.3 0 0-7.48 5.82-10.22 19.61 0 0 .6 2.74 1.9 6.06 1.31 3.33 4.05 15.21 4.4 31.37 0 0 .48 2.26-.47 4.99 0 0-.58.66-.61 1.82 0 0 .07 1.16-1.22 1.16-1.28 0-.6-1.8-.6-1.8s.07-.84.47-1.52c.41-.68 1.32-1.93.17-3.42-1.15-1.49-19.5-25.33-19.5-25.33s-.92-1.18.07-2.29c.98-1.11 12.86-15.35 6.62-17.84 0 0-1.04-.72-1.96-.53 0 0-.4 0-.4-.72s.47-.98.47-.98 1.64-.78 3.61 1.45c0 0 .46.59 1.11.2.66-.39.46-3.61-4.13-6.03 0 0-1.12.13-1.12-.91 0-1.05 1.12-.72 1.12-.72s1.71.13 2.95 1.45c0 0 .79.46 1.18-.13.4-.59-.98-3.21-4.65-4.06 0 0-1.51.14-1.44-1.11.07-1.25 1.45-.79 1.45-.79s2.23.99 3.08 1.12c0 0 1.04-.33-.27-1.31-1.3-.98-5.07-3.84-9.24-5.48.66-.74 2.15-2.38 2.95-3.18 1.05-1.05 1.31-.46 1.31-.46.85 1.11-.39 2.56-.39 2.56s-.6.65 0 1.31c.59.65 1.24 0 1.24 0s.59-.85 1.25-1.64c.66-.79 1.05-.59 1.05-.59.92.92-.06 2.3-.45 2.69-.4.4-.2 1.05-.2 1.05s.07.26.92.85c.85.59 1.18-.19 1.18-.19l2.04-2.55s.46-.6.92-.4c.45.2.45.92.45.92s-.52 4.92-.72 5.77c-.2.86-1.25 1.05-1.25 1.05.85 1.77 2.23 1.25 2.23 1.25s.79-7.08 1.12-7.94c.33-.86-.06-2.1-.98-2.56-.92-.46-2.43.92-2.96 1.44-.53.52-.59.26-.66 0-.07-.26-.13-.59 0-1.71s-.26-1.37-.26-1.37c-.98-.59-1.38-.13-2.16.26-.78.39-.85-.46-.85-.46-.06-.72-.26-.79-1.18-1.38-.92-.59-2.1.85-2.1.85l-3.67 3.74c-.14.12-.24.22-.32.31-.11.03-.2.07-.27.15-.4.46-1.91 3.08-4.92 3.47l-1.78.2s-.78.07-.78 1.12v2.69s.07.85.92.85c.85 0 5.71.53 5.71 6.17s-3.81 5.84-6.04 5.84c0 0-1.57-.52-1.9.46 0 0-.66.92-.59 2.17.06 1.24.4 2.68-.52 2.82-.92.13-1.44-1.51-1.25-2.63l-16.4-12.99s-.85-.07.07-1.64c0 0 1.84-7.212-2.63-8.72 0 0-3.08-.86-4.2 0 0 0 .59.59.92 1.51 0 0 2.82-.92 3.15.79.33 1.7-3.15 4.13-3.15 4.13l14.37 20.535s1.77 2.756-3.94 3.74c0 0 1.31 1.44 7.02-.334 0 0 1.64-.86 2.04.78.39 1.64-.79 2.033-.79 2.033s-2.24.92-4.66 1.44c0 0 1.24 1.246 6.23.525 0 0 .46-.2 1.64-.85 0 0 1.9-.79 2.1.33.2 1.11-1.18 2.89-2.23 3.8-1.05.92-9.18 9.19-18.17 11.02 0 0-2.42.27-1.37-1.97 0 0 3.08-4.92-3.94-7.41 0 0-.85.79-.13 1.18.72.39 4.33 2.23 1.31 3.21l-2.36.93s3.94 8.4 5.18 9.84c0 0 .52.33 3.35-.65 2.82-.99 21.13-6.9 23.16-7.69 0 0 .27-.52.27-1.57s-.2-3.41-.2-3.41-.26-.99 1.25-1.05c1.51-.065 1.18 1.314 1.18 1.314s.07 4.33.6 5.18c.52.85 3.34 4.73 3.34 4.73s.66.46-.32 1.31c-.99.86-18.63 13.98-18.63 13.98s-.45.39-.13 1.71c.33 1.31.85 4.19.59 4.72-.26.52-8.79 13.19-8.79 13.19s-7.68-.73-11.09 3.6c0 0 .27.66 1.25.07.99-.59 2.89-1.64 2.96.66l.26 2.885 8.27-.13s8.99-5.703 10.36-6.95c1.37-1.244 14.89-17.71 14.89-17.71l6.62-.134s.33-1.7-1.9-4.85c0 0-.98-1.247.72-2.17 1.71-.92 2.04.72 2.04.72s5.05 13.78 6.23 21.52c0 0-11.62 5.9-12.93 13.65 0 0 1.12-.92 1.84-1.11 0 0 .07-3.15 1.91-3.09 0 0 1.31 2.82 1.97 3.47 0 0 .46.46 1.31-.12.86-.6 15.95-11.81 15.95-11.81s-.2-5.05.32-6.36c.53-1.32 4-11.36 4.33-21.33.33-9.97.33-15.87.33-15.87s-.52-1.12-.72-1.51c-.2-.39-5.91-11.35-5.91-11.35z"/>
  </g>
</svg>
