<?xml version="1.0" encoding="UTF-8" standalone="no"?><!DOCTYPE svg PUBLIC "-//W3C//DTD SVG 1.1//EN" "http://www.w3.org/Graphics/SVG/1.1/DTD/svg11.dtd"><svg width="100%" height="100%" viewBox="0 0 292 122" version="1.1" xmlns="http://www.w3.org/2000/svg" xmlns:xlink="http://www.w3.org/1999/xlink" xml:space="preserve" xmlns:serif="http://www.serif.com/" style="fill-rule:evenodd;clip-rule:evenodd;"><g id="g10"><g><rect id="path16" x="242.218" y="0" width="49.677" height="60.314" style="fill:#fff;fill-rule:nonzero;stroke:#fff;stroke-width:2.5px;"/><rect id="path18" x="193.473" y="60.545" width="48.658" height="61.211" style="fill:#fff;fill-rule:nonzero;stroke:#fff;stroke-width:2.5px;"/><rect id="path20" x="193.447" y="0.009" width="48.376" height="60.225" style="fill:#231f20;fill-rule:nonzero;stroke:#231f20;stroke-width:0.63px;"/><rect id="path22" x="242.443" y="60.702" width="49.509" height="60.993" style="fill:#231f20;fill-rule:nonzero;stroke:#231f20;stroke-width:0.63px;"/><path id="path26" d="M101.304,63.725l-1.388,0l-0.236,-1.895l-0.129,-0.151l-2.682,0l0,4.42l1.789,0l0.127,-0.175l0.164,-1.441l1.205,0l0,4.496l-1.205,0l-0.164,-1.44l-0.146,-0.176l-1.77,0l0,4.218l0.182,0.201l1.132,0.128l0,1.085l-4.838,0l0,-1.085l0.986,-0.101l0.164,-0.203l0,-9.776l-0.164,-0.201l-1.058,-0.101l0,-1.112l8.031,0l0,3.309Z" style="fill:#231f20;fill-rule:nonzero;"/><path id="path30" d="M111.525,67.337l-1.168,-3.915l-1.132,3.915l2.3,0Zm4.728,5.658l-4.49,0l0,-1.086l1.022,-0.126l0.073,-0.201l-0.913,-2.982l-3.085,0l-0.893,3.003l0.108,0.204l1.023,0.102l0,1.086l-3.65,0l0,-1.086l0.967,-0.152l3.487,-11.493l1.861,0l3.56,11.469l0.93,0.176l0,1.086Z" style="fill:#231f20;fill-rule:nonzero;"/><path id="path34" d="M132.188,61.502l-0.949,0.127l-0.22,0.252l0,11.114l-1.993,0l-5.07,-9.397l0,7.908l0.182,0.277l1.023,0.126l0,1.086l-3.797,0l0,-1.086l0.968,-0.101l0.2,-0.279l0,-9.722l-0.146,-0.203l-1.022,-0.102l0,-1.086l3.797,0l0,0.581l4.435,8.134l0,-7.274l-0.2,-0.253l-1.005,-0.102l0,-1.086l3.797,0l0,1.086Z" style="fill:#231f20;fill-rule:nonzero;"/><path id="path38" d="M146.115,63.725l-1.387,0l-0.238,-1.895l-0.127,-0.151l-2.683,0l0,4.42l1.789,0l0.127,-0.175l0.164,-1.441l1.205,0l0,4.496l-1.205,0l-0.164,-1.44l-0.146,-0.176l-1.77,0l0,4.218l0.183,0.201l1.131,0.128l0,1.085l-4.838,0l0,-1.085l0.987,-0.101l0.163,-0.203l0,-9.776l-0.163,-0.201l-1.059,-0.101l0,-1.112l8.031,0l0,3.309Z" style="fill:#231f20;fill-rule:nonzero;"/><path id="path42" d="M156.337,67.337l-1.169,-3.915l-1.131,3.915l2.3,0Zm4.727,5.658l-4.491,0l0,-1.086l1.024,-0.126l0.072,-0.201l-0.912,-2.982l-3.085,0l-0.895,3.003l0.11,0.204l1.022,0.102l0,1.086l-3.65,0l0,-1.086l0.967,-0.152l3.486,-11.493l1.861,0l3.56,11.469l0.931,0.176l0,1.086Z" style="fill:#231f20;fill-rule:nonzero;"/><g id="g46"><path id="path54" d="M172.382,64.003c0,-1.55 -0.707,-2.324 -2.118,-2.324l-0.547,0l0,4.622c0.085,0.018 0.218,0.025 0.401,0.025c1.509,0 2.264,-0.774 2.264,-2.323m4.345,8.949c-0.768,0.114 -1.292,0.17 -1.57,0.17c-0.865,0 -1.552,-0.278 -2.064,-0.834c-0.414,-0.454 -0.754,-1.238 -1.021,-2.349c-0.22,-0.943 -0.492,-1.578 -0.813,-1.907c-0.322,-0.329 -0.836,-0.493 -1.542,-0.493l0,4.042l0.182,0.202l0.986,0.127l0,1.086l-4.71,0l0,-1.086l1.004,-0.101l0.165,-0.203l0,-9.775l-0.165,-0.202l-1.004,-0.101l0,-1.112l4.91,0c2.508,0 3.76,1.078 3.76,3.233c0,1.684 -0.816,2.754 -2.445,3.209c0.559,0.167 0.979,0.454 1.258,0.858c0.281,0.404 0.561,1.129 0.84,2.173c0.232,0.858 0.455,1.402 0.667,1.628c0.212,0.228 0.624,0.342 1.232,0.342l0.33,0.051l0,1.042Z" style="fill:#231f20;fill-rule:nonzero;"/><path id="path58" d="M191.072,72.996l-8.561,0l0,-1.112l0.986,-0.101l0.182,-0.202l0,-9.75l-0.163,-0.202l-1.005,-0.101l0,-1.112l8.068,0l0,3.107l-1.387,0l-0.236,-1.692l-0.129,-0.152l-2.775,0l0,4.167l1.716,0l0.148,-0.151l0.145,-1.465l1.222,0l0,4.496l-1.222,0l-0.145,-1.464l-0.148,-0.152l-1.716,0l0,4.623l3.231,0l0.131,-0.203l0.298,-2.046l1.36,0l0,3.512Z" style="fill:#231f20;fill-rule:nonzero;"/><path id="path62" d="M9.145,88.758c0,-4.648 -1.43,-6.972 -4.29,-6.972l-1.058,0l0,14.071l1.058,0c2.86,0 4.29,-2.367 4.29,-7.099m2.737,-0.026c0,1.82 -0.276,3.402 -0.83,4.748c-0.553,1.349 -1.341,2.35 -2.363,3.008c-0.84,0.538 -1.965,0.808 -3.377,0.808l-5.312,0l0,-1.238l1.096,-0.126l0.291,-0.404l0,-13.414l-0.291,-0.404l-1.096,-0.126l0,-1.238l5.312,0c2.068,0 3.68,0.736 4.837,2.211c1.156,1.473 1.733,3.531 1.733,6.175" style="fill:#231f20;fill-rule:nonzero;"/><path id="path66" d="M25.39,97.296l-8.561,0l0,-1.112l0.986,-0.101l0.183,-0.203l0,-9.75l-0.164,-0.202l-1.005,-0.101l0,-1.112l8.069,0l0,3.108l-1.388,0l-0.237,-1.693l-0.128,-0.152l-2.775,0l0,4.169l1.716,0l0.147,-0.152l0.146,-1.465l1.222,0l0,4.497l-1.222,0l-0.146,-1.466l-0.147,-0.151l-1.716,0l0,4.622l3.231,0l0.13,-0.202l0.299,-2.045l1.36,0l0,3.511Z" style="fill:#231f20;fill-rule:nonzero;"/><path id="path70" d="M49.539,81.583l-1.187,0.329l-4.052,15.433l-1.844,0l-4.142,-15.458l-1.205,-0.304l0,-1.236l5.02,0l0,1.236l-1.059,0.128l-0.201,0.378l3.03,11.519l2.938,-11.519l-0.201,-0.378l-1.095,-0.128l0,-1.236l3.998,0l0,1.236Z" style="fill:#231f20;fill-rule:nonzero;"/><path id="path74" d="M60.6,91.081c0,-1.598 -0.252,-2.875 -0.757,-3.827c-0.505,-0.95 -1.178,-1.426 -2.017,-1.426c-0.816,0 -1.47,0.471 -1.962,1.415c-0.494,0.943 -0.739,2.18 -0.739,3.712c0,1.566 0.251,2.83 0.758,3.79c0.503,0.959 1.165,1.44 1.98,1.44c0.815,0 1.475,-0.468 1.98,-1.402c0.505,-0.936 0.757,-2.169 0.757,-3.702m2.629,-0.05c0,1.902 -0.509,3.473 -1.524,4.712c-1.016,1.237 -2.297,1.856 -3.842,1.856c-1.583,0 -2.873,-0.614 -3.87,-1.844c-0.998,-1.229 -1.497,-2.822 -1.497,-4.774c0,-1.971 0.495,-3.558 1.488,-4.762c0.991,-1.204 2.296,-1.806 3.915,-1.806c1.532,0 2.805,0.628 3.815,1.882c1.01,1.255 1.515,2.833 1.515,4.736" style="fill:#231f20;fill-rule:nonzero;"/><path id="path78" d="M76.298,91.081c0,-1.598 -0.253,-2.875 -0.758,-3.827c-0.505,-0.95 -1.177,-1.426 -2.017,-1.426c-0.815,0 -1.469,0.471 -1.962,1.415c-0.493,0.943 -0.74,2.18 -0.74,3.712c0,1.566 0.253,2.83 0.758,3.79c0.505,0.959 1.165,1.44 1.981,1.44c0.815,0 1.475,-0.468 1.98,-1.402c0.505,-0.936 0.758,-2.169 0.758,-3.702m2.628,-0.05c0,1.902 -0.508,3.473 -1.523,4.712c-1.017,1.237 -2.298,1.856 -3.843,1.856c-1.582,0 -2.872,-0.614 -3.87,-1.844c-0.997,-1.229 -1.496,-2.822 -1.496,-4.774c0,-1.971 0.495,-3.558 1.487,-4.762c0.992,-1.204 2.297,-1.806 3.915,-1.806c1.533,0 2.805,0.628 3.815,1.882c1.01,1.255 1.515,2.833 1.515,4.736" style="fill:#231f20;fill-rule:nonzero;"/><path id="path82" d="M90.006,88.303c0,-1.548 -0.705,-2.324 -2.118,-2.324l-0.547,0l0,4.622c0.085,0.018 0.218,0.025 0.401,0.025c1.509,0 2.264,-0.774 2.264,-2.323m4.345,8.949c-0.768,0.114 -1.292,0.17 -1.57,0.17c-0.865,0 -1.552,-0.278 -2.063,-0.833c-0.414,-0.455 -0.755,-1.238 -1.022,-2.35c-0.219,-0.943 -0.49,-1.579 -0.813,-1.907c-0.322,-0.329 -0.836,-0.493 -1.542,-0.493l0,4.042l0.182,0.203l0.986,0.125l0,1.087l-4.71,0l0,-1.087l1.004,-0.101l0.165,-0.203l0,-9.773l-0.165,-0.203l-1.004,-0.101l0,-1.112l4.91,0c2.508,0 3.762,1.078 3.762,3.234c0,1.683 -0.817,2.753 -2.447,3.207c0.559,0.168 0.979,0.455 1.259,0.86c0.28,0.404 0.56,1.128 0.84,2.172c0.231,0.859 0.454,1.402 0.666,1.63c0.213,0.226 0.624,0.34 1.233,0.34l0.329,0.05l0,1.043Z" style="fill:#231f20;fill-rule:nonzero;"/><path id="path86" d="M108.77,85.803l-1.004,0.126l-0.165,0.202l0,6.593c0,1.717 -0.328,2.976 -0.985,3.776c-0.658,0.799 -1.691,1.201 -3.104,1.201c-1.787,0 -3.011,-0.583 -3.669,-1.747c-0.388,-0.693 -0.583,-1.806 -0.583,-3.343l0,-6.505l-0.147,-0.202l-1.021,-0.101l0,-1.087l4.709,0l0,1.087l-1.023,0.101l-0.145,0.202l0,6.584c0,1.199 0.177,2.056 0.529,2.571c0.353,0.515 0.943,0.772 1.77,0.772c0.791,0 1.358,-0.271 1.699,-0.811c0.34,-0.539 0.51,-1.443 0.51,-2.71l0,-6.406l-0.164,-0.202l-1.04,-0.101l0,-1.087l3.833,0l0,1.087Z" style="fill:#231f20;fill-rule:nonzero;"/><path id="path90" d="M118.444,97.296l-4.928,0l0,-1.087l1.113,-0.126l0.164,-0.203l0,-9.75l-0.164,-0.202l-1.113,-0.125l0,-1.088l4.928,0l0,1.088l-1.113,0.102l-0.164,0.202l0,9.798l0.164,0.203l1.113,0.101l0,1.087Z" style="fill:#231f20;fill-rule:nonzero;"/><path id="path94" d="M131.933,88.201l-1.387,0l-0.274,-2.071l-0.146,-0.151l-1.625,0l0,9.902l0.182,0.203l1.078,0.125l0,1.086l-4.91,0l0,-1.086l1.095,-0.102l0.182,-0.202l0,-9.926l-1.624,0l-0.146,0.151l-0.256,2.071l-1.388,0l0,-3.485l9.219,0l0,3.485Z" style="fill:#231f20;fill-rule:nonzero;"/><path id="path98" d="M146.682,92.067l-0.968,0.127l-0.164,0.152l0,4.369c-1.253,0.555 -2.428,0.833 -3.523,0.833c-1.692,0 -3.058,-0.602 -4.098,-1.806c-1.04,-1.203 -1.56,-2.791 -1.56,-4.761c0,-1.971 0.526,-3.549 1.581,-4.736c1.055,-1.188 2.454,-1.782 4.198,-1.782c1.036,0 2.17,0.212 3.402,0.632l0,3.335l-1.428,0l-0.31,-2.047l-0.184,-0.278c-0.366,-0.151 -0.756,-0.226 -1.171,-0.226c-1.099,0 -1.965,0.45 -2.599,1.351c-0.635,0.901 -0.953,2.134 -0.953,3.7c0,1.617 0.327,2.888 0.978,3.815c0.65,0.926 1.535,1.389 2.655,1.389c0.134,0 0.329,-0.025 0.584,-0.077l0.127,-0.025l0,-3.711l-0.182,-0.153l-1.204,-0.101l0,-1.086l4.819,0l0,1.086Z" style="fill:#231f20;fill-rule:nonzero;"/><path id="path102" d="M156.556,91.637l-1.168,-3.914l-1.132,3.914l2.3,0Zm4.727,5.659l-4.49,0l0,-1.087l1.022,-0.125l0.073,-0.203l-0.912,-2.98l-3.085,0l-0.895,3.003l0.11,0.204l1.023,0.101l0,1.087l-3.651,0l0,-1.087l0.967,-0.151l3.486,-11.493l1.862,0l3.56,11.468l0.93,0.176l0,1.087Z" style="fill:#231f20;fill-rule:nonzero;"/><path id="path106" d="M176.032,85.803l-0.949,0.126l-0.22,0.253l0,11.114l-1.994,0l-5.069,-9.397l0,7.906l0.183,0.279l1.022,0.125l0,1.087l-3.797,0l0,-1.087l0.967,-0.101l0.2,-0.279l0,-9.722l-0.145,-0.203l-1.022,-0.101l0,-1.087l3.797,0l0,0.582l4.435,8.133l0,-7.274l-0.2,-0.253l-1.005,-0.101l0,-1.087l3.797,0l0,1.087Z" style="fill:#231f20;fill-rule:nonzero;"/><path id="path110" d="M191.2,92.067l-0.966,0.127l-0.165,0.152l0,4.369c-1.254,0.555 -2.429,0.833 -3.524,0.833c-1.69,0 -3.056,-0.602 -4.097,-1.806c-1.04,-1.203 -1.56,-2.791 -1.56,-4.761c0,-1.971 0.527,-3.549 1.582,-4.736c1.054,-1.188 2.454,-1.782 4.196,-1.782c1.037,0 2.17,0.212 3.403,0.632l0,3.335l-1.428,0l-0.311,-2.047l-0.182,-0.278c-0.367,-0.151 -0.758,-0.226 -1.173,-0.226c-1.099,0 -1.964,0.45 -2.599,1.351c-0.635,0.901 -0.952,2.134 -0.952,3.7c0,1.617 0.326,2.888 0.977,3.815c0.65,0.926 1.537,1.389 2.657,1.389c0.133,0 0.327,-0.025 0.582,-0.077l0.129,-0.025l0,-3.711l-0.183,-0.153l-1.203,-0.101l0,-1.086l4.817,0l0,1.086Z" style="fill:#231f20;fill-rule:nonzero;"/><path id="path114" d="M100.282,117.984c0,1.144 -0.39,2.075 -1.169,2.79c-0.778,0.717 -1.795,1.074 -3.047,1.074c-1.035,0 -2.088,-0.227 -3.158,-0.681l0,-3.512l1.497,0l0.273,2.325l0.147,0.201c0.413,0.169 0.821,0.253 1.222,0.253c1.216,0 1.826,-0.555 1.826,-1.667c0,-0.489 -0.125,-0.898 -0.375,-1.226c-0.248,-0.327 -0.715,-0.702 -1.396,-1.124c-1.144,-0.706 -1.922,-1.329 -2.336,-1.868c-0.414,-0.54 -0.62,-1.204 -0.62,-1.996c0,-1.128 0.349,-2.042 1.049,-2.741c0.7,-0.699 1.615,-1.048 2.747,-1.048c0.973,0 1.989,0.227 3.049,0.681l0,3.158l-1.425,0l-0.291,-1.995l-0.147,-0.227c-0.292,-0.135 -0.621,-0.203 -0.986,-0.203c-1.119,0 -1.679,0.547 -1.679,1.642c0,0.607 0.249,1.136 0.749,1.592c0.255,0.235 0.858,0.614 1.806,1.137c1.509,0.824 2.264,1.97 2.264,3.435" style="fill:#231f20;fill-rule:nonzero;"/><path id="path118" d="M114.1,112.502l-1.388,0l-0.273,-2.071l-0.147,-0.151l-1.625,0l0,9.902l0.183,0.201l1.077,0.126l0,1.086l-4.91,0l0,-1.086l1.095,-0.101l0.183,-0.203l0,-9.925l-1.624,0l-0.146,0.151l-0.256,2.071l-1.388,0l0,-3.485l9.219,0l0,3.485Z" style="fill:#231f20;fill-rule:nonzero;"/><path id="path122" d="M122.387,121.595l-4.929,0l0,-1.085l1.114,-0.128l0.165,-0.201l0,-9.751l-0.165,-0.201l-1.114,-0.126l0,-1.087l4.929,0l0,1.087l-1.114,0.101l-0.164,0.204l0,9.797l0.164,0.204l1.114,0.101l0,1.085Z" style="fill:#231f20;fill-rule:nonzero;"/><path id="path126" d="M132.352,112.944c0,-1.743 -0.663,-2.615 -1.99,-2.615l-0.62,0l0,5.406c0.122,0.018 0.238,0.025 0.347,0.025c1.508,0 2.263,-0.938 2.263,-2.816m2.464,-0.139c0,1.331 -0.361,2.375 -1.085,3.133c-0.725,0.758 -1.731,1.137 -3.021,1.137l-0.968,0l0,3.11l0.164,0.197l1.15,0.128l0,1.085l-4.855,0l0,-1.085l0.986,-0.101l0.183,-0.229l0,-9.75l-0.146,-0.201l-1.095,-0.101l0,-1.112l4.325,0c2.908,0 4.362,1.263 4.362,3.789" style="fill:#231f20;fill-rule:nonzero;"/><path id="path130" d="M149.401,121.595l-4.728,0l0,-1.085l1.023,-0.128l0.163,-0.202l0,-4.445l-3.613,0l0,4.469l0.182,0.203l1.023,0.103l0,1.085l-4.747,0l0,-1.085l0.985,-0.101l0.183,-0.203l0,-9.776l-0.183,-0.201l-0.985,-0.126l0,-1.087l4.747,0l0,1.087l-1.023,0.102l-0.182,0.203l0,4.014l3.613,0l0,-4.014l-0.163,-0.203l-1.023,-0.102l0,-1.087l4.728,0l0,1.087l-0.985,0.101l-0.184,0.204l0,9.797l0.184,0.204l0.985,0.101l0,1.085Z" style="fill:#231f20;fill-rule:nonzero;"/><path id="path134" d="M161.466,115.382c0,-1.6 -0.252,-2.875 -0.757,-3.828c-0.505,-0.95 -1.178,-1.426 -2.018,-1.426c-0.815,0 -1.47,0.471 -1.961,1.414c-0.494,0.945 -0.74,2.181 -0.74,3.713c0,1.566 0.252,2.829 0.759,3.79c0.503,0.959 1.163,1.439 1.98,1.439c0.815,0 1.475,-0.467 1.98,-1.402c0.505,-0.934 0.757,-2.167 0.757,-3.7m2.629,-0.05c0,1.902 -0.509,3.472 -1.524,4.71c-1.017,1.239 -2.297,1.858 -3.842,1.858c-1.583,0 -2.873,-0.616 -3.87,-1.845c-0.999,-1.229 -1.497,-2.821 -1.497,-4.775c0,-1.969 0.495,-3.558 1.487,-4.762c0.992,-1.203 2.297,-1.804 3.916,-1.804c1.532,0 2.804,0.626 3.815,1.882c1.009,1.254 1.515,2.832 1.515,4.736" style="fill:#231f20;fill-rule:nonzero;"/><path id="path138" d="M178.806,110.102l-1.004,0.128l-0.165,0.201l0,6.593c0,1.717 -0.327,2.976 -0.985,3.777c-0.657,0.799 -1.691,1.199 -3.102,1.199c-1.79,0 -3.013,-0.582 -3.67,-1.747c-0.389,-0.692 -0.583,-1.805 -0.583,-3.342l0,-6.505l-0.147,-0.203l-1.021,-0.101l0,-1.085l4.708,0l0,1.085l-1.022,0.101l-0.146,0.203l0,6.584c0,1.2 0.177,2.055 0.53,2.57c0.352,0.515 0.943,0.773 1.771,0.773c0.79,0 1.356,-0.27 1.696,-0.81c0.341,-0.541 0.511,-1.444 0.511,-2.71l0,-6.407l-0.163,-0.203l-1.04,-0.101l0,-1.085l3.832,0l0,1.085Z" style="fill:#231f20;fill-rule:nonzero;"/><path id="path142" d="M191.492,112.502l-1.386,0l-0.274,-2.071l-0.146,-0.151l-1.625,0l0,9.902l0.182,0.201l1.078,0.126l0,1.086l-4.91,0l0,-1.086l1.095,-0.101l0.181,-0.203l0,-9.925l-1.623,0l-0.147,0.151l-0.255,2.071l-1.388,0l0,-3.485l9.218,0l0,3.485Z" style="fill:#231f20;fill-rule:nonzero;"/><path id="path146" d="M267.489,90.679l-0.395,-2.938" style="fill:none;fill-rule:nonzero;stroke:#231f20;stroke-width:0.94px;"/><path id="path150" d="M264.218,81.324l-0.057,-1.199" style="fill:none;fill-rule:nonzero;stroke:#231f20;stroke-width:0.94px;"/><path id="path154" d="M271.21,111.549l-0.339,-0.901" style="fill:none;fill-rule:nonzero;stroke:#231f20;stroke-width:0.94px;"/><path id="path158" d="M254.24,109.389l0,-0.84" style="fill:none;fill-rule:nonzero;stroke:#231f20;stroke-width:0.94px;"/><path id="path162" d="M253.507,88.759l0.791,-0.297" style="fill:none;fill-rule:nonzero;stroke:#231f20;stroke-width:0.94px;"/><path id="path166" d="M278.988,98.295l-1.016,2.279" style="fill:none;fill-rule:nonzero;stroke:#231f20;stroke-width:0.94px;"/><path id="path170" d="M254.579,72.031l0.789,-0.902" style="fill:none;fill-rule:nonzero;stroke:#231f20;stroke-width:0.94px;"/><path id="path174" d="M272.843,100.154l-1.181,-3.239" style="fill:none;fill-rule:nonzero;stroke:#231f20;stroke-width:0.94px;"/><path id="path178" d="M278.705,81.625l-0.789,0.838" style="fill:none;fill-rule:nonzero;stroke:#231f20;stroke-width:0.94px;"/><path id="path182" d="M217.072,30.436l-0.395,-2.938" style="fill:none;fill-rule:nonzero;stroke:#231f20;stroke-width:0.94px;"/><path id="path186" d="M213.803,21.081l-0.057,-1.199" style="fill:none;fill-rule:nonzero;stroke:#231f20;stroke-width:0.94px;"/><path id="path190" d="M220.792,51.305l-0.338,-0.9" style="fill:none;fill-rule:nonzero;stroke:#231f20;stroke-width:0.94px;"/><path id="path194" d="M203.825,49.146l0,-0.839" style="fill:none;fill-rule:nonzero;stroke:#231f20;stroke-width:0.94px;"/><path id="path198" d="M203.09,28.518l0.791,-0.301" style="fill:none;fill-rule:nonzero;stroke:#231f20;stroke-width:0.94px;"/><path id="path202" d="M228.571,38.052l-1.017,2.279" style="fill:none;fill-rule:nonzero;stroke:#231f20;stroke-width:0.94px;"/><path id="path206" d="M204.161,11.787l0.789,-0.899" style="fill:none;fill-rule:nonzero;stroke:#231f20;stroke-width:0.94px;"/><path id="path210" d="M222.426,39.912l-1.182,-3.239" style="fill:none;fill-rule:nonzero;stroke:#231f20;stroke-width:0.94px;"/><path id="path214" d="M228.287,21.381l-0.786,0.839" style="fill:none;fill-rule:nonzero;stroke:#231f20;stroke-width:0.94px;"/><path id="path218" d="M254.447,10.791l-1.621,-2.282c0,0 6.347,-1.351 4.38,5.029l7.266,5.637l0.088,1.304l-0.088,-1.491l0.439,-1.536c0,0 3.064,1.536 3.24,-1.677c0,0 0.349,-2.748 -2.584,-2.377c0,0 -0.612,-0.511 -0.307,-2.841c0,0 1.008,0.28 3.416,-1.117c0,0 13.354,1.816 1.97,16.44c0,0 9.19,11.984 9.136,11.986c-0.054,0.002 -0.935,2.515 -0.935,2.515l0.949,-2.565c0,0 -0.803,-12.059 -2.846,-16.593c0,0 -0.877,-3.913 5.138,-10.681c0,0 5.984,0.668 -3.342,11.148l0.732,-0.818l3.427,6.687l-0.438,9.965l-0.832,4.146c0,0 -1.225,2.188 -1.05,5.31l-8.144,6.148l-1.226,-2.096l0.483,0.841l-2.322,1.627c0,0 -1.313,-3.865 5.691,-7.312l-1.662,-6.289l-1.182,-3.12l1.172,3.12l0.056,0.205l-3.594,0.099l-6.332,7.661l-5.079,3.291l-4.321,0l0,-2.359l-0.008,0.825l-2.976,-0.01c0,0 2.594,-3.203 6.424,-2.666l3.711,-5.788l-0.525,-2.421l8.67,-6.428l-1.578,-2.142l-0.3,-2.889l0.285,2.889l-12.712,4.223c0,0 -1.926,-2.702 -2.888,-5.745l1.984,-0.621l-0.787,0.226l-1.275,-2.407c0,0 5.215,0.381 3.726,4.417c0,0 4.262,-0.622 7.88,-5.217c0,0 -3.823,1.242 -6.479,-2.018l2.773,-1.661l-6.479,-9.315l1.706,-2.002" style="fill:#d1232a;fill-rule:nonzero;stroke:#231f20;stroke-width:0.63px;"/><path id="path222" d="M267.785,14.268c0,0 -3.443,2.111 -4.378,-0.435c0,0 -0.525,-0.31 -0.41,0.808c0,0 0.759,2.297 4.964,0.807c0,0 0.349,-0.124 -0.176,-1.18" style="fill:#fd0;fill-rule:nonzero;"/><path id="path226" d="M267.785,14.268c0,0 -3.443,2.111 -4.378,-0.435c0,0 -0.525,-0.31 -0.41,0.808c0,0 0.759,2.297 4.964,0.807c0,0 0.349,-0.124 -0.176,-1.18Z" style="fill:none;fill-rule:nonzero;stroke:#231f20;stroke-width:0.31px;"/><path id="path230" d="M282.296,10.701c0,0 0.188,2.701 -2.475,5.313" style="fill:none;fill-rule:nonzero;stroke:#231f20;stroke-width:0.63px;"/><path id="path234" d="M268.778,9.374l2.268,-2.348c0,0 1.436,-0.796 0.373,1.926c0,0 -0.268,0.664 0.502,-0.486c0,0 2.308,-2.501 1.04,0.775c0,0 -0.415,1.748 0.707,0.177l0.811,-1.041c0,0 1.187,-0.399 0.667,1.041c0,0 -0.459,1.151 -0.333,4.139c0,0 -1.061,-3.099 -6.035,-4.183" style="fill:#fd0;fill-rule:nonzero;"/><path id="path238" d="M268.778,9.374l2.268,-2.348c0,0 1.436,-0.796 0.373,1.926c0,0 -0.268,0.664 0.502,-0.486c0,0 2.308,-2.501 1.04,0.775c0,0 -0.415,1.748 0.707,0.177l0.811,-1.041c0,0 1.187,-0.399 0.667,1.041c0,0 -0.459,1.151 -0.333,4.139c0,0 -1.061,-3.099 -6.035,-4.183Z" style="fill:none;fill-rule:nonzero;stroke:#231f20;stroke-width:0.63px;"/><path id="path242" d="M274.965,14.066c0,0 -0.29,-1.413 -2.962,-1.815" style="fill:none;fill-rule:nonzero;stroke:#231f20;stroke-width:0.63px;"/><path id="path246" d="M274.667,18.972c0,0 0.136,-1.759 -2.254,-2.092" style="fill:none;fill-rule:nonzero;stroke:#231f20;stroke-width:0.63px;"/><path id="path250" d="M275.158,16.815c0,0 -0.528,-2.391 -2.762,-2.563" style="fill:none;fill-rule:nonzero;stroke:#231f20;stroke-width:0.63px;"/><path id="path254" d="M257.411,23.032c0,0 2.892,1.36 5.115,-0.082" style="fill:none;fill-rule:nonzero;stroke:#231f20;stroke-width:0.63px;"/><path id="path258" d="M203.729,71.471l-1.621,-2.281c0,0 6.348,-1.35 4.378,5.029l7.268,5.637l0.088,1.305l-0.088,-1.492l0.439,-1.537c0,0 3.064,1.537 3.24,-1.676c0,0 0.349,-2.747 -2.584,-2.376c0,0 -0.612,-0.513 -0.307,-2.841c0,0 1.006,0.279 3.416,-1.118c0,0 13.354,1.817 1.97,16.44c0,0 9.19,11.985 9.136,11.985c-0.053,0.003 -0.935,2.516 -0.935,2.516l0.949,-2.565c0,0 -0.802,-12.058 -2.846,-16.591c0,0 -0.876,-3.913 5.139,-10.681c0,0 5.983,0.667 -3.343,11.145l0.733,-0.818l3.426,6.687l-0.438,9.968l-0.832,4.145c0,0 -1.225,2.188 -1.05,5.308l-8.144,6.148l-1.226,-2.095l0.484,0.843l-2.323,1.626c0,0 -1.312,-3.866 5.691,-7.313l-1.662,-6.288l-1.181,-3.122l1.171,3.122l0.056,0.205l-3.594,0.099l-6.332,7.661l-5.079,3.291l-4.321,0l0,-2.36l-0.008,0.827l-2.976,-0.01c0,0 2.594,-3.204 6.424,-2.669l3.711,-5.786l-0.525,-2.422l8.67,-6.427l-1.577,-2.142l-0.3,-2.889l0.285,2.889l-12.713,4.223c0,0 -1.926,-2.701 -2.887,-5.745l1.983,-0.621l-0.787,0.226l-1.278,-2.407c0,0 5.218,0.379 3.729,4.416c0,0 4.263,-0.62 7.88,-5.217c0,0 -3.822,1.244 -6.479,-2.017l2.773,-1.661l-6.479,-9.316l1.706,-2.003" style="fill:#d1232a;fill-rule:nonzero;stroke:#231f20;stroke-width:0.63px;"/><path id="path262" d="M217.067,74.95c0,0 -3.445,2.111 -4.378,-0.436c0,0 -0.525,-0.31 -0.41,0.81c0,0 0.759,2.296 4.964,0.805c0,0 0.349,-0.124 -0.176,-1.179" style="fill:#fd0;fill-rule:nonzero;"/><path id="path266" d="M217.067,74.95c0,0 -3.445,2.111 -4.378,-0.436c0,0 -0.525,-0.31 -0.41,0.81c0,0 0.759,2.296 4.964,0.805c0,0 0.349,-0.124 -0.176,-1.179Z" style="fill:none;fill-rule:nonzero;stroke:#231f20;stroke-width:0.31px;"/><path id="path270" d="M231.578,71.384c0,0 0.188,2.701 -2.475,5.312" style="fill:none;fill-rule:nonzero;stroke:#231f20;stroke-width:0.63px;"/><path id="path274" d="M218.058,70.055l2.27,-2.348c0,0 1.436,-0.796 0.374,1.928c0,0 -0.272,0.664 0.501,-0.489c0,0 2.309,-2.502 1.04,0.777c0,0 -0.418,1.749 0.707,0.176l0.812,-1.041c0,0 1.186,-0.398 0.666,1.041c0,0 -0.459,1.15 -0.333,4.14c0,0 -1.062,-3.1 -6.037,-4.184" style="fill:#fd0;fill-rule:nonzero;"/><path id="path278" d="M218.058,70.055l2.27,-2.348c0,0 1.436,-0.796 0.374,1.928c0,0 -0.272,0.664 0.501,-0.489c0,0 2.309,-2.502 1.04,0.777c0,0 -0.418,1.749 0.707,0.176l0.812,-1.041c0,0 1.186,-0.398 0.666,1.041c0,0 -0.459,1.15 -0.333,4.14c0,0 -1.062,-3.1 -6.037,-4.184Z" style="fill:none;fill-rule:nonzero;stroke:#231f20;stroke-width:0.63px;"/><path id="path282" d="M224.247,74.747c0,0 -0.29,-1.412 -2.961,-1.815" style="fill:none;fill-rule:nonzero;stroke:#231f20;stroke-width:0.63px;"/><path id="path286" d="M223.949,79.654c0,0 0.136,-1.758 -2.254,-2.091" style="fill:none;fill-rule:nonzero;stroke:#231f20;stroke-width:0.63px;"/><path id="path290" d="M224.437,77.497c0,0 -0.525,-2.391 -2.758,-2.562" style="fill:none;fill-rule:nonzero;stroke:#231f20;stroke-width:0.63px;"/><path id="path294" d="M206.693,83.713c0,0 2.893,1.361 5.115,-0.082" style="fill:none;fill-rule:nonzero;stroke:#231f20;stroke-width:0.63px;"/><path id="path298" d="M259.974,82.841l-6.078,-8.759l1.63,-1.968l-0.693,0.823l-1.595,-2.199c0,0 5.929,-1.079 4.083,4.629l6.908,5.535l0.013,1.165l-0.018,-1.192l0.335,-1.765c0,0 2.847,1.35 3.123,-1.412c0,0 0.332,-2.909 -2.431,-2.411c0,0 -0.499,-0.293 -0.248,-2.587c0,0 2.29,-0.176 5.775,-2.587c0,0 1.545,0.502 0.828,2.44c0,0 7.241,3.882 -1.493,14.639l8.655,11.476l-1.015,2.25l1.02,-2.263l0.025,-0.05l-0.051,-0.618c0,0 -0.738,-7.102 -1.634,-11.545c-0.612,-2.069 -1.204,-3.603 -1.194,-3.826c0.057,-1.238 0.577,-5.637 5.027,-10.121c0,0 5.525,0.998 -3.315,10.698l0.75,-0.828l3.283,6.355l-0.388,9.169l-0.828,3.998c0,0 -1.491,3.997 -0.996,5.292l-7.708,5.731l-1.106,-2.027l0.44,0.833l-2.224,1.47c0,0 -1.38,-3.363 5.334,-6.889l-1.572,-5.909l-1.079,-2.953l1.05,2.934l0.031,0.108l-3.32,0.19l-5.925,7.334l-4.807,3.116l-4.145,-0.059l0,-2.292l-0.008,0.826l-2.689,-0.01c0,0 1.722,-2.824 5.887,-2.56l3.565,-5.532l-0.498,-2.248l8.22,-5.937l-1.492,-2.117l-0.385,-2.822l0.353,2.817l-12.043,4.003c0,0 -2.239,-3.66 -2.527,-5.554l1.679,-0.574l-0.739,0.246l-1.175,-2.201c0,0 5,0.469 3.509,4.172c0,0 4.754,-1.115 7.378,-4.936c0,0 -3.953,1.028 -5.997,-1.909l2.515,-1.589Z" style="fill:#fd0;fill-rule:nonzero;"/><path id="path302" d="M259.974,82.841l-6.078,-8.759l1.63,-1.968l-0.693,0.823l-1.595,-2.199c0,0 5.929,-1.079 4.083,4.629l6.908,5.535l0.013,1.165l-0.018,-1.192l0.335,-1.765c0,0 2.847,1.35 3.123,-1.412c0,0 0.332,-2.909 -2.431,-2.411c0,0 -0.499,-0.293 -0.248,-2.587c0,0 2.29,-0.176 5.775,-2.587c0,0 1.545,0.502 0.828,2.44c0,0 7.241,3.882 -1.493,14.639l8.655,11.476l-1.015,2.25l1.02,-2.263l0.025,-0.05l-0.051,-0.618c0,0 -0.738,-7.102 -1.634,-11.545c-0.612,-2.069 -1.204,-3.603 -1.194,-3.826c0.057,-1.238 0.577,-5.637 5.027,-10.121c0,0 5.525,0.998 -3.315,10.698l0.75,-0.828l3.283,6.355l-0.388,9.169l-0.828,3.998c0,0 -1.491,3.997 -0.996,5.292l-7.708,5.731l-1.106,-2.027l0.44,0.833l-2.224,1.47c0,0 -1.38,-3.363 5.334,-6.889l-1.572,-5.909l-1.079,-2.953l1.05,2.934l0.031,0.108l-3.32,0.19l-5.925,7.334l-4.807,3.116l-4.145,-0.059l0,-2.292l-0.008,0.826l-2.689,-0.01c0,0 1.722,-2.824 5.887,-2.56l3.565,-5.532l-0.498,-2.248l8.22,-5.937l-1.492,-2.117l-0.385,-2.822l0.353,2.817l-12.043,4.003c0,0 -2.239,-3.66 -2.527,-5.554l1.679,-0.574l-0.739,0.246l-1.175,-2.201c0,0 5,0.469 3.509,4.172c0,0 4.754,-1.115 7.378,-4.936c0,0 -3.953,1.028 -5.997,-1.909l2.515,-1.589Z" style="fill:none;fill-rule:nonzero;stroke:#231f20;stroke-width:0.63px;"/><path id="path306" d="M281.193,72.634c0,0 0.581,2.074 -2.28,5.159" style="fill:none;fill-rule:nonzero;stroke:#231f20;stroke-width:0.63px;"/><path id="path310" d="M257.57,84.429c0,0 2.942,1.277 4.726,-0.088" style="fill:none;fill-rule:nonzero;stroke:#231f20;stroke-width:0.63px;"/><path id="path314" d="M271.3,74.161c0,0 2.451,0.236 2.871,1.863" style="fill:none;fill-rule:nonzero;stroke:#231f20;stroke-width:0.63px;"/><path id="path318" d="M271.642,76.081c0,0 2.449,0.138 2.674,2.996" style="fill:none;fill-rule:nonzero;stroke:#231f20;stroke-width:0.63px;"/><path id="path322" d="M271.698,78.596c0,0 2.503,0.125 2.056,2.606" style="fill:none;fill-rule:nonzero;stroke:#231f20;stroke-width:0.63px;"/><path id="path326" d="M267.262,76.168c0,0 -2.984,1.74 -3.926,-0.215c0,0 -0.303,-0.679 -0.549,0.077c0,0 -0.159,2.725 4.693,1.186c0,0 0.085,-0.54 -0.218,-1.048" style="fill:#d1232a;fill-rule:nonzero;"/><path id="path330" d="M267.262,76.168c0,0 -2.984,1.74 -3.926,-0.215c0,0 -0.303,-0.679 -0.549,0.077c0,0 -0.159,2.725 4.693,1.186c0,0 0.085,-0.54 -0.218,-1.048Z" style="fill:none;fill-rule:nonzero;stroke:#d1232a;stroke-width:0.31px;"/><path id="path334" d="M209.994,21.921l-6.079,-8.759l1.63,-1.97l-0.692,0.826l-1.593,-2.199c0,0 5.926,-1.082 4.08,4.629l6.909,5.533l0.012,1.166l-0.017,-1.192l0.335,-1.767c0,0 2.849,1.352 3.122,-1.411c0,0 0.333,-2.91 -2.431,-2.411c0,0 -0.496,-0.292 -0.247,-2.586c0,0 2.292,-0.176 5.775,-2.586c0,0 1.545,0.5 0.83,2.439c0,0 7.238,3.88 -1.495,14.639l8.657,11.476l-1.015,2.249l1.018,-2.261l0.025,-0.052l-0.052,-0.616c0,0 -0.737,-7.103 -1.633,-11.548c-0.613,-2.068 -1.202,-3.602 -1.194,-3.824c0.059,-1.237 0.576,-5.638 5.026,-10.121c0,0 5.525,0.998 -3.315,10.699l0.75,-0.83l3.284,6.356l-0.386,9.17l-0.83,3.997c0,0 -1.492,3.997 -0.997,5.29l-7.707,5.731l-1.104,-2.027l0.438,0.832l-2.224,1.472c0,0 -1.378,-3.362 5.336,-6.89l-1.575,-5.907l-1.079,-2.954l1.05,2.934l0.032,0.108l-3.32,0.19l-5.925,7.335l-4.808,3.114l-4.145,-0.058l0,-2.292l-0.007,0.825l-2.687,-0.01c0,0 1.719,-2.822 5.884,-2.557l3.565,-5.532l-0.497,-2.249l8.22,-5.938l-1.49,-2.116l-0.388,-2.822l0.354,2.815l-12.041,4.005c0,0 -2.239,-3.66 -2.529,-5.556l1.679,-0.573l-0.739,0.246l-1.175,-2.2c0,0 5.002,0.47 3.509,4.173c0,0 4.753,-1.117 7.377,-4.937c0,0 -3.95,1.028 -5.996,-1.911l2.515,-1.587Z" style="fill:#fd0;fill-rule:nonzero;"/><path id="path338" d="M209.994,21.921l-6.079,-8.759l1.63,-1.97l-0.692,0.826l-1.593,-2.199c0,0 5.926,-1.082 4.08,4.629l6.909,5.533l0.012,1.166l-0.017,-1.192l0.335,-1.767c0,0 2.849,1.352 3.122,-1.411c0,0 0.333,-2.91 -2.431,-2.411c0,0 -0.496,-0.292 -0.247,-2.586c0,0 2.292,-0.176 5.775,-2.586c0,0 1.545,0.5 0.83,2.439c0,0 7.238,3.88 -1.495,14.639l8.657,11.476l-1.015,2.249l1.018,-2.261l0.025,-0.052l-0.052,-0.616c0,0 -0.737,-7.103 -1.633,-11.548c-0.613,-2.068 -1.202,-3.602 -1.194,-3.824c0.059,-1.237 0.576,-5.638 5.026,-10.121c0,0 5.525,0.998 -3.315,10.699l0.75,-0.83l3.284,6.356l-0.386,9.17l-0.83,3.997c0,0 -1.492,3.997 -0.997,5.29l-7.707,5.731l-1.104,-2.027l0.438,0.832l-2.224,1.472c0,0 -1.378,-3.362 5.336,-6.89l-1.575,-5.907l-1.079,-2.954l1.05,2.934l0.032,0.108l-3.32,0.19l-5.925,7.335l-4.808,3.114l-4.145,-0.058l0,-2.292l-0.007,0.825l-2.687,-0.01c0,0 1.719,-2.822 5.884,-2.557l3.565,-5.532l-0.497,-2.249l8.22,-5.938l-1.49,-2.116l-0.388,-2.822l0.354,2.815l-12.041,4.005c0,0 -2.239,-3.66 -2.529,-5.556l1.679,-0.573l-0.739,0.246l-1.175,-2.2c0,0 5.002,0.47 3.509,4.173c0,0 4.753,-1.117 7.377,-4.937c0,0 -3.95,1.028 -5.996,-1.911l2.515,-1.587Z" style="fill:none;fill-rule:nonzero;stroke:#231f20;stroke-width:0.63px;"/><path id="path342" d="M231.215,11.714c0,0 0.578,2.073 -2.28,5.158" style="fill:none;fill-rule:nonzero;stroke:#231f20;stroke-width:0.63px;"/><path id="path346" d="M207.592,23.508c0,0 2.94,1.278 4.723,-0.089" style="fill:none;fill-rule:nonzero;stroke:#231f20;stroke-width:0.63px;"/><path id="path350" d="M221.32,13.24c0,0 2.451,0.238 2.871,1.863" style="fill:none;fill-rule:nonzero;stroke:#231f20;stroke-width:0.63px;"/><path id="path354" d="M221.661,15.159c0,0 2.452,0.14 2.677,2.998" style="fill:none;fill-rule:nonzero;stroke:#231f20;stroke-width:0.63px;"/><path id="path358" d="M221.718,17.675c0,0 2.505,0.126 2.056,2.605" style="fill:none;fill-rule:nonzero;stroke:#231f20;stroke-width:0.63px;"/><path id="path362" d="M217.284,15.247c0,0 -2.986,1.741 -3.929,-0.215c0,0 -0.302,-0.679 -0.548,0.076c0,0 -0.159,2.727 4.692,1.187c0,0 0.088,-0.539 -0.215,-1.048" style="fill:#d1232a;fill-rule:nonzero;"/><path id="path366" d="M217.284,15.247c0,0 -2.986,1.741 -3.929,-0.215c0,0 -0.302,-0.679 -0.548,0.076c0,0 -0.159,2.727 4.692,1.187c0,0 0.088,-0.539 -0.215,-1.048Z" style="fill:none;fill-rule:nonzero;stroke:#d1232a;stroke-width:0.31px;"/></g></g></g></svg>