<?xml version="1.0" encoding="UTF-8" standalone="no"?><!DOCTYPE svg PUBLIC "-//W3C//DTD SVG 1.1//EN" "http://www.w3.org/Graphics/SVG/1.1/DTD/svg11.dtd"><svg width="100%" height="100%" viewBox="0 0 750 750" version="1.1" xmlns="http://www.w3.org/2000/svg" xmlns:xlink="http://www.w3.org/1999/xlink" xml:space="preserve" style="fill-rule:evenodd;clip-rule:evenodd;stroke-linejoin:round;stroke-miterlimit:1.41421;"><path d="M0,375c0,-207.105 167.891,-375 375,-375c207.105,0 375,167.895 375,375c0,207.105 -167.895,375 -375,375c-207.109,0 -375,-167.895 -375,-375" style="fill:#ed1c24;"/><path d="M357.49,174.779c-3.706,5.451 -6.732,9.911 -10.388,15.3c-7.781,-3.747 -15.69,-7.557 -23.599,-11.366c0.233,-0.696 0.469,-1.389 0.701,-2.081c2.657,0.539 5.351,1.658 7.959,1.484c3.793,-0.244 7.552,-1.293 11.266,-2.234c5.758,-1.459 11.574,-4.742 17.157,-4.348c10.773,0.754 15.283,7.407 11.586,17.592c-2.993,8.228 -7.586,16.614 -13.708,22.661c-3.159,3.122 -12.001,3.184 -16.776,1.136c-3.921,-1.683 -5.629,-8.522 -8.593,-13.538c12.859,-4.381 11.267,5.538 14.401,9.882c13.65,-5.422 18.703,-20.796 9.994,-34.488" style="fill:#fff;fill-rule:nonzero;"/><path d="M310.326,263.571c14.318,-4.896 20.747,-17.999 14.848,-32.987c-4.547,4.812 -8.539,9.044 -13.015,13.786c-7.267,-4.953 -14.604,-9.965 -21.941,-14.972c0.344,-0.642 0.692,-1.285 1.041,-1.927c2.806,1.098 5.542,2.777 8.443,3.137c3.391,0.419 6.985,-0.008 10.392,-0.621c4.97,-0.892 9.99,-3.652 14.74,-3.18c12.585,1.256 17.501,8.975 12.137,20.245c-3.606,7.578 -9.235,15.039 -15.875,19.984c-3.648,2.719 -12.233,1.886 -16.78,-0.626c-3.793,-2.093 -4.954,-8.962 -7.615,-14.4c13.924,-3.548 10.33,7.395 13.625,11.561" style="fill:#fff;fill-rule:nonzero;"/><path d="M281.577,320.034c14.318,-4.895 20.747,-18.002 14.848,-32.987c-4.547,4.812 -8.539,9.04 -13.02,13.787c-7.262,-4.958 -14.599,-9.965 -21.936,-14.973c0.344,-0.642 0.692,-1.285 1.036,-1.927c2.811,1.094 5.547,2.777 8.444,3.134c3.395,0.418 6.989,-0.009 10.396,-0.618c4.97,-0.891 9.986,-3.656 14.74,-3.184c12.581,1.261 17.501,8.975 12.133,20.25c-3.606,7.573 -9.235,15.038 -15.872,19.983c-3.647,2.72 -12.232,1.882 -16.783,-0.626c-3.793,-2.093 -4.954,-8.961 -7.615,-14.4c13.924,-3.548 10.334,7.391 13.629,11.561" style="fill:#fff;fill-rule:nonzero;"/><path d="M426.642,32.294l-33.912,-12.166c0,0 -41.592,87.504 -126.382,87.4c0,0 -26.927,1.252 -26.889,-28.655l-34.907,-0.042c0,0 20.751,102.85 136.608,28.963c0,0 -158.046,169.711 -171.468,350.199c0,0 -11.06,239.441 194.776,125.59c0,0 44.913,-23.362 63.517,-23.461c0,0 -17.02,-11.669 -29.559,-39.189c0,0 -105.731,115.6 -162.387,38.111c-56.652,-77.486 -31.221,-249.112 190.603,-526.75" style="fill:#fff;fill-rule:nonzero;"/><path d="M388.621,421.629c0,0 29.161,157.006 97.453,123.302c0,0 66.015,-17.982 -15.57,-183.266c0,0 -40.763,-73.324 -80.859,-53.535c0,0 -17.936,8.742 -21.397,39.056c-3.458,30.314 -2.649,44.424 -26.152,56.026c-23.499,11.598 -63.5,-6.255 -86.062,-51.964c0,0 2.242,93.018 92.744,74.841c0,0 43.781,-12.887 44.85,-59.139c0,0 -0.029,-19.524 8.187,-23.582c8.22,-4.054 30.529,-17.053 63.168,68.313c32.643,85.357 16.734,100.913 10.943,106.841c-5.786,5.928 -41.385,10.682 -87.305,-96.893" style="fill:#fff;fill-rule:nonzero;"/><path d="M508.167,313.448c0,0 -0.03,-19.524 8.19,-23.582c8.216,-4.054 30.525,-17.049 63.168,68.313c32.639,85.357 16.734,100.913 10.944,106.841c-5.791,5.932 -41.39,10.682 -87.31,-96.893c0,0 29.165,157.006 97.453,123.302c0,0 66.016,-17.982 -15.565,-183.266c0,0 -40.764,-73.324 -80.86,-53.535c0,0 -17.94,8.738 -21.397,39.056c0,0 -1.509,33.443 16.916,66.405c0,0 13.198,-9.405 8.461,-46.641" style="fill:#fff;fill-rule:nonzero;"/><path d="M615.904,217.668l3.495,0c0,0 5.086,5.082 13.136,12.705c8.049,7.631 10.553,19.453 1.272,29.663c-4.24,4.659 1.691,-6.355 1.691,-9.741c0,-3.395 -6.777,-18.645 -14.823,-18.645l0,34.74c0,5.086 -5.086,10.591 -13.136,10.591c-8.054,0 -13.136,-5.927 -10.595,-14.404c1.841,-6.143 14.405,-8.05 19.068,-2.118l-0.108,-42.791Z" style="fill:#fff;"/><path d="M645.038,250.813l0.107,36.863c-4.663,-5.936 -17.227,-4.025 -19.067,2.118c-2.541,8.473 2.545,14.405 10.59,14.405c8.055,0 13.141,-5.509 13.141,-10.591l0,-42.795l-4.771,0Z" style="fill:#fff;"/><path d="M597.869,144.741l0,-3.821l23.217,6.454l0.004,3.826l-23.221,-6.459Zm-4.763,-11.921l0.099,39.881c-4.663,-5.932 -17.223,-4.025 -19.063,2.118c-2.545,8.472 2.541,14.404 10.591,14.404c8.054,0 13.136,-5.509 13.136,-10.591l0,-26.827l23.237,6.462l0.062,22.488c-4.659,-5.936 -17.227,-4.025 -19.067,2.114c-2.541,8.472 2.545,14.408 10.595,14.408c8.05,0 13.136,-5.509 13.136,-10.591l0,-44.879l-32.726,-8.987Z" style="fill:#fff;"/><path d="M412.436,725.7l7.161,-0.765l-4.377,-41.008l-5.798,0.618l-12.038,5.166l2.163,5.719l9.212,-4.174l3.677,34.444Z" style="fill:#fff;fill-rule:nonzero;"/><path d="M440.357,738.208c21.663,-4.885 31.081,-20.808 26.592,-40.715c-2.527,-11.208 -9.957,-22.717 -23.674,-19.624c-10.288,2.32 -16.267,11.667 -14.079,21.37c2.207,9.786 10.232,15.359 20.269,13.096c4.098,-0.924 7.682,-2.963 10.888,-6.674c0.651,6.005 -0.589,11.031 -3.431,15.188c-3.924,5.983 -11.091,10.06 -19.288,11.909l2.723,5.45Zm8.958,-31.992c-6.858,1.546 -11.176,-2.402 -12.629,-8.842c-1.565,-6.943 2.138,-12.348 7.575,-13.574c7.695,-1.735 13.183,4.674 14.934,14.387l0.331,1.859c-2.361,3.169 -6.196,5.265 -10.211,6.17Z" style="fill:#fff;fill-rule:nonzero;"/><path d="M481.36,711.86l33.719,-12.641l-2.137,-5.701l-17.743,6.652c-2.007,0.753 -4.405,1.927 -4.456,2.037c4.206,-7.345 13.128,-21.404 9.848,-30.155c-2.83,-7.547 -10.416,-8.732 -18.044,-5.872c-5.138,1.926 -9.935,6.472 -12.033,11.379l5.319,2.951c1.646,-3.914 4.978,-6.995 8.269,-8.229c4.978,-1.866 8.24,-0.25 9.594,3.363c2.859,7.627 -8.873,25.67 -13.36,33.487l1.024,2.729Z" style="fill:#fff;fill-rule:nonzero;"/><path d="M533.263,690.245l6.43,-3.245l-18.577,-36.821l-5.205,2.627l-9.439,9.083l4.043,4.587l7.145,-7.158l15.603,30.927Z" style="fill:#fff;fill-rule:nonzero;"/><path d="M558.357,651.033l14.506,-10.226l-3.557,-5.046l-14.506,10.226l3.557,5.046Z" style="fill:#fff;fill-rule:nonzero;"/><path d="M609.931,638.677l25.587,-25.34l-4.284,-4.325l-13.463,13.333c-1.523,1.509 -3.231,3.562 -3.231,3.683c0.829,-8.423 3.212,-24.903 -3.364,-31.543c-5.672,-5.727 -13.078,-3.702 -18.866,2.03c-3.899,3.862 -6.414,9.973 -6.319,15.309l6.061,0.514c-0.101,-4.244 1.677,-8.419 4.175,-10.893c3.777,-3.741 7.415,-3.602 10.13,-0.86c5.731,5.787 2.415,27.052 1.523,36.021l2.051,2.071Z" style="fill:#fff;fill-rule:nonzero;"/><path d="M657.146,588.316c8.847,-11.692 3.499,-24.233 -4.433,-30.234c-8.068,-6.105 -21.145,-7.721 -29.992,3.971c-8.899,11.761 -3.447,24.165 4.416,30.115c7.932,6.001 21.111,7.909 30.009,-3.852Zm-4.751,-3.81c-5.432,7.18 -13.712,6.613 -20.686,1.336c-6.975,-5.277 -9.669,-12.8 -4.237,-19.979c5.38,-7.111 13.764,-6.681 20.67,-1.456c6.974,5.277 9.634,12.988 4.253,20.099Z" style="fill:#fff;fill-rule:nonzero;"/><path d="M674.882,561.606l17.417,-31.52l-5.328,-2.944l-9.165,16.585c-1.037,1.876 -2.097,4.327 -2.064,4.444c-1.576,-8.316 -3.929,-24.8 -12.109,-29.321c-7.054,-3.898 -13.591,0.131 -17.53,7.261c-2.654,4.802 -3.347,11.375 -1.753,16.468l5.96,-1.213c-1.292,-4.044 -0.761,-8.551 0.939,-11.628c2.571,-4.653 6.101,-5.543 9.478,-3.677c7.129,3.939 9.934,25.278 11.603,34.135l2.552,1.41Z" style="fill:#fff;fill-rule:nonzero;"/><path d="M700.302,511.431l2.78,-6.644l-38.045,-15.92l-2.251,5.378l-1.273,13.038l6.053,0.86l0.781,-10.084l31.955,13.372Z" style="fill:#fff;fill-rule:nonzero;"/><path d="M47.748,243.238l-1.826,4.678l22.841,8.916l-2.6,6.659l3.633,1.418l2.599,-6.659l3.358,1.31c4.183,1.633 5.709,4.385 4.377,7.797c-0.731,1.872 -1.72,2.944 -2.014,3.21l3.38,2.715c0.468,-0.388 1.599,-1.659 2.716,-4.521c2.428,-6.22 -0.139,-11.344 -6.303,-13.75l-3.687,-1.44l1.697,-4.348l-3.633,-1.417l-1.697,4.348l-22.841,-8.916Z" style="fill:#fff;fill-rule:nonzero;"/><path d="M38.488,266.773c-1.052,3.385 -0.27,6.845 1.404,9.221c-0.864,-0.206 -2.552,-0.545 -3.356,-0.548l-1.472,4.74c1.516,0.1 3.821,0.445 6.755,1.356l12.075,3.75c6.375,1.981 10.23,-0.472 12.176,-6.735c1.262,-4.062 0.907,-7.699 -0.675,-10.974l-3.952,1.371c1.257,2.926 1.493,5.351 0.687,7.946c-1.139,3.668 -3.21,4.757 -6.934,3.6l-2.369,-0.736l0.35,-1.128c2.086,-6.715 2.304,-15.184 -4.862,-17.41c-4.514,-1.402 -8.408,0.977 -9.827,5.547Zm3.651,2.186c0.509,-1.637 2.151,-3.539 4.803,-2.715c4.345,1.349 4.624,5.828 2.906,11.358l-0.35,1.128l-5.868,-1.822c-1.636,-2.303 -2.402,-5.015 -1.491,-7.949Z" style="fill:#fff;fill-rule:nonzero;"/><path d="M32.312,290.612l-1.03,4.855l19.42,4.116c2.094,2.377 3.817,5.641 3.18,8.647c-0.747,3.525 -3.073,4.24 -6.425,3.529l-18.784,-3.981l-1.042,4.912l19.767,4.191c4.855,1.029 9.218,-0.462 10.467,-6.358c0.748,-3.525 -0.209,-6.989 -2.654,-9.984l3.872,0.821l1.029,-4.855l-27.8,-5.893Z" style="fill:#fff;fill-rule:nonzero;"/><path d="M25.883,324.624l-0.657,4.978l24.309,3.207l-0.935,7.088l3.866,0.51l0.935,-7.088l3.573,0.471c4.451,0.588 6.59,2.896 6.111,6.528c-0.263,1.991 -0.967,3.269 -1.189,3.597l3.93,1.83c0.362,-0.489 1.157,-1.993 1.558,-5.039c0.873,-6.619 -2.842,-10.983 -9.402,-11.848l-3.924,-0.518l0.61,-4.627l-3.866,-0.51l-0.61,4.627l-24.309,-3.206Z" style="fill:#fff;fill-rule:nonzero;"/><path d="M22.495,349.734c-0.216,3.538 1.366,6.713 3.558,8.622c-0.888,0.005 -2.609,0.078 -3.39,0.267l-0.302,4.953c1.496,-0.263 3.817,-0.477 6.884,-0.29l12.62,0.77c6.664,0.407 9.825,-2.893 10.224,-9.439c0.259,-4.246 -0.951,-7.694 -3.266,-10.499l-3.513,2.272c1.917,2.544 2.724,4.843 2.558,7.555c-0.234,3.833 -1.986,5.384 -5.878,5.147l-2.477,-0.152l0.072,-1.179c0.428,-7.018 -1.375,-15.296 -8.865,-15.753c-4.717,-0.288 -7.934,2.949 -8.225,7.726Zm4.067,1.254c0.104,-1.71 1.247,-3.949 4.019,-3.78c4.541,0.277 5.877,4.561 5.525,10.341l-0.072,1.179l-6.133,-0.374c-2.137,-1.847 -3.526,-4.299 -3.339,-7.366Z" style="fill:#fff;fill-rule:nonzero;"/><path d="M22.272,373.911l0.08,4.963l18.845,-0.306c0.953,0.457 5.539,2.688 5.605,6.764c0.025,1.536 -0.259,2.249 -0.431,2.607l4.687,1.165c0.171,-0.417 0.569,-1.369 0.539,-3.2c-0.063,-3.899 -3.174,-6.271 -5.143,-7.421l4.313,-0.07l-0.081,-4.962l-28.414,0.46Z" style="fill:#fff;fill-rule:nonzero;"/><path d="M23.113,407.674c0.46,5.238 2.618,8.192 3.753,9.635l3.478,-2.263c-0.815,-1.174 -2.749,-3.614 -3.09,-7.498c-0.533,-6.062 4.087,-8.84 9.721,-9.513l1.66,18.892c0.77,-0.008 1.481,-0.011 2.188,-0.073c7.945,-0.698 12.581,-5.316 11.95,-12.496c-0.667,-7.593 -7.381,-12.46 -15.797,-11.72c-8.534,0.749 -14.659,5.972 -13.863,15.036Zm17.703,-9.799c4.3,0.334 7.508,2.425 7.886,6.721c0.408,4.65 -2.856,6.657 -6.671,7.11l-1.215,-13.831Z" style="fill:#fff;fill-rule:nonzero;"/><path d="M29.767,450.779c0.748,3.345 2.852,5.72 5.642,7.094c-1.025,0.29 -2.518,0.926 -3.056,1.228l1.095,4.901c1.422,-0.681 3.754,-1.626 5.945,-2.115l35.403,-7.911l-1.082,-4.844l-15.395,3.44c1.112,-2.064 1.404,-4.551 0.747,-7.492c-1.559,-6.977 -8.568,-10.98 -17.332,-9.022c-9.284,2.075 -13.474,7.975 -11.967,14.721Zm4.525,0.2c-1.173,-5.247 2.56,-8.321 8.672,-9.687c6.112,-1.365 11.042,0.378 12.163,5.395c0.592,2.652 0.166,4.806 -0.96,6.813l-14.761,3.298c-2.622,-1.169 -4.573,-3.397 -5.114,-5.819Z" style="fill:#fff;fill-rule:nonzero;"/><path d="M39.163,485.256c1.62,5.003 4.383,7.399 5.812,8.551l2.884,-2.983c-1.057,-0.962 -3.488,-2.907 -4.689,-6.617c-1.875,-5.79 2.006,-9.531 7.348,-11.447l5.843,18.043c0.748,-0.18 1.441,-0.342 2.116,-0.561c7.588,-2.457 11.073,-7.995 8.853,-14.852c-2.348,-7.251 -9.981,-10.493 -18.019,-7.89c-8.15,2.639 -12.951,9.1 -10.148,17.756Zm15.063,-13.51c4.265,-0.636 7.86,0.684 9.189,4.787c1.438,4.441 -1.295,7.126 -4.912,8.422l-4.277,-13.209Z" style="fill:#fff;fill-rule:nonzero;"/><path d="M54.932,523.3l2.017,4.275l30.163,-2.674l-2.194,-4.649l-23.05,2.518l-0.05,-0.107l16.543,-16.302l-2.32,-4.916l-21.109,21.855Z" style="fill:#fff;fill-rule:nonzero;"/><path d="M69.788,553.214c4.897,8.361 14.005,7.546 19.817,4.143c5.863,-3.434 10.737,-11.012 5.87,-19.322c-4.896,-8.362 -13.774,-7.271 -19.586,-3.867c-5.863,3.433 -10.967,10.736 -6.101,19.046Zm3.629,-1.988c-2.866,-4.894 0.111,-9.514 5.261,-12.529c5.149,-3.016 10.332,-3.518 13.199,1.377c2.836,4.843 0.037,9.768 -5.061,12.754c-5.149,3.015 -10.563,3.241 -13.399,-1.602Z" style="fill:#fff;fill-rule:nonzero;"/><path d="M88.3,581.626c5.675,7.855 14.663,6.171 20.123,2.227c5.507,-3.979 9.633,-11.989 3.993,-19.796c-5.675,-7.854 -14.407,-5.918 -19.867,-1.973c-5.507,3.979 -9.889,11.736 -4.249,19.542Zm3.422,-2.326c-3.322,-4.597 -0.8,-9.481 4.037,-12.975c4.837,-3.495 9.948,-4.491 13.27,0.107c3.287,4.549 0.973,9.72 -3.816,13.18c-4.837,3.494 -10.204,4.238 -13.491,-0.312Z" style="fill:#fff;fill-rule:nonzero;"/><path d="M102.511,598.974l3.216,3.78l14.355,-12.212c1.027,-0.252 5.985,-1.445 8.626,1.66c0.995,1.17 1.23,1.902 1.324,2.287l4.36,-2.08c-0.133,-0.43 -0.431,-1.418 -1.618,-2.813c-2.526,-2.97 -6.436,-2.824 -8.687,-2.461l3.286,-2.794l-3.216,-3.781l-21.646,18.414Z" style="fill:#fff;fill-rule:nonzero;"/><path d="M122.807,622.553c3.424,3.428 7.685,3.432 9.941,3.099c-0.92,1.002 -2.216,2.63 -2.592,3.257l3.548,3.553c0.669,-1.085 2.258,-3.089 4.14,-4.968l15.552,-15.53l-3.548,-3.553l-14.006,13.985c-1.003,0.166 -6.058,0.872 -8.897,-1.97c-2.588,-2.593 -1.96,-4.89 0.465,-7.311l13.588,-13.568l-3.549,-3.553l-14.256,14.235c-3.554,3.549 -4.685,8.018 -0.386,12.324Z" style="fill:#fff;fill-rule:nonzero;"/><path d="M165.738,616.075c1.471,1.279 3.677,1.082 4.917,-0.345c1.279,-1.472 1.127,-3.639 -0.345,-4.918c-1.472,-1.279 -3.639,-1.127 -4.917,0.345c-1.24,1.427 -1.127,3.639 0.345,4.918Zm-23.851,23.577l3.836,3.332l18.639,-21.452l-3.836,-3.333l-18.639,21.453Z" style="fill:#fff;fill-rule:nonzero;"/><path d="M160.777,656.077c2.52,1.957 4.888,2.376 5.951,2.453l1.023,-3.918c-0.637,-0.047 -2.358,-0.336 -3.757,-1.423c-1.913,-1.486 -1.733,-3.067 0.007,-5.306l10.293,-13.251l5.599,4.349l2.393,-3.079l-5.599,-4.35l5.002,-6.438l-3.92,-3.045l-5.002,6.439l-3.686,-2.863l-2.392,3.079l3.686,2.863l-10.692,13.764c-3.008,3.873 -2.965,7.573 1.094,10.726Z" style="fill:#fff;fill-rule:nonzero;"/><path d="M171.856,680.296c6.451,4.277 13.941,4.848 17.206,-0.076c4.832,-7.287 -2.389,-11.579 -7.314,-15.27c-2.101,-1.535 -3.285,-2.958 -2.436,-4.238c0.49,-0.739 1.358,-1.085 2.669,-0.924c0.756,0.784 1.528,1.438 2.463,2.058c5.958,3.951 12.1,2.707 15.398,-2.267c1.24,-1.871 1.842,-3.953 1.722,-6.018l3.545,2.351l2.057,-3.102l-7.878,-5.224c-0.872,-1.145 -2.021,-2.191 -3.4,-3.105c-5.958,-3.951 -12.117,-2.788 -15.447,2.234c-2.09,3.152 -2.326,6.823 -0.647,10.063c-1.884,-0.044 -3.898,0.534 -5.041,2.258c-1.176,1.772 -1.057,3.411 -0.201,4.9c-3.245,-0.238 -6.291,0.72 -8.054,3.379c-3.069,4.629 -0.206,9.292 5.358,12.981Zm2.287,-3.021c-4.087,-2.71 -4.635,-5.625 -3.199,-7.792c1.274,-1.92 3.271,-2.794 6.057,-2.719c1.198,1.079 2.692,2.14 4.104,3.218c2.775,2.124 5.877,4.181 3.559,7.677c-1.829,2.757 -5.991,2.62 -10.521,-0.384Zm12.374,-18.662c-3.447,-2.285 -3.964,-5.889 -1.841,-9.09c2.122,-3.201 5.643,-4.127 9.09,-1.841c3.446,2.285 3.963,5.889 1.841,9.089c-2.122,3.201 -5.643,4.128 -9.09,1.842Z" style="fill:#fff;fill-rule:nonzero;"/><path d="M204.016,684.343c3.118,1.688 6.663,1.591 9.319,0.409c-0.37,0.807 -1.03,2.398 -1.188,3.186l4.365,2.363c0.391,-1.468 1.176,-3.663 2.639,-6.365l6.018,-11.119c3.178,-5.872 1.519,-10.129 -4.249,-13.251c-3.741,-2.024 -7.377,-2.38 -10.897,-1.464l0.579,4.143c3.115,-0.665 5.54,-0.428 7.93,0.866c3.377,1.828 4.044,4.07 2.188,7.499l-1.181,2.183l-1.039,-0.563c-6.183,-3.347 -14.45,-5.201 -18.022,1.398c-2.25,4.156 -0.671,8.437 3.538,10.715Zm2.852,-3.159c-1.507,-0.815 -3.055,-2.795 -1.733,-5.237c2.165,-4.001 6.614,-3.407 11.706,-0.651l1.039,0.562l-2.925,5.404c-2.576,1.159 -5.385,1.385 -8.087,-0.078Z" style="fill:#fff;fill-rule:nonzero;"/><path d="M226.129,694.99l4.562,1.952l7.81,-18.25c2.738,-1.592 6.275,-2.649 9.099,-1.44c3.314,1.418 3.563,3.838 2.215,6.988l-7.554,17.653l4.617,1.976l7.949,-18.576c1.953,-4.563 1.338,-9.132 -4.203,-11.503c-3.313,-1.418 -6.897,-1.152 -10.31,0.665l1.558,-3.639l-4.563,-1.953l-11.18,26.127Z" style="fill:#fff;fill-rule:nonzero;"/><path d="M262.408,724.053c7.372,2.356 14.734,0.862 16.532,-4.765c2.662,-8.33 -5.455,-10.489 -11.2,-12.697c-2.441,-0.904 -3.967,-1.95 -3.5,-3.413c0.27,-0.844 1.01,-1.414 2.316,-1.617c0.941,0.548 1.862,0.967 2.931,1.308c6.81,2.176 12.379,-0.696 14.196,-6.38c0.683,-2.138 0.693,-4.306 0.015,-6.259l4.052,1.294l1.133,-3.545l-9.005,-2.878c-1.15,-0.863 -2.541,-1.556 -4.117,-2.06c-6.81,-2.176 -12.418,0.622 -14.252,6.363c-1.151,3.602 -0.378,7.198 2.122,9.857c-1.825,0.472 -3.605,1.578 -4.235,3.547c-0.647,2.026 -0.086,3.57 1.144,4.769c-3.187,0.657 -5.856,2.409 -6.827,5.448c-1.691,5.29 2.335,8.996 8.695,11.028Zm1.376,-3.53c-4.671,-1.493 -5.994,-4.148 -5.202,-6.624c0.701,-2.195 2.384,-3.58 5.085,-4.268c1.447,0.711 3.174,1.325 4.826,1.977c3.249,1.286 6.794,2.419 5.518,6.414c-1.007,3.152 -5.05,4.155 -10.227,2.501Zm6.816,-21.33c-3.94,-1.259 -5.42,-4.585 -4.251,-8.243c1.169,-3.658 4.303,-5.509 8.243,-4.25c3.939,1.258 5.42,4.584 4.251,8.243c-1.169,3.658 -4.304,5.509 -8.243,4.25Z" style="fill:#fff;fill-rule:nonzero;"/></svg>